<?xml version="1.0" encoding="utf-8"?>
<!-- Generator: Adobe Illustrator 19.0.0, SVG Export Plug-In . SVG Version: 6.00 Build 0)  -->
<svg version="1.1" id="Capa_1" xmlns="http://www.w3.org/2000/svg" xmlns:xlink="http://www.w3.org/1999/xlink" x="0px" y="0px"
	 viewBox="0 0 115.2 115.2" enable-background="new 0 0 115.2 115.2" xml:space="preserve">
<g>
	<path fill="#E5E6EE" d="M57.6,91.8c-19,0-34.4-15.4-34.4-34.4S38.6,23,57.6,23S92,38.4,92,57.4S76.6,91.8,57.6,91.8L57.6,91.8z
		 M57.6,3.1c-30,0-54.4,24.3-54.4,54.4s24.3,54.4,54.4,54.4S112,87.4,112,57.4S87.6,3.1,57.6,3.1L57.6,3.1z"/>
	<path fill="#DBDCE5" d="M57.6,16.6c-19,0-34.4,15.4-34.4,34.4c0,1.1,0.1,2.2,0.2,3.2C25,36.7,39.7,23,57.6,23s32.6,13.7,34.2,31.2
		c0.1-1.1,0.2-2.1,0.2-3.2C92,32,76.6,16.6,57.6,16.6L57.6,16.6z"/>
	<path fill="#DBDCE5" d="M57.6,105.3C28.7,105.3,5,82.7,3.3,54.2c-0.1,1.1-0.1,2.1-0.1,3.2c0,30,24.3,54.4,54.4,54.4
		S112,87.4,112,57.4c0-1.1,0-2.2-0.1-3.2C110.2,82.7,86.5,105.3,57.6,105.3L57.6,105.3z"/>
	<path fill="#F1CE61" d="M63.4,27.3H51.8c-2.3,0-4.2-1.9-4.2-4.2V4.2c0-2.3,1.9-4.2,4.2-4.2h11.6c2.3,0,4.2,1.9,4.2,4.2v18.8
		C67.6,25.4,65.7,27.3,63.4,27.3L63.4,27.3z"/>
	<path fill="#F1CE61" d="M63.4,115.2H51.8c-2.3,0-4.2-1.9-4.2-4.2V92.1c0-2.3,1.9-4.2,4.2-4.2h11.6c2.3,0,4.2,1.9,4.2,4.2V111
		C67.6,113.3,65.7,115.2,63.4,115.2L63.4,115.2z"/>
	<path fill="#F1CE61" d="M87.9,63.4V51.8c0-2.3,1.9-4.2,4.2-4.2H111c2.3,0,4.2,1.9,4.2,4.2v11.6c0,2.3-1.9,4.2-4.2,4.2H92.1
		C89.8,67.6,87.9,65.7,87.9,63.4L87.9,63.4z"/>
	<path fill="#F1CE61" d="M0,63.4V51.8c0-2.3,1.9-4.2,4.2-4.2h18.8c2.3,0,4.2,1.9,4.2,4.2v11.6c0,2.3-1.9,4.2-4.2,4.2H4.2
		C1.9,67.6,0,65.7,0,63.4L0,63.4z"/>
	<path fill="#E9B850" d="M63.4,20.6H51.8c-2.3,0-4.2-1.9-4.2-4.2v6.7c0,2.3,1.9,4.2,4.2,4.2h11.6c2.3,0,4.2-1.9,4.2-4.2v-6.7
		C67.6,18.7,65.7,20.6,63.4,20.6L63.4,20.6z"/>
	<path fill="#E9B850" d="M63.4,108.5H51.8c-2.3,0-4.2-1.9-4.2-4.2v6.7c0,2.3,1.9,4.2,4.2,4.2h11.6c2.3,0,4.2-1.9,4.2-4.2v-6.7
		C67.6,106.6,65.7,108.5,63.4,108.5L63.4,108.5z"/>
	<path fill="#E9B850" d="M111,60.9H92.1c-2.3,0-4.2-1.9-4.2-4.2v6.7c0,2.3,1.9,4.2,4.2,4.2H111c2.3,0,4.2-1.9,4.2-4.2v-6.7
		C115.2,59.1,113.3,60.9,111,60.9L111,60.9z"/>
	<path fill="#E9B850" d="M23.1,60.9H4.2c-2.3,0-4.2-1.9-4.2-4.2v6.7c0,2.3,1.9,4.2,4.2,4.2h18.8c2.3,0,4.2-1.9,4.2-4.2v-6.7
		C27.3,59.1,25.4,60.9,23.1,60.9L23.1,60.9z"/>
</g>
</svg>
