<?xml version="1.0" encoding="utf-8"?>
<!-- Generator: Adobe Illustrator 19.0.0, SVG Export Plug-In . SVG Version: 6.00 Build 0)  -->
<svg version="1.1" id="Capa_1" xmlns="http://www.w3.org/2000/svg" xmlns:xlink="http://www.w3.org/1999/xlink" x="0px" y="0px"
	 viewBox="0 0 115.2 115.2" enable-background="new 0 0 115.2 115.2" xml:space="preserve">
<g>
	<path id="XMLID_255_" fill="#F1CE61" d="M57.6,31.9c14.2,0,25.7,11.5,25.7,25.7S71.8,83.3,57.6,83.3S31.9,71.8,31.9,57.6
		S43.4,31.9,57.6,31.9L57.6,31.9z"/>
	<path fill="#DBDCE5" d="M58,91.1c-18.5,0-33.5-15-33.5-33.5s15-33.5,33.5-33.5s33.5,15,33.5,33.5C91.5,76.1,76.5,91.1,58,91.1
		L58,91.1z M112.7,50.9l-8.3-0.8c-0.5-3.1-1.3-6.1-2.4-9l6.9-4.8c1.2-0.8,1.5-2.4,0.8-3.7l-3.9-6.9c-0.7-1.3-2.3-1.8-3.6-1.2
		l-7.6,3.4c-1.9-2.3-3.9-4.5-6.2-6.4l3.7-7.5c0.6-1.3,0.2-2.8-1-3.6l-6.8-4.2c-1.2-0.8-2.8-0.4-3.7,0.7l-5,6.7
		c-3.3-1.4-6.9-2.4-10.6-3l-0.8-8.3C64.2,1.1,63,0,61.6,0h-7.9c-1.4,0-2.6,1.1-2.8,2.5l-0.8,8.3c-3.1,0.5-6.1,1.3-9,2.4l-4.8-6.9
		c-0.8-1.2-2.4-1.5-3.7-0.8l-6.9,3.9c-1.3,0.7-1.8,2.3-1.2,3.6l3.4,7.6c-2.3,1.9-4.5,3.9-6.4,6.2l-7.5-3.7c-1.3-0.6-2.8-0.2-3.6,1
		l-4.2,6.8c-0.8,1.2-0.4,2.8,0.7,3.7l6.7,5c-1.4,3.3-2.4,6.9-3,10.6l-8.3,0.8C1.1,51,0,52.2,0,53.6v7.9c0,1.4,1.1,2.6,2.5,2.8
		l8.3,0.8c0.5,3.1,1.3,6.1,2.4,9l-6.9,4.8c-1.2,0.8-1.5,2.4-0.8,3.7l3.9,6.9c0.7,1.3,2.3,1.8,3.6,1.2l7.6-3.4
		c1.9,2.3,3.9,4.5,6.2,6.4l-3.7,7.5c-0.6,1.3-0.2,2.8,1,3.6l6.8,4.2c1.2,0.8,2.8,0.4,3.7-0.7l5-6.7c3.3,1.4,6.9,2.4,10.6,3l0.8,8.3
		c0.1,1.4,1.3,2.5,2.8,2.5h7.9c1.4,0,2.6-1.1,2.8-2.5l0.8-8.3c3.1-0.5,6.1-1.3,9-2.4l4.8,6.9c0.8,1.2,2.4,1.5,3.7,0.8l6.9-3.9
		c1.3-0.7,1.8-2.3,1.2-3.6l-3.4-7.6c2.3-1.9,4.5-3.9,6.4-6.2l7.5,3.7c1.3,0.6,2.8,0.2,3.6-1l4.2-6.8c0.8-1.2,0.4-2.8-0.7-3.7l-6.7-5
		c1.4-3.3,2.4-6.9,3-10.6l8.3-0.8c1.4-0.1,2.5-1.3,2.5-2.8v-7.9C115.2,52.2,114.1,51,112.7,50.9L112.7,50.9z"/>
	<path id="XMLID_252_" fill="#4D4D4D" d="M48.4,67.8c-0.5,0-0.9-0.2-1.2-0.5l-7.7-7.7c-0.3-0.3-0.5-0.8-0.5-1.2
		c0-0.5,0.2-0.9,0.5-1.2l7.4-7.4c0.7-0.7,1.8-0.7,2.5,0c0.7,0.7,0.7,1.8,0,2.5l-6.2,6.2l6.5,6.5c0.7,0.7,0.7,1.8,0,2.5
		C49.3,67.7,48.8,67.8,48.4,67.8L48.4,67.8z"/>
	<path id="XMLID_251_" fill="#4D4D4D" d="M67.1,68.1c-0.5,0-0.9-0.2-1.2-0.5c-0.7-0.7-0.7-1.8,0-2.5l6.2-6.2l-6.5-6.5
		c-0.7-0.7-0.7-1.8,0-2.5c0.7-0.7,1.8-0.7,2.5,0l7.7,7.7c0.7,0.7,0.7,1.8,0,2.5l-7.4,7.4C68,67.9,67.5,68.1,67.1,68.1L67.1,68.1z"/>
	<path id="XMLID_250_" fill="#4D4D4D" d="M53.4,73.3c-0.2,0-0.4,0-0.5-0.1C51.9,73,51.4,72,51.7,71L60,45.4c0.3-0.9,1.3-1.4,2.2-1.1
		c0.9,0.3,1.4,1.3,1.1,2.2l-8.3,25.7C54.8,72.9,54.2,73.3,53.4,73.3L53.4,73.3z"/>
	<path fill="#C5C6CE" d="M58,91.1c-18.5,0-33.5-15-33.5-33.5s15-33.5,33.5-33.5s33.5,15,33.5,33.5C91.5,76.1,76.5,91.1,58,91.1
		L58,91.1z M57.6,17.4c-22.2,0-40.2,18-40.2,40.2c0,22.2,18,40.2,40.2,40.2s40.2-18,40.2-40.2S79.8,17.4,57.6,17.4L57.6,17.4z"/>
</g>
</svg>
