<?xml version="1.0" encoding="utf-8"?>
<!-- Generator: Adobe Illustrator 19.0.0, SVG Export Plug-In . SVG Version: 6.00 Build 0)  -->
<svg version="1.1" id="Capa_1" xmlns="http://www.w3.org/2000/svg" xmlns:xlink="http://www.w3.org/1999/xlink" x="0px" y="0px"
	 viewBox="0 0 716.4 481.9" enable-background="new 0 0 716.4 481.9" xml:space="preserve">
<g opacity="0.2">
	<defs>
		<rect id="SVGID_1_" x="0" y="0" opacity="0.2" width="960" height="700"/>
	</defs>
	<clipPath id="SVGID_2_">
		<use xlink:href="#SVGID_1_"  overflow="visible"/>
	</clipPath>
	<g id="triangle36_234_" clip-path="url(#SVGID_2_)">
		<path fill="#FFFFFF" d="M456.8,112.8c0.1,0,0.3,0,0.4,0.1l38.8,21.5c0.3,0.2,0.4,0.4,0.4,0.8c0,0.3-0.2,0.6-0.5,0.7L446.7,156
			c-0.3,0.1-0.6,0.1-0.8-0.1c-0.2-0.2-0.3-0.5-0.3-0.8l10.4-41.6c0.1-0.2,0.2-0.4,0.5-0.5C456.6,112.9,456.7,112.8,456.8,112.8z
			 M493.7,135l-36.4-20.2l-9.7,39L493.7,135z"/>
	</g>
	<g id="triangle36_233_" clip-path="url(#SVGID_2_)">
		<path fill="#FFFFFF" d="M495.6,134.3c0.3,0,0.5,0.1,0.7,0.4c0.2,0.3,0.2,0.7-0.1,1l-59.5,64.6c-0.3,0.3-0.7,0.3-1,0.2
			c-0.3-0.2-0.5-0.5-0.4-0.9l10.3-44.5c0.1-0.3,0.2-0.5,0.5-0.6l49.2-20.1C495.4,134.3,495.5,134.3,495.6,134.3z M437.6,196.9
			l54.9-59.6l-45.4,18.5L437.6,196.9z"/>
	</g>
	<g id="triangle36_232_" clip-path="url(#SVGID_2_)">
		<path fill="#FFFFFF" d="M446.4,154.4c0.1,0,0.2,0,0.3,0.1c0.4,0.2,0.6,0.5,0.5,0.9l-10.3,44.5c0,0.2-0.1,0.3-0.2,0.4l-52.6,51.1
			c-0.3,0.3-0.8,0.3-1.1,0c-0.3-0.3-0.4-0.7-0.2-1.1l62.9-95.6C445.9,154.5,446.2,154.4,446.4,154.4z M435.4,199.3l9.2-39.8
			L388.3,245L435.4,199.3z"/>
	</g>
	<g id="triangle36_231_" clip-path="url(#SVGID_2_)">
		<path fill="#FFFFFF" d="M446.4,154.4c0.2,0,0.5,0.1,0.6,0.3c0.2,0.3,0.2,0.7,0,1l-62.9,95.6c-0.2,0.3-0.5,0.4-0.8,0.4l-129.6-19.8
			c-0.4-0.1-0.6-0.3-0.7-0.7c0-0.4,0.2-0.7,0.5-0.8l192.5-75.8C446.2,154.4,446.3,154.4,446.4,154.4z M383.2,249.9l61.2-93
			l-187.2,73.7L383.2,249.9z"/>
	</g>
	<g id="triangle36_230_" clip-path="url(#SVGID_2_)">
		<path fill="#FFFFFF" d="M254,230.2c0,0,0.1,0,0.1,0L383.7,250c0.2,0,0.4,0.2,0.6,0.4c0.1,0.2,0.2,0.4,0.1,0.7l-13.2,44.7
			c-0.1,0.2-0.2,0.4-0.5,0.5c-0.2,0.1-0.5,0.1-0.7,0l-116.2-64.4c-0.3-0.1-0.6-0.4-0.6-0.8C253.1,230.5,253.5,230.2,254,230.2
			L254,230.2z M382.5,251.5l-124.2-19l111.5,61.8L382.5,251.5z"/>
	</g>
	<g id="triangle36_229_" clip-path="url(#SVGID_2_)">
		<path fill="#FFFFFF" d="M555.5,38.9c0.2,0,0.4,0.1,0.6,0.2c0.3,0.3,0.3,0.7,0.1,1l-59.9,95.4c-0.2,0.4-0.7,0.5-1.1,0.3l-38.8-21.5
			c-0.2-0.1-0.4-0.4-0.4-0.7c0-0.3,0.1-0.5,0.3-0.7L555,39.1C555.2,38.9,555.4,38.9,555.5,38.9z M495.3,134.1L552.5,43l-94.2,70.5
			L495.3,134.1z"/>
	</g>
	<g id="triangle36_228_" clip-path="url(#SVGID_2_)">
		<path fill="#FFFFFF" d="M493.9-54.8c0.3,0,0.5,0.1,0.7,0.4l61.6,93.7c0.2,0.4,0.2,0.8-0.2,1.1l-98.7,73.9c-0.3,0.2-0.6,0.2-0.9,0
			c-0.3-0.2-0.4-0.5-0.4-0.9l37.1-167.6c0.1-0.3,0.3-0.6,0.6-0.6C493.8-54.8,493.9-54.8,493.9-54.8z M554.4,39.5l-60.1-91.4
			l-36.2,163.6L554.4,39.5z"/>
	</g>
	<g id="triangle36_227_" clip-path="url(#SVGID_2_)">
		<path fill="#FFFFFF" d="M493.9-54.8c0.2,0,0.3,0.1,0.5,0.2c0.3,0.2,0.4,0.5,0.3,0.8l-37.1,167.6c-0.1,0.4-0.4,0.6-0.8,0.6
			l-243.5-8.2c-0.4,0-0.7-0.3-0.8-0.6c-0.1-0.4,0.1-0.7,0.4-0.9L493.5-54.7C493.6-54.7,493.8-54.8,493.9-54.8z M456.2,112.8
			l36.6-165.1L216.2,104.8L456.2,112.8z"/>
	</g>
	<g id="triangle36_226_" clip-path="url(#SVGID_2_)">
		<path fill="#FFFFFF" d="M213.3,104.7C213.3,104.7,213.3,104.7,213.3,104.7C213.3,104.7,213.3,104.7,213.3,104.7l243.6,8.2
			c0.2,0,0.5,0.1,0.6,0.3c0.1,0.2,0.2,0.5,0.1,0.7l-10.4,41.6c-0.1,0.4-0.5,0.7-1,0.6l-233-49.7c-0.4,0-0.8-0.4-0.8-0.8
			C212.5,105,212.8,104.7,213.3,104.7z M455.8,114.4l-233.3-7.8l223.3,47.7L455.8,114.4z"/>
	</g>
	<g id="triangle36_225_" clip-path="url(#SVGID_2_)">
		<path fill="#FFFFFF" d="M213.3,104.7c0.1,0,0.1,0,0.2,0l233.1,49.8c0.4,0.1,0.6,0.4,0.6,0.7c0,0.4-0.2,0.7-0.5,0.8l-192.5,75.8
			c-0.2,0.1-0.4,0.1-0.6,0c-0.2-0.1-0.4-0.3-0.4-0.5L212.6,106c-0.1-0.1-0.2-0.3-0.2-0.5C212.5,105,212.8,104.6,213.3,104.7
			C213.3,104.7,213.3,104.7,213.3,104.7z M443.6,155.5l-229.1-48.9l40,123.3L443.6,155.5z"/>
	</g>
	<g id="triangle36_224_" clip-path="url(#SVGID_2_)">
		<path fill="#FFFFFF" d="M213.3,104.7c0.3,0,0.5,0.1,0.7,0.3c0.2,0.2,0.2,0.5,0.1,0.8l-54.3,134.7c-0.1,0.3-0.5,0.5-0.8,0.5
			c-0.4,0-0.6-0.3-0.7-0.6L127.7,110c-0.1-0.2,0-0.5,0.1-0.7c0.1-0.2,0.4-0.3,0.6-0.3L213.3,104.7
			C213.3,104.7,213.3,104.7,213.3,104.7z M159.2,237.5l52.8-131.2l-82.6,4.2L159.2,237.5z"/>
	</g>
	<g id="triangle36_223_" clip-path="url(#SVGID_2_)">
		<path fill="#FFFFFF" d="M213.3,104.7C213.3,104.7,213.3,104.7,213.3,104.7c0.4,0,0.7,0.2,0.8,0.6l40.7,125.5
			c0.1,0.2,0,0.5-0.1,0.7c-0.1,0.2-0.4,0.3-0.6,0.4l-94.9,9.2c-0.3,0-0.6-0.1-0.7-0.3c-0.2-0.2-0.2-0.5-0.1-0.8l54.3-134.7
			C212.7,104.9,213,104.7,213.3,104.7z M252.9,230.3l-39.7-122.4l-52.9,131.4L252.9,230.3z"/>
	</g>
	<g id="triangle36_222_" clip-path="url(#SVGID_2_)">
		<path fill="#FFFFFF" d="M493.9-54.8c0.4,0,0.7,0.2,0.8,0.6c0.1,0.4,0,0.8-0.4,1L213.7,106.2c-0.3,0.2-0.7,0.1-0.9-0.1l-134-112
			c-0.3-0.2-0.4-0.5-0.3-0.9c0.1-0.3,0.4-0.5,0.7-0.6L493.9-54.8C493.9-54.8,493.9-54.8,493.9-54.8z M213.4,104.5L490-52.7L81.3-5.9
			L213.4,104.5z"/>
	</g>
	<g id="triangle36_221_" clip-path="url(#SVGID_2_)">
		<path fill="#FFFFFF" d="M79.3-7.3c0.2,0,0.4,0.1,0.5,0.2l134,112c0.3,0.2,0.4,0.6,0.3,0.9c-0.1,0.3-0.4,0.5-0.7,0.6l-84.8,4.3
			c-0.3,0-0.7-0.2-0.8-0.5L78.6-6c-0.1-0.1-0.2-0.3-0.2-0.5C78.4-6.9,78.8-7.3,79.3-7.3L79.3-7.3z M211.2,104.8L81.4-3.7L129,108.9
			L211.2,104.8z"/>
	</g>
	<g id="triangle36_220_" clip-path="url(#SVGID_2_)">
		<path fill="#FFFFFF" d="M28-9.1C28-9.1,28-9.1,28-9.1l51.4,1.8c0.3,0,0.6,0.2,0.7,0.5l49.2,116.3c0.2,0.4,0,0.8-0.3,1
			c-0.3,0.2-0.8,0.1-1-0.2L27.3-7.8c-0.2-0.2-0.3-0.6-0.1-0.9C27.4-8.9,27.6-9.1,28-9.1z M78.8-5.7l-49-1.7l95.9,112.6L78.8-5.7z"/>
	</g>
	<g id="triangle36_219_" clip-path="url(#SVGID_2_)">
		<path fill="#FFFFFF" d="M495.6,134.3c0.2,0,0.3,0,0.4,0.1c0.3,0.2,0.5,0.6,0.3,1l-40.8,98.8c-0.1,0.3-0.4,0.5-0.7,0.5
			c-0.3,0-0.6-0.1-0.8-0.4l-18.7-34.2c-0.2-0.3-0.1-0.7,0.1-0.9l59.5-64.6C495.1,134.4,495.4,134.3,495.6,134.3z M454.7,232.1
			l38.4-93l-56,60.8L454.7,232.1z"/>
	</g>
	<g id="triangle36_218_" clip-path="url(#SVGID_2_)">
		<path fill="#FFFFFF" d="M436.1,198.9c0,0,0.1,0,0.1,0c0.3,0,0.5,0.2,0.6,0.4l18.7,34.2c0.1,0.2,0.1,0.5,0,0.7
			c-0.1,0.2-0.3,0.4-0.6,0.5l-71.3,16.8c-0.4,0.1-0.7-0.1-0.9-0.4c-0.2-0.3-0.1-0.7,0.1-1l52.6-51.1
			C435.7,199,435.9,198.9,436.1,198.9z M453.6,233.4l-17.7-32.4l-49.7,48.3L453.6,233.4z"/>
	</g>
	<g id="triangle36_217_" clip-path="url(#SVGID_2_)">
		<path fill="#FFFFFF" d="M454.8,233.2c0.3,0,0.6,0.2,0.7,0.5c0.2,0.4,0.1,0.8-0.3,1l-84.5,61.5c-0.3,0.2-0.7,0.2-0.9,0
			c-0.3-0.2-0.4-0.6-0.3-0.9l13.2-44.7c0.1-0.3,0.3-0.5,0.6-0.6l71.3-16.8C454.7,233.2,454.7,233.2,454.8,233.2z M371.8,293.4
			l79.3-57.7l-66.9,15.8L371.8,293.4z"/>
	</g>
	<g id="triangle36_216_" clip-path="url(#SVGID_2_)">
		<path fill="#FFFFFF" d="M254,230.2c0.1,0,0.3,0,0.4,0.1l116.4,64.5c0.3,0.1,0.4,0.4,0.4,0.7c0,0.3-0.2,0.6-0.5,0.7l-112.5,55.6
			c-0.2,0.1-0.5,0.1-0.8,0c-0.2-0.1-0.4-0.4-0.4-0.7l-3.9-120c0-0.3,0.1-0.6,0.4-0.7C253.7,230.2,253.8,230.2,254,230.2z
			 M368.6,295.4l-113.7-63l3.8,117.3L368.6,295.4z"/>
	</g>
	<g id="triangle36_215_" clip-path="url(#SVGID_2_)">
		<path fill="#FFFFFF" d="M370.3,294.6c0.2,0,0.4,0.1,0.5,0.2c0.2,0.2,0.4,0.5,0.3,0.8l-13.9,69.6c-0.1,0.4-0.5,0.7-0.9,0.6
			l-98.6-14.1c-0.4,0-0.6-0.3-0.7-0.7c-0.1-0.4,0.1-0.7,0.4-0.9L370,294.7C370.1,294.7,370.2,294.6,370.3,294.6z M355.8,364.2
			l13.4-67.2l-108.7,53.7L355.8,364.2z"/>
	</g>
	<g id="triangle36_214_" clip-path="url(#SVGID_2_)">
		<path fill="#FFFFFF" d="M254,230.2c0.2,0,0.4,0.1,0.5,0.2c0.2,0.1,0.3,0.4,0.3,0.6l3.9,120c0,0.3-0.2,0.7-0.5,0.8
			c-0.3,0.1-0.7,0-0.9-0.2l-98.8-110.8c-0.2-0.2-0.3-0.6-0.2-0.8c0.1-0.3,0.4-0.5,0.7-0.5L254,230.2
			C253.9,230.2,253.9,230.2,254,230.2z M256.9,348.8l-3.8-116.9l-92.5,9L256.9,348.8z"/>
	</g>
	<g id="triangle36_213_" clip-path="url(#SVGID_2_)">
		<path fill="#FFFFFF" d="M257.8,350.2c0,0,0.1,0,0.1,0l98.6,14.1c0.4,0.1,0.7,0.4,0.7,0.8l-0.9,19.1c0,0.3-0.1,0.5-0.4,0.6
			c-0.2,0.1-0.5,0.2-0.7,0.1l-97.7-33.1c-0.4-0.1-0.7-0.4-0.7-0.8C257,350.6,257.3,350.2,257.8,350.2
			C257.8,350.2,257.8,350.2,257.8,350.2z M355.6,365.8l-89.2-12.7l88.4,30L355.6,365.8z"/>
	</g>
	<g id="triangle36_212_" clip-path="url(#SVGID_2_)">
		<path fill="#FFFFFF" d="M257.8,350.2c0.1,0,0.2,0,0.3,0l97.8,33.2c0.3,0.1,0.5,0.4,0.6,0.7c0,0.3-0.2,0.6-0.5,0.8l-75,36.1
			c-0.2,0.1-0.5,0.1-0.7,0c-0.2-0.1-0.4-0.3-0.5-0.5l-22.7-69c-0.1-0.1-0.2-0.3-0.2-0.5C257,350.6,257.3,350.2,257.8,350.2
			C257.8,350.2,257.8,350.2,257.8,350.2z M353.4,384.3l-94.3-32l21.9,66.8L353.4,384.3z"/>
	</g>
	<g id="triangle36_211_" clip-path="url(#SVGID_2_)">
		<path fill="#FFFFFF" d="M159,239.4c0.2,0,0.5,0.1,0.6,0.3l98.8,110.8c0.1,0.2,0.2,0.4,0.2,0.6c0,0.2-0.1,0.4-0.3,0.6L99.9,481.4
			c-0.3,0.2-0.7,0.2-1,0.1c-0.3-0.2-0.4-0.5-0.4-0.9L158.2,240c0.1-0.3,0.3-0.5,0.6-0.6C158.9,239.4,159,239.4,159,239.4z
			 M256.6,350.9l-97.2-109l-58.7,236.7L256.6,350.9z"/>
	</g>
	<g id="triangle36_210_" clip-path="url(#SVGID_2_)">
		<path fill="#FFFFFF" d="M257.8,350.2c0.1,0,0.2,0,0.2,0c0.3,0.1,0.5,0.3,0.5,0.5l22.7,69.2c0.1,0.4-0.1,0.9-0.5,1L99.6,481.6
			c-0.4,0.1-0.8,0-1-0.4c-0.2-0.3-0.1-0.8,0.2-1l158.5-129.8C257.4,350.3,257.6,350.2,257.8,350.2z M279.5,419.8l-22.1-67.3
			L103.3,478.6L279.5,419.8z"/>
	</g>
	<g id="triangle36_209_" clip-path="url(#SVGID_2_)">
		<path fill="#FFFFFF" d="M80.7-239.1c0.1,0,0.2,0,0.3,0.1L494.2-54.7c0.3,0.1,0.5,0.5,0.5,0.9c-0.1,0.4-0.3,0.6-0.7,0.7L79.4-5.7
			c-0.2,0-0.5,0-0.6-0.2c-0.2-0.2-0.3-0.4-0.3-0.6l1.4-231.8c0-0.3,0.1-0.5,0.4-0.7C80.3-239,80.5-239.1,80.7-239.1z M490.9-54.4
			L81.5-237L80.1-7.4L490.9-54.4z"/>
	</g>
	<g id="triangle36_208_" clip-path="url(#SVGID_2_)">
		<path fill="#FFFFFF" d="M493.9-54.8c0.1,0,0.1,0,0.2,0l25.1,6.1c0.3,0.1,0.5,0.2,0.6,0.5l36.5,87.6c0.2,0.4,0,0.8-0.4,1
			c-0.4,0.2-0.8,0.1-1.1-0.3l-61.6-93.7c-0.2-0.3-0.2-0.6,0-0.9C493.4-54.6,493.7-54.8,493.9-54.8z M518.4-47.2l-22.7-5.5L551.4,32
			L518.4-47.2z"/>
	</g>
	<g id="triangle36_207_" clip-path="url(#SVGID_2_)">
		<path fill="#FFFFFF" d="M-72.2,248.2c0.3,0,0.5,0.1,0.7,0.3L100,480.3c0.2,0.3,0.2,0.7-0.1,1c-0.3,0.3-0.7,0.4-1,0.2l-225.5-133.7
			c-0.4-0.2-0.5-0.7-0.3-1.1l54-98.1C-72.8,248.4-72.5,248.2-72.2,248.2C-72.2,248.2-72.2,248.2-72.2,248.2z M96.3,478L-72.1,250.5
			l-53,96.2L96.3,478z"/>
	</g>
	<g id="triangle36_206_" clip-path="url(#SVGID_2_)">
		<path fill="#FFFFFF" d="M159,239.4c0.2,0,0.5,0.1,0.6,0.3c0.2,0.2,0.2,0.5,0.2,0.7L100.1,481c-0.1,0.3-0.3,0.5-0.6,0.6
			c-0.3,0.1-0.6-0.1-0.8-0.3L-72.9,249.5c-0.2-0.2-0.2-0.6-0.1-0.8c0.1-0.3,0.4-0.5,0.7-0.5L159,239.4
			C159,239.4,159,239.4,159,239.4z M99,478.9l59-237.8l-228.6,8.7L99,478.9z"/>
	</g>
	<g id="triangle36_205_" clip-path="url(#SVGID_2_)">
		<path fill="#FFFFFF" d="M57.6-271.6c0.3,0,0.5,0.1,0.7,0.3l23,32.6c0.2,0.3,0.2,0.7,0,1c-0.2,0.3-0.6,0.4-0.9,0.3l-23.7-7.6
			c-0.3-0.1-0.6-0.4-0.6-0.8l0.7-25c0-0.4,0.2-0.7,0.6-0.8C57.5-271.6,57.6-271.6,57.6-271.6z M78.6-239.8l-20.2-28.6l-0.6,21.9
			L78.6-239.8z"/>
	</g>
	<g id="triangle36_204_" clip-path="url(#SVGID_2_)">
		<path fill="#FFFFFF" d="M57-246.7c0.1,0,0.2,0,0.3,0l23.7,7.6c0.4,0.1,0.6,0.5,0.6,0.9L49.2-57.6c-0.1,0.4-0.5,0.7-0.9,0.7
			c-0.4,0-0.7-0.4-0.7-0.8l8.6-188.1c0-0.3,0.1-0.5,0.3-0.6C56.6-246.6,56.8-246.7,57-246.7z M79.7-237.7l-22-7.1l-8,174.7
			L79.7-237.7z"/>
	</g>
	<g id="triangle36_203_" clip-path="url(#SVGID_2_)">
		<path fill="#FFFFFF" d="M80.7-239.1C80.7-239.1,80.7-239.1,80.7-239.1c0.5,0,0.8,0.4,0.8,0.8L80.1-6.5c0,0.4-0.2,0.7-0.6,0.8
			c-0.4,0.1-0.7-0.1-0.9-0.4L47.7-57.3c-0.1-0.2-0.1-0.4-0.1-0.6l32.3-180.5C79.9-238.8,80.3-239.1,80.7-239.1z M78.5-9.4l1.3-219.4
			L49.2-57.9L78.5-9.4z"/>
	</g>
	<g id="triangle36_202_" clip-path="url(#SVGID_2_)">
		<path fill="#FFFFFF" d="M48.4-58.5c0.3,0,0.6,0.1,0.7,0.4L80-6.9c0.2,0.3,0.2,0.6,0,0.8c-0.2,0.3-0.4,0.4-0.7,0.4L27.9-7.5
			c-0.3,0-0.5-0.1-0.7-0.4c-0.1-0.2-0.2-0.5-0.1-0.8L47.6-58C47.7-58.3,48-58.5,48.4-58.5C48.3-58.5,48.3-58.5,48.4-58.5z M77.8-7.4
			L48.5-55.9L29.2-9.1L77.8-7.4z"/>
	</g>
	<g id="triangle36_201_" clip-path="url(#SVGID_2_)">
		<path fill="#FFFFFF" d="M-122.5,187.7c0.2,0,0.5,0.1,0.6,0.3l50.3,60.5c0.2,0.2,0.2,0.4,0.2,0.6c0,0.2-0.2,0.4-0.4,0.6
			l-117.8,73.4c-0.3,0.2-0.7,0.2-1-0.1c-0.3-0.2-0.3-0.6-0.2-1l67.5-133.9C-123.1,187.9-122.9,187.7-122.5,187.7
			C-122.6,187.7-122.5,187.7-122.5,187.7z M-73.4,248.8l-48.9-58.8L-188,320.2L-73.4,248.8z"/>
	</g>
	<g id="triangle36_200_" clip-path="url(#SVGID_2_)">
		<path fill="#FFFFFF" d="M-72.2,248.2c0.2,0,0.4,0.1,0.6,0.2c0.3,0.3,0.3,0.7,0.2,1l-54,98.1c-0.2,0.4-0.6,0.5-1,0.4l-63.8-24.6
			c-0.3-0.1-0.5-0.4-0.5-0.7c0-0.3,0.1-0.6,0.4-0.8l117.8-73.4C-72.5,248.2-72.4,248.2-72.2,248.2z M-126.6,346.1l52.1-94.7
			l-113.8,70.9L-126.6,346.1z"/>
	</g>
	<g id="triangle36_199_" clip-path="url(#SVGID_2_)">
		<path fill="#FFFFFF" d="M-5.9,167.1c0.3,0,0.6,0.2,0.7,0.4c0.2,0.3,0.1,0.7-0.1,0.9l-66.3,81.1c-0.2,0.2-0.4,0.3-0.6,0.3h0
			c-0.2,0-0.5-0.1-0.6-0.3l-50.3-60.5c-0.2-0.2-0.2-0.5-0.1-0.8c0.1-0.3,0.3-0.5,0.6-0.5l116.6-20.6C-6,167.1-6,167.1-5.9,167.1z
			 M-72.2,247.7L-8,169.1l-113,20L-72.2,247.7z"/>
	</g>
	<g id="triangle36_198_" clip-path="url(#SVGID_2_)">
		<path fill="#FFFFFF" d="M28-9.1c0.2,0,0.5,0.1,0.6,0.3l100.5,118.1c0.2,0.2,0.2,0.5,0.2,0.7c-0.1,0.3-0.2,0.5-0.5,0.6L-5.6,168.7
			c-0.3,0.1-0.6,0.1-0.8-0.1c-0.2-0.2-0.3-0.5-0.3-0.8L27.2-8.4c0.1-0.3,0.3-0.6,0.6-0.6C27.8-9.1,27.9-9.1,28-9.1z M127.1,109.5
			L28.4-6.5l-33.3,173L127.1,109.5z"/>
	</g>
	<g id="triangle36_197_" clip-path="url(#SVGID_2_)">
		<path fill="#FFFFFF" d="M128.5,109c0.1,0,0.3,0,0.4,0.1c0.2,0.1,0.4,0.3,0.4,0.5L159.8,240c0.1,0.3,0,0.6-0.3,0.8
			c-0.2,0.2-0.6,0.2-0.8,0.1l-165-72.3c-0.3-0.1-0.5-0.4-0.5-0.7c0-0.3,0.2-0.6,0.5-0.7L128.1,109C128.2,109,128.3,109,128.5,109z
			 M157.9,238.8l-30-127.9l-131.8,57L157.9,238.8z"/>
	</g>
	<g id="triangle36_196_" clip-path="url(#SVGID_2_)">
		<path fill="#FFFFFF" d="M-5.9,167.1c0.1,0,0.2,0,0.3,0.1l165,72.3c0.3,0.2,0.5,0.5,0.5,0.9c-0.1,0.4-0.4,0.6-0.8,0.7l-231.2,8.8
			c-0.3,0-0.6-0.2-0.8-0.5c-0.1-0.3-0.1-0.6,0.1-0.9l66.3-81.1C-6.4,167.2-6.2,167.1-5.9,167.1z M155.4,239.5L-5.7,168.9l-64.7,79.2
			L155.4,239.5z"/>
	</g>
	<g id="triangle36_195_" opacity="0.3" clip-path="url(#SVGID_2_)">
		<path fill="#FFFFFF" d="M112.3-448.5c0.2,0,0.5,0.1,0.6,0.3l47.8,53.9c0.2,0.2,0.3,0.6,0.1,0.8c-0.1,0.3-0.4,0.5-0.7,0.5
			l-57.9,5.4c-0.2,0-0.5-0.1-0.7-0.3c-0.2-0.2-0.2-0.4-0.2-0.7l10.1-59.3c0.1-0.3,0.3-0.6,0.6-0.6
			C112.1-448.5,112.2-448.5,112.3-448.5z M158.4-394.4l-45.6-51.4l-9.6,56.6L158.4-394.4z"/>
	</g>
	<g id="triangle36_194_" opacity="0.3" clip-path="url(#SVGID_2_)">
		<path fill="#FFFFFF" d="M112.3-448.5c0.1,0,0.2,0,0.3,0.1L222-401.3c0.3,0.1,0.5,0.5,0.5,0.9c-0.1,0.4-0.4,0.6-0.7,0.7l-61.6,6.8
			c-0.3,0-0.5-0.1-0.7-0.3l-47.8-53.9c-0.3-0.3-0.3-0.7-0.1-1C111.8-448.4,112-448.5,112.3-448.5z M218.6-401.1l-103.3-44.4
			l45.1,50.9L218.6-401.1z"/>
	</g>
	<g id="triangle36_193_" opacity="0.3" clip-path="url(#SVGID_2_)">
		<path fill="#FFFFFF" d="M221.7-401.4c0.1,0,0.3,0,0.4,0.1l89,44.3c0.4,0.2,0.5,0.6,0.4,1c-0.1,0.4-0.5,0.6-1,0.5L159.9-393
			c-0.4-0.1-0.6-0.5-0.6-0.8c0-0.4,0.3-0.7,0.7-0.8L221.7-401.4C221.7-401.4,221.7-401.4,221.7-401.4z M303.7-358.8l-82.1-40.9
			l-56.9,6.3L303.7-358.8z"/>
	</g>
	<g id="triangle36_192_" opacity="0.3" clip-path="url(#SVGID_2_)">
		<path fill="#FFFFFF" d="M160.1-394.6c0.1,0,0.1,0,0.2,0L310.9-357c0.3,0.1,0.5,0.3,0.6,0.6l32.9,174.8c0.1,0.4-0.1,0.7-0.4,0.9
			c-0.3,0.2-0.7,0.1-1-0.2L159.5-393.2c-0.2-0.3-0.3-0.7-0.1-1C159.6-394.4,159.8-394.6,160.1-394.6z M310-355.6l-147.6-36.7
			l179.9,208L310-355.6z"/>
	</g>
	<g id="triangle36_191_" opacity="0.3" clip-path="url(#SVGID_2_)">
		<path fill="#FFFFFF" d="M373.8-360.2c0.2,0,0.5,0.1,0.6,0.3c0.2,0.2,0.2,0.4,0.2,0.7l-30.2,177.9c-0.1,0.4-0.4,0.7-0.8,0.7
			c-0.4,0-0.7-0.3-0.8-0.7l-32.9-174.8c0-0.2,0-0.5,0.2-0.7c0.1-0.2,0.4-0.3,0.6-0.3L373.8-360.2
			C373.8-360.2,373.8-360.2,373.8-360.2z M343.6-186.1l29.3-172.5l-61.2,3.1L343.6-186.1z"/>
	</g>
	<g id="triangle36_190_" opacity="0.3" clip-path="url(#SVGID_2_)">
		<path fill="#FFFFFF" d="M-36.9-482.3c0.1,0,0.1,0,0.2,0l149.1,33.8c0.4,0.1,0.7,0.5,0.6,0.9L103-388.2c0,0.3-0.2,0.5-0.5,0.6
			c-0.3,0.1-0.5,0.1-0.8-0.1l-138.9-93c-0.3-0.1-0.5-0.4-0.5-0.8C-37.7-481.9-37.3-482.3-36.9-482.3
			C-36.9-482.3-36.9-482.3-36.9-482.3z M111.3-447l-144.1-32.7l134.4,90L111.3-447z"/>
	</g>
	<g id="triangle36_189_" opacity="0.3" clip-path="url(#SVGID_2_)">
		<path fill="#FFFFFF" d="M-36.9-482.3c0.2,0,0.3,0,0.5,0.1L102.7-389c0.3,0.2,0.4,0.5,0.3,0.9c-0.1,0.3-0.4,0.6-0.7,0.6
			l-231.2,27.9c-0.3,0-0.6-0.1-0.8-0.4c-0.2-0.3-0.1-0.6,0.1-0.9l92.2-121C-37.3-482.2-37.1-482.3-36.9-482.3z M99.9-388.9
			l-136.6-91.5l-90.5,118.8L99.9-388.9z"/>
	</g>
	<g id="triangle36_188_" opacity="0.3" clip-path="url(#SVGID_2_)">
		<path fill="#FFFFFF" d="M102.2-389.2c0.4,0,0.7,0.2,0.8,0.6L202-73.2c0.1,0.3,0,0.7-0.3,0.9c-0.3,0.2-0.7,0.2-1-0.1l-330.3-287.5
			c-0.2-0.2-0.3-0.5-0.2-0.9c0.1-0.3,0.4-0.5,0.7-0.6L102.2-389.2C102.1-389.2,102.2-389.2,102.2-389.2z M199.6-75.5l-98-312
			l-228.7,27.6L199.6-75.5z"/>
	</g>
	<g id="triangle36_187_" opacity="0.3" clip-path="url(#SVGID_2_)">
		<path fill="#FFFFFF" d="M160.1-394.6c0.4,0,0.8,0.3,0.8,0.7l41.2,320.8c0.1,0.4-0.2,0.8-0.6,0.9c-0.4,0.1-0.8-0.1-1-0.6
			l-99.1-315.4c-0.1-0.2,0-0.5,0.1-0.7c0.1-0.2,0.4-0.3,0.6-0.4L160.1-394.6C160.1-394.6,160.1-394.6,160.1-394.6z M199.3-82
			l-39.9-310.9l-56.1,5.2L199.3-82z"/>
	</g>
	<g id="triangle36_186_" opacity="0.3" clip-path="url(#SVGID_2_)">
		<path fill="#FFFFFF" d="M160.1-394.6c0.2,0,0.5,0.1,0.6,0.3L344.3-182c0.1,0.2,0.2,0.4,0.2,0.6c0,0.2-0.1,0.4-0.3,0.6L201.7-72.3
			c-0.2,0.2-0.5,0.2-0.8,0.1c-0.3-0.1-0.5-0.4-0.5-0.6l-41.1-320.5c-0.1-0.1-0.1-0.2-0.1-0.4C159.2-394.2,159.6-394.6,160.1-394.6
			C160.1-394.6,160.1-394.6,160.1-394.6z M342.5-181.6L161.3-391.2l40.6,316.7L342.5-181.6z"/>
	</g>
	<g id="triangle36_185_" opacity="0.3" clip-path="url(#SVGID_2_)">
		<path fill="#FFFFFF" d="M201.3-73.8C201.3-73.8,201.3-73.8,201.3-73.8l196.9,8.9c0.4,0,0.7,0.3,0.8,0.6c0.1,0.3-0.1,0.7-0.4,0.9
			L245.4,34.4c-0.2,0.1-0.5,0.2-0.7,0.1c-0.2-0.1-0.4-0.2-0.5-0.5L200.5-72.7c-0.1-0.3-0.1-0.6,0.1-0.8
			C200.7-73.7,201-73.8,201.3-73.8z M395.5-63.4l-193-8.7l42.8,104.6L395.5-63.4z"/>
	</g>
	<g id="triangle36_184_" opacity="0.3" clip-path="url(#SVGID_2_)">
		<path fill="#FFFFFF" d="M343.6-182.3c0.1,0,0.1,0,0.2,0c0.2,0.1,0.4,0.2,0.5,0.4l54.5,117.4c0.1,0.3,0.1,0.6-0.1,0.8
			c-0.2,0.2-0.4,0.4-0.7,0.4l-196.9-8.9c-0.3,0-0.6-0.2-0.7-0.6c-0.1-0.3,0-0.7,0.3-0.9l142.4-108.5
			C343.3-182.2,343.5-182.3,343.6-182.3z M396.8-65l-53.5-115.3L203.5-73.7L396.8-65z"/>
	</g>
	<g id="triangle36_183_" opacity="0.3" clip-path="url(#SVGID_2_)">
		<path fill="#FFFFFF" d="M-129.1-361.3C-129.1-361.3-129-361.3-129.1-361.3c0.2,0,0.4,0.1,0.6,0.2L201.8-73.6
			c0.3,0.2,0.3,0.6,0.2,0.9L119,149.2c-0.1,0.3-0.4,0.5-0.7,0.5c-0.3,0-0.6-0.2-0.8-0.5l-247.1-509.2c-0.1-0.1-0.2-0.3-0.2-0.6
			C-129.9-360.9-129.5-361.3-129.1-361.3z M200.3-72.7l-326.8-284.5l244.6,504.1L200.3-72.7z"/>
	</g>
	<g id="triangle36_182_" opacity="0.3" clip-path="url(#SVGID_2_)">
		<path fill="#FFFFFF" d="M201.3-73.8c0.3,0,0.6,0.2,0.8,0.5l43.7,106.7c0.1,0.3,0,0.7-0.2,0.9L118.7,149.5c-0.3,0.3-0.7,0.3-1,0.1
			c-0.3-0.2-0.4-0.6-0.3-1l83.1-221.9C200.6-73.6,200.9-73.8,201.3-73.8L201.3-73.8z M244,33.5L201.3-70.7L120.1,146L244,33.5z"/>
	</g>
	<g id="triangle36_181_" opacity="0.3" clip-path="url(#SVGID_2_)">
		<path fill="#FFFFFF" d="M244.9,32.9c0.2,0,0.4,0.1,0.5,0.2c0.3,0.3,0.4,0.7,0.2,1L139.7,215.9c-0.2,0.3-0.5,0.4-0.8,0.4
			c-0.3,0-0.6-0.3-0.7-0.6l-20.8-66.5c-0.1-0.3,0-0.6,0.2-0.8L244.4,33.1C244.5,32.9,244.7,32.9,244.9,32.9z M139.2,213.4
			L241.6,37.9L119.1,149.2L139.2,213.4z"/>
	</g>
	<g id="triangle36_180_" opacity="0.3" clip-path="url(#SVGID_2_)">
		<path fill="#FFFFFF" d="M112.3-448.5C112.3-448.5,112.3-448.5,112.3-448.5l144.9,7.8c0.3,0,0.6,0.2,0.7,0.5
			c0.1,0.3,0.1,0.6-0.1,0.9L222.3-400c-0.2,0.3-0.6,0.3-0.9,0.2l-109.5-47.1c-0.4-0.2-0.6-0.5-0.5-0.9
			C111.6-448.2,111.9-448.5,112.3-448.5z M255.4-439.2l-138.6-7.4l104.7,45L255.4-439.2z"/>
	</g>
	<g id="triangle36_179_" opacity="0.3" clip-path="url(#SVGID_2_)">
		<path fill="#FFFFFF" d="M257.1-440.7C257.2-440.7,257.2-440.7,257.1-440.7c0.3,0,0.5,0.2,0.7,0.4l53.6,83.7c0.2,0.3,0.2,0.7-0.1,1
			c-0.2,0.3-0.6,0.4-1,0.2l-89-44.3c-0.2-0.1-0.4-0.3-0.4-0.6c0-0.3,0-0.5,0.2-0.7l35.4-39.3C256.7-440.6,256.9-440.7,257.1-440.7z
			 M308.4-358.3L257-438.6l-34,37.7L308.4-358.3z"/>
	</g>
	<g id="triangle36_178_" opacity="0.3" clip-path="url(#SVGID_2_)">
		<path fill="#FFFFFF" d="M257.1-440.7c0.2,0,0.3,0,0.5,0.1l116.7,80.5c0.3,0.2,0.4,0.6,0.3,0.9c-0.1,0.3-0.4,0.6-0.7,0.6l-63.1,3.2
			c-0.3,0-0.6-0.1-0.7-0.4l-53.6-83.7c-0.2-0.3-0.2-0.8,0.1-1C256.7-440.6,256.9-440.7,257.1-440.7z M371.4-360.1L260-436.9
			l51.1,79.8L371.4-360.1z"/>
	</g>
	<g id="triangle36_177_" opacity="0.3" clip-path="url(#SVGID_2_)">
		<path fill="#FFFFFF" d="M373.8-360.2c0.2,0,0.4,0.1,0.6,0.2l121.7,119c0.2,0.2,0.3,0.5,0.2,0.7c-0.1,0.3-0.2,0.5-0.5,0.6
			l-151.9,58.9c-0.3,0.1-0.6,0.1-0.8-0.1c-0.2-0.2-0.3-0.5-0.3-0.8L373-359.6c0.1-0.3,0.3-0.5,0.6-0.6
			C373.7-360.2,373.8-360.2,373.8-360.2z M494.1-240.7L374.4-357.7l-29.7,175L494.1-240.7z"/>
	</g>
	<g id="triangle36_176_" opacity="0.3" clip-path="url(#SVGID_2_)">
		<path fill="#FFFFFF" d="M469.2-373.8c0.4,0,0.7,0.3,0.8,0.7l26.4,132.6c0.1,0.4-0.1,0.7-0.4,0.9c-0.3,0.2-0.7,0.1-1-0.1
			l-121.7-119c-0.2-0.2-0.3-0.5-0.2-0.8c0.1-0.3,0.4-0.5,0.7-0.6l95.4-13.5C469.1-373.8,469.2-373.8,469.2-373.8z M494.3-242.8
			L468.6-372l-93,13.2L494.3-242.8z"/>
	</g>
	<g id="triangle36_175_" opacity="0.3" clip-path="url(#SVGID_2_)">
		<path fill="#FFFFFF" d="M495.6-241.2c0.2,0,0.5,0.1,0.6,0.3c0.2,0.3,0.3,0.6,0.1,0.9L398.9-63.7c-0.1,0.3-0.4,0.4-0.7,0.4
			c-0.3,0-0.6-0.2-0.7-0.5l-54.5-117.4c-0.1-0.2-0.1-0.4,0-0.6c0.1-0.2,0.3-0.4,0.5-0.5l151.9-58.9
			C495.4-241.2,495.5-241.2,495.6-241.2z M398.2-65.9l95.6-172.9l-149,57.8L398.2-65.9z"/>
	</g>
	<g id="triangle36_174_" opacity="0.3" clip-path="url(#SVGID_2_)">
		<path fill="#FFFFFF" d="M494.1-381.3c0.2,0,0.3,0.1,0.5,0.2c0.2,0.2,0.3,0.4,0.3,0.6l1.5,140.1c0,0.4-0.3,0.8-0.7,0.8
			c-0.4,0.1-0.8-0.2-0.9-0.7l-26.4-132.6c-0.1-0.4,0.2-0.8,0.6-0.9l24.8-7.5C493.9-381.3,494-381.3,494.1-381.3z M494.7-249.2
			l-1.4-130.2l-23.1,7L494.7-249.2z"/>
	</g>
	<g id="triangle36_173_" opacity="0.3" clip-path="url(#SVGID_2_)">
		<path fill="#FFFFFF" d="M494.1-381.3c0.2,0,0.4,0.1,0.6,0.2l79.9,79.8c0.2,0.2,0.3,0.4,0.2,0.6c0,0.2-0.1,0.5-0.3,0.6l-78.4,60.2
			c-0.2,0.2-0.6,0.2-0.9,0.1c-0.3-0.1-0.5-0.4-0.5-0.7l-1.5-139.8c0-0.1,0-0.2,0-0.3C493.2-380.9,493.5-381.3,494.1-381.3
			C494-381.3,494.1-381.3,494.1-381.3z M572.7-300.7l-77.8-77.8l1.5,136.4L572.7-300.7z"/>
	</g>
	<g id="triangle36_172_" opacity="0.3" clip-path="url(#SVGID_2_)">
		<path fill="#FFFFFF" d="M495.6-241.2c0.1,0,0.3,0,0.4,0.1L733.4-96.6c0.3,0.2,0.5,0.5,0.4,0.9c-0.1,0.3-0.4,0.6-0.7,0.6
			L398.2-63.3c-0.3,0-0.6-0.1-0.8-0.4c-0.2-0.3-0.2-0.6,0-0.8l97.4-176.3c0.1-0.2,0.3-0.3,0.5-0.4
			C495.4-241.2,495.5-241.2,495.6-241.2z M730.4-96.5L495.9-239.3L399.6-65L730.4-96.5z"/>
	</g>
	<g id="triangle36_171_" opacity="0.3" clip-path="url(#SVGID_2_)">
		<path fill="#FFFFFF" d="M574-301.5c0.2,0,0.5,0.1,0.6,0.3l159,204.8c0.2,0.3,0.2,0.7,0,1c-0.3,0.3-0.7,0.4-1,0.2L495.2-239.7
			c-0.2-0.1-0.4-0.4-0.4-0.7c0-0.3,0.1-0.5,0.3-0.7l78.4-60.2C573.6-301.4,573.8-301.5,574-301.5z M729.6-98.9L573.8-299.5l-76.8,59
			L729.6-98.9z"/>
	</g>
	<g id="triangle36_170_" opacity="0.3" clip-path="url(#SVGID_2_)">
		<path fill="#FFFFFF" d="M-129-361.3c0.3,0,0.6,0.2,0.7,0.5l247.2,509.4c0.1,0.2,0.1,0.5,0,0.7s-0.3,0.4-0.5,0.5l-297.3,102.5
			c-0.3,0.1-0.5,0-0.8-0.1s-0.3-0.4-0.3-0.7l50.1-611.9c0-0.4,0.3-0.7,0.7-0.7C-129.1-361.3-129.1-361.3-129-361.3z M117.1,148.4
			l-245.5-505.9l-49.7,607.7L117.1,148.4z"/>
	</g>
	<g id="triangle36_169_" opacity="0.3" clip-path="url(#SVGID_2_)">
		<path fill="#FFFFFF" d="M-36.9-482.3c0.2,0,0.4,0.1,0.6,0.2c0.3,0.3,0.4,0.8,0.1,1.1l-92.2,121c-0.2,0.3-0.5,0.4-0.9,0.3
			c-0.3-0.1-0.6-0.4-0.6-0.7l-3.5-34.9c0-0.3,0.1-0.5,0.3-0.7l95.7-86.1C-37.2-482.2-37-482.3-36.9-482.3z M-128.4-362.6L-42.8-475
			l-88.9,80L-128.4-362.6z"/>
	</g>
	<g id="triangle36_168_" opacity="0.3" clip-path="url(#SVGID_2_)">
		<path fill="#FFFFFF" d="M733-96.7c0.1,0,0.2,0,0.3,0.1c0.4,0.1,0.6,0.5,0.5,0.9L664,253.1c-0.1,0.4-0.5,0.7-0.9,0.6l-149.8-25
			c-0.3,0-0.5-0.2-0.6-0.5c-0.1-0.3-0.1-0.5,0.1-0.8L732.3-96.3C732.4-96.6,732.7-96.7,733-96.7z M662.6,252l68.8-344.1L514.8,227.4
			L662.6,252z"/>
	</g>
	<g id="triangle36_167_" opacity="0.3" clip-path="url(#SVGID_2_)">
		<path fill="#FFFFFF" d="M733-96.7c0.3,0,0.6,0.2,0.7,0.4c0.2,0.3,0.2,0.6,0,0.9L514.1,228.4c-0.2,0.3-0.5,0.4-0.8,0.4
			c-0.3,0-0.6-0.2-0.7-0.5l-115.3-292c-0.1-0.2-0.1-0.5,0.1-0.7c0.1-0.2,0.4-0.4,0.6-0.4L733-96.7C732.9-96.7,732.9-96.7,733-96.7z
			 M513.6,226.2L731.3-94.9l-332,31.5L513.6,226.2z"/>
	</g>
	<g id="triangle36_166_" opacity="0.3" clip-path="url(#SVGID_2_)">
		<path fill="#FFFFFF" d="M-179.1,250.6c0.1,0,0.2,0,0.2,0c0.3,0.1,0.6,0.4,0.6,0.8l0.9,33.7c0,0.4-0.2,0.7-0.6,0.8l-32.3,10.4
			c-0.3,0.1-0.7,0-0.9-0.3c-0.2-0.3-0.2-0.7,0-1l31.3-44.1C-179.6,250.7-179.4,250.6-179.1,250.6z M-179,284.6l-0.8-30.7l-28.5,40.1
			L-179,284.6z"/>
	</g>
	<g id="triangle36_165_" opacity="0.3" clip-path="url(#SVGID_2_)">
		<path fill="#FFFFFF" d="M66.5,210.8c0.4,0,0.7,0.3,0.8,0.6c0.1,0.4-0.1,0.8-0.6,1l-244.7,73.6c-0.2,0.1-0.5,0-0.7-0.1
			c-0.2-0.1-0.3-0.4-0.3-0.6l-0.9-33.7c0-0.4,0.3-0.8,0.7-0.8l245.6-39.8C66.5,210.8,66.5,210.8,66.5,210.8z M-177.4,284.1
			l231.8-69.7l-232.7,37.7L-177.4,284.1z"/>
	</g>
	<g id="triangle36_164_" opacity="0.3" clip-path="url(#SVGID_2_)">
		<path fill="#FFFFFF" d="M118.2,148.1c0.3,0,0.5,0.1,0.7,0.4c0.2,0.3,0.2,0.7,0,1l-51.6,62.6c-0.1,0.2-0.3,0.3-0.5,0.3L-179,252.2
			c-0.4,0.1-0.8-0.2-0.9-0.6c-0.1-0.4,0.1-0.8,0.5-1l297.3-102.5C118,148.1,118.1,148.1,118.2,148.1z M66.1,210.8l49.6-60.2
			l-285.6,98.5L66.1,210.8z"/>
	</g>
	<g id="triangle36_163_" opacity="0.3" clip-path="url(#SVGID_2_)">
		<path fill="#FFFFFF" d="M118.2,148.1c0.1,0,0.1,0,0.2,0c0.3,0.1,0.5,0.3,0.6,0.6l20.8,66.5c0.1,0.3,0,0.5-0.1,0.7
			c-0.2,0.2-0.4,0.3-0.7,0.3l-72.4-3.9c-0.3,0-0.6-0.2-0.7-0.5c-0.1-0.3-0.1-0.6,0.1-0.8l51.6-62.6
			C117.7,148.2,118,148.1,118.2,148.1z M137.9,214.6l-20-64l-49.7,60.2L137.9,214.6z"/>
	</g>
	<g id="triangle36_162_" opacity="0.3" clip-path="url(#SVGID_2_)">
		<path fill="#FFFFFF" d="M513.4,227.1c0.2,0,0.4,0.1,0.5,0.2l147,117.8c0.3,0.2,0.4,0.6,0.2,1c-0.1,0.3-0.5,0.5-0.9,0.5
			l-201.8-26.2c-0.3,0-0.5-0.2-0.6-0.5c-0.1-0.2-0.1-0.5,0-0.8l54.8-91.6c0.1-0.2,0.3-0.3,0.6-0.4
			C513.3,227.1,513.4,227.1,513.4,227.1z M657.6,344.5l-144-115.4l-53.7,89.7L657.6,344.5z"/>
	</g>
	<g id="triangle36_161_" opacity="0.3" clip-path="url(#SVGID_2_)">
		<path fill="#FFFFFF" d="M513.4,227.1c0,0,0.1,0,0.1,0l149.8,25c0.4,0.1,0.7,0.4,0.7,0.8l-2.8,92.7c0,0.3-0.2,0.6-0.5,0.7
			c-0.3,0.1-0.6,0.1-0.9-0.1L513,228.7c-0.3-0.1-0.5-0.4-0.5-0.7C512.6,227.5,512.9,227.1,513.4,227.1
			C513.4,227.1,513.4,227.1,513.4,227.1z M662.4,253.7l-146-24.4l143.3,114.8L662.4,253.7z"/>
	</g>
	<g id="triangle36_160_" opacity="0.3" clip-path="url(#SVGID_2_)">
		<path fill="#FFFFFF" d="M379.8,178.8c0.1,0,0.2,0,0.3,0l133.6,48.4c0.2,0.1,0.4,0.3,0.5,0.5c0.1,0.2,0.1,0.5-0.1,0.7L459.3,320
			c-0.2,0.2-0.5,0.4-0.7,0.4c-0.3,0-0.6-0.2-0.7-0.4L379.1,180c-0.2-0.3-0.1-0.7,0.1-0.9C379.4,178.9,379.6,178.8,379.8,178.8z
			 M512.2,228.4l-130.6-47.3l77,136.8L512.2,228.4z"/>
	</g>
	<g id="triangle36_159_" opacity="0.3" clip-path="url(#SVGID_2_)">
		<path fill="#FFFFFF" d="M244.9,32.9c0.2,0,0.4,0.1,0.6,0.3L380.4,179c0.2,0.2,0.3,0.5,0.2,0.8c-0.1,0.3-0.4,0.5-0.6,0.5
			l-240.8,35.9c-0.3,0-0.6-0.1-0.8-0.3c-0.2-0.3-0.2-0.6,0-0.9L244.2,33.3C244.4,33.1,244.6,32.9,244.9,32.9
			C244.9,32.9,244.9,32.9,244.9,32.9z M378.2,179l-133.1-144L140.5,214.4L378.2,179z"/>
	</g>
	<g id="triangle36_158_" opacity="0.3" clip-path="url(#SVGID_2_)">
		<path fill="#FFFFFF" d="M398.1-64.9c0.1,0,0.3,0,0.4,0.1c0.3,0.2,0.4,0.5,0.4,0.8l-18.3,243.7c0,0.3-0.2,0.6-0.5,0.7
			c-0.3,0.1-0.6,0-0.9-0.2L244.3,34.2c-0.2-0.2-0.2-0.4-0.2-0.7c0-0.2,0.2-0.5,0.4-0.6l153.2-97.8C397.8-64.9,398-64.9,398.1-64.9z
			 M379.1,177.7l18.1-240.2l-151,96.4L379.1,177.7z"/>
	</g>
	<g id="triangle36_157_" opacity="0.3" clip-path="url(#SVGID_2_)">
		<path fill="#FFFFFF" d="M398.1-64.9c0.3,0,0.6,0.2,0.8,0.5l115.3,292c0.1,0.3,0,0.6-0.2,0.9c-0.2,0.2-0.6,0.3-0.9,0.2l-133.6-48.4
			c-0.3-0.1-0.6-0.5-0.5-0.8l18.3-243.7c0-0.4,0.3-0.7,0.7-0.7C398.1-64.9,398.1-64.9,398.1-64.9z M512,226.6l-113.3-287l-18,239.5
			L512,226.6z"/>
	</g>
</g>
</svg>
