<?xml version="1.0" encoding="utf-8"?>
<!-- Generator: Adobe Illustrator 19.0.0, SVG Export Plug-In . SVG Version: 6.00 Build 0)  -->
<svg version="1.1" id="Capa_1" xmlns="http://www.w3.org/2000/svg" xmlns:xlink="http://www.w3.org/1999/xlink" x="0px" y="0px"
	 viewBox="0 0 725.4 491" enable-background="new 0 0 725.4 491" xml:space="preserve">
<g id="XMLID_483_" opacity="0.2">
	<defs>
		<rect id="XMLID_484_" x="-234.6" y="-209" opacity="0.2" width="960" height="700"/>
	</defs>
	<clipPath id="XMLID_799_">
		<use xlink:href="#XMLID_484_"  overflow="visible"/>
	</clipPath>
	<g id="XMLID_603_" opacity="0.8" clip-path="url(#XMLID_799_)">
		<g id="triangle36_156_">
			<path id="XMLID_718_" fill="#FFFFFF" d="M268.5,378.2c-0.1,0-0.3,0-0.4-0.1l-38.8-21.5c-0.3-0.2-0.4-0.4-0.4-0.8
				c0-0.3,0.2-0.6,0.5-0.7l49.2-20.1c0.3-0.1,0.6-0.1,0.8,0.1c0.2,0.2,0.3,0.5,0.3,0.8l-10.4,41.6c-0.1,0.2-0.2,0.4-0.5,0.5
				C268.8,378.2,268.7,378.2,268.5,378.2z M231.6,356l36.4,20.2l9.7-39L231.6,356z"/>
		</g>
		<g id="triangle36_155_">
			<path id="XMLID_715_" fill="#FFFFFF" d="M229.8,356.7c-0.3,0-0.5-0.1-0.7-0.4c-0.2-0.3-0.2-0.7,0.1-1l59.5-64.6
				c0.3-0.3,0.7-0.3,1-0.2c0.3,0.2,0.5,0.5,0.4,0.9L279.7,336c-0.1,0.3-0.2,0.5-0.5,0.6l-49.2,20.1
				C230,356.7,229.9,356.7,229.8,356.7z M287.7,294.1l-54.9,59.6l45.4-18.5L287.7,294.1z"/>
		</g>
		<g id="triangle36_154_">
			<path id="XMLID_712_" fill="#FFFFFF" d="M278.9,336.6c-0.1,0-0.2,0-0.3-0.1c-0.4-0.2-0.6-0.5-0.5-0.9l10.3-44.5
				c0-0.2,0.1-0.3,0.2-0.4l52.6-51.1c0.3-0.3,0.8-0.3,1.1,0c0.3,0.3,0.4,0.7,0.2,1.1l-62.9,95.6
				C279.5,336.5,279.2,336.6,278.9,336.6z M290,291.7l-9.2,39.8L337,246L290,291.7z"/>
		</g>
		<g id="triangle36_153_">
			<path id="XMLID_709_" fill="#FFFFFF" d="M278.9,336.6c-0.2,0-0.5-0.1-0.6-0.3c-0.2-0.3-0.2-0.7,0-1l62.9-95.6
				c0.2-0.3,0.5-0.4,0.8-0.4l129.6,19.8c0.4,0.1,0.6,0.3,0.7,0.7c0,0.4-0.2,0.7-0.5,0.8l-192.5,75.8
				C279.1,336.6,279,336.6,278.9,336.6z M342.2,241.1l-61.2,93l187.2-73.7L342.2,241.1z"/>
		</g>
		<g id="triangle36_152_">
			<path id="XMLID_706_" fill="#FFFFFF" d="M471.4,260.9c0,0-0.1,0-0.1,0L341.7,241c-0.2,0-0.4-0.2-0.6-0.4
				c-0.1-0.2-0.2-0.4-0.1-0.7l13.2-44.7c0.1-0.2,0.2-0.4,0.5-0.5c0.2-0.1,0.5-0.1,0.7,0l116.2,64.4c0.3,0.1,0.6,0.4,0.6,0.8
				C472.2,260.5,471.9,260.9,471.4,260.9L471.4,260.9z M342.9,239.6l124.2,19l-111.5-61.8L342.9,239.6z"/>
		</g>
		<g id="triangle36_151_">
			<path id="XMLID_703_" fill="#FFFFFF" d="M169.8,452.1c-0.2,0-0.4-0.1-0.6-0.2c-0.3-0.3-0.3-0.7-0.1-1l59.9-95.4
				c0.2-0.4,0.7-0.5,1.1-0.3l38.8,21.5c0.2,0.1,0.4,0.4,0.4,0.7c0,0.3-0.1,0.5-0.3,0.7L170.3,452C170.2,452.1,170,452.1,169.8,452.1
				z M230,357L172.8,448l94.2-70.5L230,357z"/>
		</g>
		<g id="triangle36_150_">
			<path id="XMLID_700_" fill="#FFFFFF" d="M231.4,545.8c-0.3,0-0.5-0.1-0.7-0.4l-61.6-93.7c-0.2-0.4-0.2-0.8,0.2-1.1l98.7-73.9
				c0.3-0.2,0.6-0.2,0.9,0c0.3,0.2,0.4,0.5,0.4,0.9l-37.1,167.6c-0.1,0.3-0.3,0.6-0.6,0.6C231.5,545.8,231.5,545.8,231.4,545.8z
				 M170.9,451.5l60.1,91.4l36.2-163.6L170.9,451.5z"/>
		</g>
		<g id="triangle36_149_">
			<path id="XMLID_697_" fill="#FFFFFF" d="M231.4,545.8c-0.2,0-0.3-0.1-0.5-0.2c-0.3-0.2-0.4-0.5-0.3-0.8l37.1-167.6
				c0.1-0.4,0.4-0.6,0.8-0.6l243.5,8.2c0.4,0,0.7,0.3,0.8,0.6c0.1,0.4-0.1,0.7-0.4,0.9L231.8,545.7
				C231.7,545.8,231.6,545.8,231.4,545.8z M269.2,378.2l-36.6,165.1l276.5-157.1L269.2,378.2z"/>
		</g>
		<g id="triangle36_148_">
			<path id="XMLID_694_" fill="#FFFFFF" d="M512.1,386.4C512.1,386.4,512.1,386.4,512.1,386.4C512,386.4,512,386.4,512.1,386.4
				l-243.6-8.2c-0.2,0-0.5-0.1-0.6-0.3c-0.1-0.2-0.2-0.5-0.1-0.7l10.4-41.6c0.1-0.4,0.5-0.7,1-0.6l233,49.7c0.4,0,0.8,0.4,0.8,0.8
				C512.9,386,512.5,386.4,512.1,386.4z M269.6,376.6l233.3,7.8l-223.3-47.7L269.6,376.6z"/>
		</g>
		<g id="triangle36_147_">
			<path id="XMLID_691_" fill="#FFFFFF" d="M512,386.4c-0.1,0-0.1,0-0.2,0l-233.1-49.8c-0.4-0.1-0.6-0.4-0.6-0.7
				c0-0.4,0.2-0.7,0.5-0.8l192.5-75.8c0.2-0.1,0.4-0.1,0.6,0c0.2,0.1,0.4,0.3,0.4,0.5l40.6,125.3c0.1,0.1,0.2,0.3,0.2,0.5
				C512.9,386,512.6,386.4,512,386.4C512.1,386.4,512.1,386.4,512,386.4z M281.8,335.6l229.1,48.9l-40-123.3L281.8,335.6z"/>
		</g>
		<g id="triangle36_146_">
			<path id="XMLID_688_" fill="#FFFFFF" d="M512,386.4c-0.3,0-0.5-0.1-0.7-0.3c-0.2-0.2-0.2-0.5-0.1-0.8l54.3-134.7
				c0.1-0.3,0.5-0.5,0.8-0.5c0.4,0,0.6,0.3,0.7,0.6l30.6,130.4c0.1,0.2,0,0.5-0.1,0.7c-0.1,0.2-0.4,0.3-0.6,0.3L512,386.4
				C512.1,386.4,512.1,386.4,512,386.4z M566.1,253.5l-52.8,131.2l82.6-4.2L566.1,253.5z"/>
		</g>
		<g id="triangle36_145_">
			<path id="XMLID_685_" fill="#FFFFFF" d="M512,386.4C512,386.4,512,386.4,512,386.4c-0.4,0-0.7-0.2-0.8-0.6l-40.7-125.5
				c-0.1-0.2,0-0.5,0.1-0.7c0.1-0.2,0.4-0.3,0.6-0.4l94.9-9.2c0.3,0,0.6,0.1,0.7,0.3c0.2,0.2,0.2,0.5,0.1,0.8l-54.3,134.7
				C512.7,386.2,512.4,386.4,512,386.4z M472.5,260.8l39.7,122.4l52.9-131.4L472.5,260.8z"/>
		</g>
		<g id="triangle36_144_">
			<path id="XMLID_682_" fill="#FFFFFF" d="M231.4,545.8c-0.4,0-0.7-0.2-0.8-0.6c-0.1-0.4,0-0.8,0.4-1l280.6-159.4
				c0.3-0.2,0.7-0.1,0.9,0.1l134,112c0.3,0.2,0.4,0.5,0.3,0.9c-0.1,0.3-0.4,0.5-0.7,0.6L231.4,545.8
				C231.5,545.8,231.5,545.8,231.4,545.8z M512,386.5L235.3,543.7l408.8-46.8L512,386.5z"/>
		</g>
		<g id="triangle36_143_">
			<path id="XMLID_679_" fill="#FFFFFF" d="M646.1,498.3c-0.2,0-0.4-0.1-0.5-0.2l-134-112c-0.3-0.2-0.4-0.6-0.3-0.9
				c0.1-0.3,0.4-0.5,0.7-0.6l84.8-4.3c0.3,0,0.7,0.2,0.8,0.5L646.7,497c0.1,0.1,0.2,0.3,0.2,0.5C646.9,498,646.6,498.4,646.1,498.3
				L646.1,498.3z M514.2,386.3L644,494.7l-47.6-112.7L514.2,386.3z"/>
		</g>
		<g id="triangle36_142_">
			<path id="XMLID_676_" fill="#FFFFFF" d="M697.4,500.1C697.4,500.1,697.4,500.1,697.4,500.1l-51.4-1.8c-0.3,0-0.6-0.2-0.7-0.5
				l-49.2-116.3c-0.2-0.4,0-0.8,0.3-1c0.3-0.2,0.8-0.1,1,0.2L698,498.8c0.2,0.2,0.3,0.6,0.1,0.9C698,499.9,697.7,500.1,697.4,500.1z
				 M646.6,496.7l49,1.7l-95.9-112.6L646.6,496.7z"/>
		</g>
		<g id="triangle36_141_">
			<path id="XMLID_673_" fill="#FFFFFF" d="M229.8,356.7c-0.2,0-0.3,0-0.4-0.1c-0.3-0.2-0.5-0.6-0.3-1l40.8-98.8
				c0.1-0.3,0.4-0.5,0.7-0.5c0.3,0,0.6,0.1,0.8,0.4l18.7,34.2c0.2,0.3,0.1,0.7-0.1,0.9l-59.5,64.6
				C230.2,356.6,230,356.7,229.8,356.7z M270.6,258.9l-38.4,93l56-60.8L270.6,258.9z"/>
		</g>
		<g id="triangle36_140_">
			<path id="XMLID_670_" fill="#FFFFFF" d="M289.2,292.1c0,0-0.1,0-0.1,0c-0.3,0-0.5-0.2-0.6-0.4l-18.7-34.2c-0.1-0.2-0.1-0.5,0-0.7
				c0.1-0.2,0.3-0.4,0.6-0.5l71.3-16.8c0.4-0.1,0.7,0.1,0.9,0.4c0.2,0.3,0.1,0.7-0.1,1l-52.6,51.1
				C289.6,292,289.4,292.1,289.2,292.1z M271.8,257.6l17.7,32.4l49.7-48.3L271.8,257.6z"/>
		</g>
		<g id="triangle36_139_">
			<path id="XMLID_667_" fill="#FFFFFF" d="M270.5,257.9c-0.3,0-0.6-0.2-0.7-0.5c-0.2-0.4-0.1-0.8,0.3-1l84.5-61.5
				c0.3-0.2,0.7-0.2,0.9,0c0.3,0.2,0.4,0.6,0.3,0.9l-13.2,44.7c-0.1,0.3-0.3,0.5-0.6,0.6l-71.3,16.8
				C270.7,257.9,270.6,257.9,270.5,257.9z M353.6,197.6l-79.3,57.7l66.9-15.8L353.6,197.6z"/>
		</g>
		<g id="triangle36_138_">
			<path id="XMLID_664_" fill="#FFFFFF" d="M471.4,260.9c-0.1,0-0.3,0-0.4-0.1l-116.4-64.5c-0.3-0.1-0.4-0.4-0.4-0.7
				c0-0.3,0.2-0.6,0.5-0.7l112.5-55.6c0.2-0.1,0.5-0.1,0.8,0c0.2,0.1,0.4,0.4,0.4,0.7l3.9,120c0,0.3-0.1,0.6-0.4,0.7
				C471.7,260.8,471.5,260.9,471.4,260.9z M356.8,195.6l113.7,63l-3.8-117.3L356.8,195.6z"/>
		</g>
		<g id="triangle36_137_">
			<path id="XMLID_661_" fill="#FFFFFF" d="M355,196.4c-0.2,0-0.4-0.1-0.5-0.2c-0.2-0.2-0.4-0.5-0.3-0.8l13.9-69.6
				c0.1-0.4,0.5-0.7,0.9-0.6l98.6,14.1c0.4,0,0.6,0.3,0.7,0.7c0.1,0.4-0.1,0.7-0.4,0.9l-112.5,55.6
				C355.3,196.4,355.1,196.4,355,196.4z M369.6,126.9l-13.4,67.2l108.7-53.7L369.6,126.9z"/>
		</g>
		<g id="triangle36_136_">
			<path id="XMLID_658_" fill="#FFFFFF" d="M471.4,260.9c-0.2,0-0.4-0.1-0.5-0.2c-0.2-0.1-0.3-0.4-0.3-0.6l-3.9-120
				c0-0.3,0.2-0.7,0.5-0.8c0.3-0.1,0.7,0,0.9,0.2l98.8,110.8c0.2,0.2,0.3,0.6,0.2,0.8c-0.1,0.3-0.4,0.5-0.7,0.5L471.4,260.9
				C471.4,260.9,471.4,260.9,471.4,260.9z M468.4,142.2l3.8,116.9l92.5-9L468.4,142.2z"/>
		</g>
		<g id="triangle36_135_">
			<path id="XMLID_655_" fill="#FFFFFF" d="M467.5,140.8c0,0-0.1,0-0.1,0l-98.6-14.1c-0.4-0.1-0.7-0.4-0.7-0.8l0.9-19.1
				c0-0.3,0.1-0.5,0.4-0.6c0.2-0.1,0.5-0.2,0.7-0.1l97.7,33.1c0.4,0.1,0.7,0.4,0.7,0.8C468.4,140.4,468,140.8,467.5,140.8
				C467.6,140.8,467.5,140.8,467.5,140.8z M369.8,125.2L459,138l-88.4-30L369.8,125.2z"/>
		</g>
		<g id="triangle36_134_">
			<path id="XMLID_652_" fill="#FFFFFF" d="M467.5,140.8c-0.1,0-0.2,0-0.3,0l-97.8-33.2c-0.3-0.1-0.5-0.4-0.6-0.7
				c0-0.3,0.2-0.6,0.5-0.8l75-36.1c0.2-0.1,0.5-0.1,0.7,0c0.2,0.1,0.4,0.3,0.5,0.5l22.7,69c0.1,0.1,0.2,0.3,0.2,0.5
				C468.4,140.5,468,140.8,467.5,140.8C467.5,140.8,467.5,140.8,467.5,140.8z M371.9,106.7l94.3,32l-21.9-66.8L371.9,106.7z"/>
		</g>
		<g id="triangle36_133_">
			<path id="XMLID_649_" fill="#FFFFFF" d="M566.3,251.6c-0.2,0-0.5-0.1-0.6-0.3l-98.8-110.8c-0.1-0.2-0.2-0.4-0.2-0.6
				c0-0.2,0.1-0.4,0.3-0.6L625.5,9.6c0.3-0.2,0.7-0.2,1-0.1c0.3,0.2,0.4,0.5,0.4,0.9L567.1,251c-0.1,0.3-0.3,0.5-0.6,0.6
				C566.5,251.6,566.4,251.6,566.3,251.6z M468.7,140.1l97.2,109l58.7-236.7L468.7,140.1z"/>
		</g>
		<g id="triangle36_132_">
			<path id="XMLID_646_" fill="#FFFFFF" d="M467.5,140.8c-0.1,0-0.2,0-0.2,0c-0.3-0.1-0.5-0.3-0.5-0.5L444,71
				c-0.1-0.4,0.1-0.9,0.5-1L625.8,9.5c0.4-0.1,0.8,0,1,0.4c0.2,0.3,0.1,0.8-0.2,1L468.1,140.6C467.9,140.7,467.7,140.8,467.5,140.8z
				 M445.8,71.3l22.1,67.3L622.1,12.4L445.8,71.3z"/>
		</g>
		<g id="triangle36_131_">
			<path id="XMLID_643_" fill="#FFFFFF" d="M644.7,730.1c-0.1,0-0.2,0-0.3-0.1L231.1,545.7c-0.3-0.1-0.5-0.5-0.5-0.9
				c0.1-0.4,0.3-0.6,0.7-0.7L646,496.7c0.2,0,0.5,0,0.6,0.2c0.2,0.2,0.3,0.4,0.3,0.6l-1.4,231.8c0,0.3-0.1,0.5-0.4,0.7
				C645,730,644.9,730.1,644.7,730.1z M234.5,545.4L643.9,728l1.3-229.6L234.5,545.4z"/>
		</g>
		<g id="triangle36_130_">
			<path id="XMLID_640_" fill="#FFFFFF" d="M231.4,545.8c-0.1,0-0.1,0-0.2,0l-25.1-6.1c-0.3-0.1-0.5-0.2-0.6-0.5l-36.5-87.6
				c-0.2-0.4,0-0.8,0.4-1c0.4-0.2,0.8-0.1,1.1,0.3l61.6,93.7c0.2,0.3,0.2,0.6,0,0.9C231.9,545.7,231.7,545.8,231.4,545.8z
				 M206.9,538.2l22.7,5.5L173.9,459L206.9,538.2z"/>
		</g>
		<g id="triangle36_129_">
			<path id="XMLID_637_" fill="#FFFFFF" d="M797.6,242.8c-0.3,0-0.5-0.1-0.7-0.3L625.4,10.7c-0.2-0.3-0.2-0.7,0.1-1
				c0.3-0.3,0.7-0.4,1-0.2L852,143.3c0.4,0.2,0.5,0.7,0.3,1.1l-54,98.1C798.1,242.6,797.9,242.8,797.6,242.8
				C797.6,242.8,797.6,242.8,797.6,242.8z M629.1,13l168.4,227.5l53-96.2L629.1,13z"/>
		</g>
		<g id="triangle36_128_">
			<path id="XMLID_634_" fill="#FFFFFF" d="M566.3,251.6c-0.2,0-0.5-0.1-0.6-0.3c-0.2-0.2-0.2-0.5-0.2-0.7L625.2,10
				c0.1-0.3,0.3-0.5,0.6-0.6c0.3-0.1,0.6,0.1,0.8,0.3l171.5,231.8c0.2,0.2,0.2,0.6,0.1,0.8c-0.1,0.3-0.4,0.5-0.7,0.5L566.3,251.6
				C566.4,251.6,566.3,251.6,566.3,251.6z M626.4,12.1l-59,237.8l228.6-8.7L626.4,12.1z"/>
		</g>
		<g id="triangle36_127_">
			<path id="XMLID_631_" fill="#FFFFFF" d="M667.7,762.7c-0.3,0-0.5-0.1-0.7-0.3l-23-32.6c-0.2-0.3-0.2-0.7,0-1
				c0.2-0.3,0.6-0.4,0.9-0.3l23.7,7.6c0.3,0.1,0.6,0.4,0.6,0.8l-0.7,25c0,0.4-0.2,0.7-0.6,0.8C667.9,762.6,667.8,762.7,667.7,762.7z
				 M646.8,730.8l20.2,28.6l0.6-21.9L646.8,730.8z"/>
		</g>
		<g id="triangle36_126_">
			<path id="XMLID_628_" fill="#FFFFFF" d="M668.4,737.7c-0.1,0-0.2,0-0.3,0l-23.7-7.6c-0.4-0.1-0.6-0.5-0.6-0.9l32.3-180.5
				c0.1-0.4,0.5-0.7,0.9-0.7c0.4,0,0.7,0.4,0.7,0.8l-8.6,188.1c0,0.3-0.1,0.5-0.3,0.6C668.7,737.6,668.5,737.7,668.4,737.7z
				 M645.6,728.7l22,7.1l8-174.7L645.6,728.7z"/>
		</g>
		<g id="triangle36_125_">
			<path id="XMLID_625_" fill="#FFFFFF" d="M644.7,730.1C644.7,730.1,644.6,730.1,644.7,730.1c-0.5,0-0.8-0.4-0.8-0.8l1.4-231.8
				c0-0.4,0.2-0.7,0.6-0.8c0.4-0.1,0.7,0.1,0.9,0.4l30.9,51.2c0.1,0.2,0.1,0.4,0.1,0.6l-32.3,180.5
				C645.4,729.8,645.1,730.1,644.7,730.1z M646.8,500.4l-1.3,219.4l30.6-170.9L646.8,500.4z"/>
		</g>
		<g id="triangle36_124_">
			<path id="XMLID_622_" fill="#FFFFFF" d="M677,549.6c-0.3,0-0.6-0.1-0.7-0.4l-30.9-51.2c-0.2-0.3-0.2-0.6,0-0.8
				c0.2-0.3,0.4-0.4,0.7-0.4l51.3,1.8c0.3,0,0.5,0.1,0.7,0.4c0.1,0.2,0.2,0.5,0.1,0.8L677.8,549C677.6,549.3,677.4,549.5,677,549.6
				C677,549.6,677,549.6,677,549.6z M647.5,498.4l29.3,48.5l19.3-46.8L647.5,498.4z"/>
		</g>
		<g id="triangle36_123_">
			<path id="XMLID_619_" fill="#FFFFFF" d="M847.9,303.3c-0.2,0-0.5-0.1-0.6-0.3l-50.3-60.5c-0.2-0.2-0.2-0.4-0.2-0.6
				c0-0.2,0.2-0.4,0.4-0.6l117.8-73.4c0.3-0.2,0.7-0.2,1,0.1c0.3,0.2,0.3,0.6,0.2,1l-67.5,133.9
				C848.5,303.1,848.2,303.3,847.9,303.3C847.9,303.3,847.9,303.3,847.9,303.3z M798.8,242.2l48.9,58.8l65.6-130.2L798.8,242.2z"/>
		</g>
		<g id="triangle36_122_">
			<path id="XMLID_616_" fill="#FFFFFF" d="M797.6,242.8c-0.2,0-0.4-0.1-0.6-0.2c-0.3-0.3-0.3-0.7-0.2-1l54-98.1
				c0.2-0.4,0.6-0.5,1-0.4l63.8,24.6c0.3,0.1,0.5,0.4,0.5,0.7c0,0.3-0.1,0.6-0.4,0.8L798,242.7C797.9,242.8,797.7,242.8,797.6,242.8
				z M851.9,145l-52.1,94.7l113.8-70.9L851.9,145z"/>
		</g>
		<g id="triangle36_121_">
			<path id="XMLID_613_" fill="#FFFFFF" d="M731.3,323.9c-0.3,0-0.6-0.2-0.7-0.4c-0.2-0.3-0.1-0.7,0.1-0.9l66.3-81.1
				c0.2-0.2,0.4-0.3,0.6-0.3h0c0.2,0,0.5,0.1,0.6,0.3l50.3,60.5c0.2,0.2,0.2,0.5,0.1,0.8c-0.1,0.3-0.3,0.5-0.6,0.5l-116.6,20.6
				C731.4,323.9,731.3,323.9,731.3,323.9z M797.6,243.3l-64.2,78.6l113-20L797.6,243.3z"/>
		</g>
		<g id="triangle36_120_">
			<path id="XMLID_610_" fill="#FFFFFF" d="M697.4,500.1c-0.2,0-0.5-0.1-0.6-0.3L596.3,381.8c-0.2-0.2-0.2-0.5-0.2-0.7
				c0.1-0.3,0.2-0.5,0.5-0.6L731,322.3c0.3-0.1,0.6-0.1,0.8,0.1c0.2,0.2,0.3,0.5,0.3,0.8l-33.9,176.2c-0.1,0.3-0.3,0.6-0.6,0.6
				C697.5,500.1,697.5,500.1,697.4,500.1z M598.2,381.6l98.7,115.9l33.3-173L598.2,381.6z"/>
		</g>
		<g id="triangle36_119_">
			<path id="XMLID_607_" fill="#FFFFFF" d="M596.9,382.1c-0.1,0-0.3,0-0.4-0.1c-0.2-0.1-0.4-0.3-0.4-0.5L565.5,251
				c-0.1-0.3,0-0.6,0.3-0.8c0.2-0.2,0.6-0.2,0.8-0.1l165,72.3c0.3,0.1,0.5,0.4,0.5,0.7c0,0.3-0.2,0.6-0.5,0.7L597.2,382
				C597.1,382,597,382.1,596.9,382.1z M567.5,252.2l30,127.9l131.8-57L567.5,252.2z"/>
		</g>
		<g id="triangle36_118_">
			<path id="XMLID_604_" fill="#FFFFFF" d="M731.3,323.9c-0.1,0-0.2,0-0.3-0.1l-165-72.3c-0.3-0.2-0.5-0.5-0.5-0.9
				c0.1-0.4,0.4-0.6,0.8-0.7l231.2-8.8c0.3,0,0.6,0.2,0.8,0.5c0.1,0.3,0.1,0.6-0.1,0.9l-66.3,81.1
				C731.8,323.8,731.5,323.9,731.3,323.9z M569.9,251.5l161.1,70.6l64.7-79.2L569.9,251.5z"/>
		</g>
	</g>
	<g id="XMLID_485_" clip-path="url(#XMLID_799_)">
		<g id="triangle36_117_" opacity="0.3">
			<path id="XMLID_600_" fill="#FFFFFF" d="M613.1,939.5c-0.2,0-0.5-0.1-0.6-0.3l-47.8-53.9c-0.2-0.2-0.3-0.6-0.1-0.8
				c0.1-0.3,0.4-0.5,0.7-0.5l57.9-5.4c0.2,0,0.5,0.1,0.7,0.3c0.2,0.2,0.2,0.4,0.2,0.7l-10.1,59.3c-0.1,0.3-0.3,0.6-0.6,0.6
				C613.2,939.5,613.2,939.5,613.1,939.5z M566.9,885.4l45.6,51.4l9.6-56.6L566.9,885.4z"/>
		</g>
		<g id="triangle36_116_" opacity="0.3">
			<path id="XMLID_597_" fill="#FFFFFF" d="M613.1,939.5c-0.1,0-0.2,0-0.3-0.1l-109.5-47.1c-0.3-0.1-0.5-0.5-0.5-0.9
				c0.1-0.4,0.4-0.6,0.7-0.7l61.6-6.8c0.3,0,0.5,0.1,0.7,0.3l47.8,53.9c0.3,0.3,0.3,0.7,0.1,1C613.6,939.4,613.3,939.5,613.1,939.5z
				 M506.8,892.1L610,936.5l-45.1-50.9L506.8,892.1z"/>
		</g>
		<g id="triangle36_115_" opacity="0.3">
			<path id="XMLID_594_" fill="#FFFFFF" d="M503.6,892.4c-0.1,0-0.3,0-0.4-0.1l-89-44.3c-0.4-0.2-0.5-0.6-0.4-1
				c0.1-0.4,0.5-0.6,1-0.5L565.5,884c0.4,0.1,0.6,0.5,0.6,0.8c0,0.4-0.3,0.7-0.7,0.8L503.6,892.4
				C503.7,892.4,503.7,892.4,503.6,892.4z M421.7,849.9l82.1,40.9l56.9-6.3L421.7,849.9z"/>
		</g>
		<g id="triangle36_114_" opacity="0.3">
			<path id="XMLID_591_" fill="#FFFFFF" d="M565.3,885.6c-0.1,0-0.1,0-0.2,0l-150.6-37.5c-0.3-0.1-0.5-0.3-0.6-0.6l-32.9-174.8
				c-0.1-0.4,0.1-0.7,0.4-0.9c0.3-0.2,0.7-0.1,1,0.2l183.5,212.3c0.2,0.3,0.3,0.7,0.1,1C565.8,885.5,565.5,885.6,565.3,885.6z
				 M415.3,846.6L563,883.4l-179.9-208L415.3,846.6z"/>
		</g>
		<g id="triangle36_113_" opacity="0.3">
			<path id="XMLID_588_" fill="#FFFFFF" d="M351.5,851.3c-0.2,0-0.5-0.1-0.6-0.3c-0.2-0.2-0.2-0.4-0.2-0.7l30.2-177.9
				c0.1-0.4,0.4-0.7,0.8-0.7c0.4,0,0.7,0.3,0.8,0.7l32.9,174.8c0,0.2,0,0.5-0.2,0.7c-0.1,0.2-0.4,0.3-0.6,0.3L351.5,851.3
				C351.5,851.3,351.5,851.3,351.5,851.3z M381.8,677.1l-29.3,172.5l61.2-3.1L381.8,677.1z"/>
		</g>
		<g id="triangle36_112_" opacity="0.3">
			<path id="XMLID_585_" fill="#FFFFFF" d="M762.2,973.3c-0.1,0-0.1,0-0.2,0l-149.1-33.8c-0.4-0.1-0.7-0.5-0.6-0.9l10.1-59.3
				c0-0.3,0.2-0.5,0.5-0.6c0.3-0.1,0.5-0.1,0.8,0.1l138.9,93c0.3,0.1,0.5,0.4,0.5,0.8C763.1,973,762.7,973.3,762.2,973.3
				C762.2,973.3,762.2,973.3,762.2,973.3z M614,938.1l144.1,32.7l-134.4-90L614,938.1z"/>
		</g>
		<g id="triangle36_111_" opacity="0.3">
			<path id="XMLID_582_" fill="#FFFFFF" d="M762.2,973.3c-0.2,0-0.3,0-0.5-0.1l-139.1-93.1c-0.3-0.2-0.4-0.5-0.3-0.9
				c0.1-0.3,0.4-0.6,0.7-0.6l231.2-27.9c0.3,0,0.6,0.1,0.8,0.4c0.2,0.3,0.1,0.6-0.1,0.9l-92.2,121
				C762.7,973.2,762.5,973.3,762.2,973.3z M625.4,879.9L762,971.4l90.5-118.8L625.4,879.9z"/>
		</g>
		<g id="triangle36_110_" opacity="0.3">
			<path id="XMLID_579_" fill="#FFFFFF" d="M623.2,880.2c-0.4,0-0.7-0.2-0.8-0.6l-99.1-315.4c-0.1-0.3,0-0.7,0.3-0.9
				c0.3-0.2,0.7-0.2,1,0.1l330.3,287.5c0.2,0.2,0.3,0.5,0.2,0.9c-0.1,0.3-0.4,0.5-0.7,0.6L623.2,880.2
				C623.2,880.2,623.2,880.2,623.2,880.2z M525.7,566.5l98,312l228.7-27.6L525.7,566.5z"/>
		</g>
		<g id="triangle36_109_" opacity="0.3">
			<path id="XMLID_576_" fill="#FFFFFF" d="M565.3,885.6c-0.4,0-0.8-0.3-0.8-0.7l-41.2-320.8c-0.1-0.4,0.2-0.8,0.6-0.9
				c0.4-0.1,0.8,0.1,1,0.6l99.1,315.4c0.1,0.2,0,0.5-0.1,0.7c-0.1,0.2-0.4,0.3-0.6,0.4L565.3,885.6
				C565.3,885.6,565.3,885.6,565.3,885.6z M526.1,573L566,883.9l56.1-5.2L526.1,573z"/>
		</g>
		<g id="triangle36_108_" opacity="0.3">
			<path id="XMLID_573_" fill="#FFFFFF" d="M565.3,885.6c-0.2,0-0.5-0.1-0.6-0.3L381.1,673c-0.1-0.2-0.2-0.4-0.2-0.6
				c0-0.2,0.1-0.4,0.3-0.6l142.4-108.5c0.2-0.2,0.5-0.2,0.8-0.1c0.3,0.1,0.5,0.4,0.5,0.6L566,884.4c0.1,0.1,0.1,0.2,0.1,0.4
				C566.1,885.2,565.7,885.6,565.3,885.6C565.3,885.6,565.3,885.6,565.3,885.6z M382.9,672.6l181.2,209.6l-40.6-316.7L382.9,672.6z"
				/>
		</g>
		<g id="triangle36_107_" opacity="0.3">
			<path id="XMLID_570_" fill="#FFFFFF" d="M524.1,564.8C524.1,564.8,524.1,564.8,524.1,564.8l-196.9-8.9c-0.4,0-0.7-0.3-0.8-0.6
				c-0.1-0.3,0.1-0.7,0.4-0.9L480,456.6c0.2-0.1,0.5-0.2,0.7-0.1c0.2,0.1,0.4,0.2,0.5,0.5l43.7,106.7c0.1,0.3,0.1,0.6-0.1,0.8
				C524.6,564.7,524.4,564.8,524.1,564.8z M329.8,554.4l193,8.7L480,458.6L329.8,554.4z"/>
		</g>
		<g id="triangle36_106_" opacity="0.3">
			<path id="XMLID_567_" fill="#FFFFFF" d="M381.7,673.3c-0.1,0-0.1,0-0.2,0c-0.2-0.1-0.4-0.2-0.5-0.4l-54.5-117.4
				c-0.1-0.3-0.1-0.6,0.1-0.8c0.2-0.2,0.4-0.4,0.7-0.4l196.9,8.9c0.3,0,0.6,0.2,0.7,0.6c0.1,0.3,0,0.7-0.3,0.9L382.2,673.2
				C382.1,673.3,381.9,673.3,381.7,673.3z M328.5,556L382,671.2l139.8-106.5L328.5,556z"/>
		</g>
		<g id="triangle36_105_" opacity="0.3">
			<path id="XMLID_564_" fill="#FFFFFF" d="M854.4,852.3C854.4,852.3,854.4,852.3,854.4,852.3c-0.2,0-0.4-0.1-0.6-0.2L523.6,564.6
				c-0.3-0.2-0.3-0.6-0.2-0.9l83.1-221.9c0.1-0.3,0.4-0.5,0.7-0.5c0.3,0,0.6,0.2,0.8,0.5L855,851c0.1,0.1,0.2,0.3,0.2,0.6
				C855.2,852,854.9,852.3,854.4,852.3z M525.1,563.8l326.8,284.5L607.3,344.2L525.1,563.8z"/>
		</g>
		<g id="triangle36_104_" opacity="0.3">
			<path id="XMLID_561_" fill="#FFFFFF" d="M524.1,564.8c-0.3,0-0.6-0.2-0.8-0.5l-43.7-106.7c-0.1-0.3,0-0.7,0.2-0.9l126.7-115.2
				c0.3-0.3,0.7-0.3,1-0.1c0.3,0.2,0.4,0.6,0.3,1l-83.1,221.9C524.7,564.6,524.4,564.8,524.1,564.8L524.1,564.8z M481.4,457.6
				l42.7,104.2L605.2,345L481.4,457.6z"/>
		</g>
		<g id="triangle36_103_" opacity="0.3">
			<path id="XMLID_558_" fill="#FFFFFF" d="M480.4,458.2c-0.2,0-0.4-0.1-0.5-0.2c-0.3-0.3-0.4-0.7-0.2-1l105.9-181.8
				c0.2-0.3,0.5-0.4,0.8-0.4c0.3,0,0.6,0.3,0.7,0.6l20.8,66.5c0.1,0.3,0,0.6-0.2,0.8L481,457.9C480.8,458.1,480.6,458.2,480.4,458.2
				z M586.1,277.6L483.8,453.2l122.4-111.3L586.1,277.6z"/>
		</g>
		<g id="triangle36_102_" opacity="0.3">
			<path id="XMLID_555_" fill="#FFFFFF" d="M613.1,939.5C613.1,939.5,613.1,939.5,613.1,939.5l-144.9-7.8c-0.3,0-0.6-0.2-0.7-0.5
				c-0.1-0.3-0.1-0.6,0.1-0.9l35.4-39.3c0.2-0.3,0.6-0.3,0.9-0.2l109.5,47.1c0.4,0.2,0.6,0.5,0.5,0.9
				C613.8,939.2,613.5,939.5,613.1,939.5z M470,930.2l138.6,7.4l-104.7-45L470,930.2z"/>
		</g>
		<g id="triangle36_101_" opacity="0.3">
			<path id="XMLID_552_" fill="#FFFFFF" d="M468.2,931.8C468.2,931.8,468.2,931.8,468.2,931.8c-0.3,0-0.5-0.2-0.7-0.4l-53.6-83.7
				c-0.2-0.3-0.2-0.7,0.1-1c0.2-0.3,0.6-0.4,1-0.2l89,44.3c0.2,0.1,0.4,0.3,0.4,0.6c0,0.3,0,0.5-0.2,0.7l-35.4,39.3
				C468.7,931.7,468.4,931.8,468.2,931.8z M416.9,849.3l51.4,80.3l34-37.7L416.9,849.3z"/>
		</g>
		<g id="triangle36_100_" opacity="0.3">
			<path id="XMLID_549_" fill="#FFFFFF" d="M468.2,931.8c-0.2,0-0.3,0-0.5-0.1L351,851.1c-0.3-0.2-0.4-0.6-0.3-0.9
				c0.1-0.3,0.4-0.6,0.7-0.6l63.1-3.2c0.3,0,0.6,0.1,0.7,0.4l53.6,83.7c0.2,0.3,0.2,0.8-0.1,1C468.6,931.7,468.4,931.8,468.2,931.8z
				 M354,851.1L465.3,928l-51.1-79.8L354,851.1z"/>
		</g>
		<g id="triangle36_99_" opacity="0.3">
			<path id="XMLID_546_" fill="#FFFFFF" d="M351.5,851.3c-0.2,0-0.4-0.1-0.6-0.2L229.2,732c-0.2-0.2-0.3-0.5-0.2-0.7
				c0.1-0.3,0.2-0.5,0.5-0.6l151.9-58.9c0.3-0.1,0.6-0.1,0.8,0.1c0.2,0.2,0.3,0.5,0.3,0.8l-30.2,177.9c-0.1,0.3-0.3,0.5-0.6,0.6
				C351.7,851.3,351.6,851.3,351.5,851.3z M231.3,731.7L351,848.8l29.7-175L231.3,731.7z"/>
		</g>
		<g id="triangle36_98_" opacity="0.3">
			<path id="XMLID_543_" fill="#FFFFFF" d="M256.1,864.8c-0.4,0-0.7-0.3-0.8-0.7L229,731.6c-0.1-0.4,0.1-0.7,0.4-0.9
				c0.3-0.2,0.7-0.1,1,0.1l121.7,119c0.2,0.2,0.3,0.5,0.2,0.8c-0.1,0.3-0.4,0.5-0.7,0.6l-95.4,13.5
				C256.2,864.8,256.2,864.8,256.1,864.8z M231.1,733.9l25.7,129.2l93-13.2L231.1,733.9z"/>
		</g>
		<g id="triangle36_97_" opacity="0.3">
			<path id="XMLID_540_" fill="#FFFFFF" d="M229.8,732.2c-0.2,0-0.5-0.1-0.6-0.3c-0.2-0.3-0.3-0.6-0.1-0.9l97.4-176.3
				c0.1-0.3,0.4-0.4,0.7-0.4c0.3,0,0.6,0.2,0.7,0.5l54.5,117.4c0.1,0.2,0.1,0.4,0,0.6c-0.1,0.2-0.3,0.4-0.5,0.5l-151.9,58.9
				C230,732.2,229.9,732.2,229.8,732.2z M327.1,556.9l-95.6,172.9l149-57.8L327.1,556.9z"/>
		</g>
		<g id="triangle36_96_" opacity="0.3">
			<path id="XMLID_537_" fill="#FFFFFF" d="M231.3,872.3c-0.2,0-0.3-0.1-0.5-0.2c-0.2-0.2-0.3-0.4-0.3-0.6L229,731.4
				c0-0.4,0.3-0.8,0.7-0.8c0.4-0.1,0.8,0.2,0.9,0.7l26.4,132.6c0.1,0.4-0.2,0.8-0.6,0.9l-24.8,7.5
				C231.5,872.3,231.4,872.3,231.3,872.3z M230.7,740.2l1.4,130.2l23.1-7L230.7,740.2z"/>
		</g>
		<g id="triangle36_95_" opacity="0.3">
			<path id="XMLID_534_" fill="#FFFFFF" d="M231.3,872.3c-0.2,0-0.4-0.1-0.6-0.2l-79.9-79.8c-0.2-0.2-0.3-0.4-0.2-0.6
				c0-0.2,0.1-0.5,0.3-0.6l78.4-60.2c0.2-0.2,0.6-0.2,0.9-0.1c0.3,0.1,0.5,0.4,0.5,0.7l1.5,139.8c0,0.1,0,0.2,0,0.3
				C232.2,872,231.8,872.3,231.3,872.3C231.3,872.3,231.3,872.3,231.3,872.3z M152.6,791.7l77.8,77.8L229,733.1L152.6,791.7z"/>
		</g>
		<g id="triangle36_94_" opacity="0.3">
			<path id="XMLID_531_" fill="#FFFFFF" d="M229.8,732.2c-0.1,0-0.3,0-0.4-0.1L-8,587.6c-0.3-0.2-0.5-0.5-0.4-0.9
				c0.1-0.3,0.4-0.6,0.7-0.6l334.8-31.8c0.3,0,0.6,0.1,0.8,0.4c0.2,0.3,0.2,0.6,0,0.8l-97.4,176.3c-0.1,0.2-0.3,0.3-0.5,0.4
				C229.9,732.2,229.8,732.2,229.8,732.2z M-5.1,587.5l234.6,142.8l96.3-174.2L-5.1,587.5z"/>
		</g>
		<g id="triangle36_93_" opacity="0.3">
			<path id="XMLID_528_" fill="#FFFFFF" d="M151.4,792.5c-0.2,0-0.5-0.1-0.6-0.3l-159-204.8c-0.2-0.3-0.2-0.7,0-1
				c0.3-0.3,0.7-0.4,1-0.2l237.4,144.5c0.2,0.1,0.4,0.4,0.4,0.7c0,0.3-0.1,0.5-0.3,0.7l-78.4,60.2
				C151.7,792.4,151.6,792.5,151.4,792.5z M-4.2,589.9l155.8,200.6l76.8-59L-4.2,589.9z"/>
		</g>
		<g id="triangle36_92_" opacity="0.3">
			<path id="XMLID_525_" fill="#FFFFFF" d="M854.4,852.3c-0.3,0-0.6-0.2-0.7-0.5L606.4,342.5c-0.1-0.2-0.1-0.5,0-0.7
				s0.3-0.4,0.5-0.5l297.3-102.5c0.3-0.1,0.5,0,0.8,0.1s0.3,0.4,0.3,0.7l-50.1,611.9c0,0.4-0.3,0.7-0.7,0.7
				C854.5,852.3,854.4,852.3,854.4,852.3z M608.3,342.6l245.5,505.9l49.7-607.7L608.3,342.6z"/>
		</g>
		<g id="triangle36_91_" opacity="0.3">
			<path id="XMLID_522_" fill="#FFFFFF" d="M762.2,973.3c-0.2,0-0.4-0.1-0.6-0.2c-0.3-0.3-0.4-0.8-0.1-1.1l92.2-121
				c0.2-0.3,0.5-0.4,0.9-0.3c0.3,0.1,0.6,0.4,0.6,0.7l3.5,34.9c0,0.3-0.1,0.5-0.3,0.7l-95.7,86.1
				C762.6,973.2,762.4,973.3,762.2,973.3z M853.8,853.6l-85.6,112.4l88.9-80L853.8,853.6z"/>
		</g>
		<g id="triangle36_90_" opacity="0.3">
			<path id="XMLID_519_" fill="#FFFFFF" d="M-7.6,587.7c-0.1,0-0.2,0-0.3-0.1c-0.4-0.1-0.6-0.5-0.5-0.9l69.7-348.9
				c0.1-0.4,0.5-0.7,0.9-0.6l149.8,25c0.3,0,0.5,0.2,0.6,0.5c0.1,0.3,0.1,0.5-0.1,0.8L-6.9,587.4C-7.1,587.6-7.3,587.7-7.6,587.7z
				 M62.8,239L-6,583.1l216.6-319.4L62.8,239z"/>
		</g>
		<g id="triangle36_89_" opacity="0.3">
			<path id="XMLID_516_" fill="#FFFFFF" d="M-7.6,587.7c-0.3,0-0.6-0.2-0.7-0.4c-0.2-0.3-0.2-0.6,0-0.9l219.5-323.8
				c0.2-0.3,0.5-0.4,0.8-0.4c0.3,0,0.6,0.2,0.7,0.5l115.3,292c0.1,0.2,0.1,0.5-0.1,0.7c-0.1,0.2-0.4,0.4-0.6,0.4L-7.6,587.7
				C-7.6,587.7-7.6,587.7-7.6,587.7z M211.7,264.8L-6,585.9l332-31.5L211.7,264.8z"/>
		</g>
		<g id="triangle36_88_" opacity="0.3">
			<path id="XMLID_513_" fill="#FFFFFF" d="M904.4,240.4c-0.1,0-0.2,0-0.2,0c-0.3-0.1-0.6-0.4-0.6-0.8l-0.9-33.7
				c0-0.4,0.2-0.7,0.6-0.8l32.3-10.4c0.3-0.1,0.7,0,0.9,0.3c0.2,0.3,0.2,0.7,0,1l-31.3,44.1C905,240.3,904.7,240.4,904.4,240.4z
				 M904.3,206.5l0.8,30.7l28.5-40.1L904.3,206.5z"/>
		</g>
		<g id="triangle36_87_" opacity="0.3">
			<path id="XMLID_510_" fill="#FFFFFF" d="M658.8,280.3c-0.4,0-0.7-0.3-0.8-0.6c-0.1-0.4,0.1-0.8,0.6-1l244.7-73.6
				c0.2-0.1,0.5,0,0.7,0.1c0.2,0.1,0.3,0.4,0.3,0.6l0.9,33.7c0,0.4-0.3,0.8-0.7,0.8l-245.6,39.8
				C658.9,280.3,658.9,280.3,658.8,280.3z M902.7,207l-231.8,69.7l232.7-37.7L902.7,207z"/>
		</g>
		<g id="triangle36_86_" opacity="0.3">
			<path id="XMLID_507_" fill="#FFFFFF" d="M607.2,342.9c-0.3,0-0.5-0.1-0.7-0.4c-0.2-0.3-0.2-0.7,0-1l51.6-62.6
				c0.1-0.2,0.3-0.3,0.5-0.3l245.6-39.8c0.4-0.1,0.8,0.2,0.9,0.6c0.1,0.4-0.1,0.8-0.5,1L607.4,342.9
				C607.3,342.9,607.3,342.9,607.2,342.9z M659.2,280.2l-49.6,60.2l285.6-98.5L659.2,280.2z"/>
		</g>
		<g id="triangle36_85_" opacity="0.3">
			<path id="XMLID_504_" fill="#FFFFFF" d="M607.2,342.9c-0.1,0-0.1,0-0.2,0c-0.3-0.1-0.5-0.3-0.6-0.6l-20.8-66.5
				c-0.1-0.3,0-0.5,0.1-0.7c0.2-0.2,0.4-0.3,0.7-0.3l72.4,3.9c0.3,0,0.6,0.2,0.7,0.5c0.1,0.3,0.1,0.6-0.1,0.8l-51.6,62.6
				C607.6,342.8,607.4,342.9,607.2,342.9z M587.5,276.5l20,64l49.7-60.2L587.5,276.5z"/>
		</g>
		<g id="triangle36_84_" opacity="0.3">
			<path id="XMLID_501_" fill="#FFFFFF" d="M211.9,263.9c-0.2,0-0.4-0.1-0.5-0.2L64.5,146c-0.3-0.2-0.4-0.6-0.2-1
				c0.1-0.3,0.5-0.5,0.9-0.5l201.8,26.2c0.3,0,0.5,0.2,0.6,0.5c0.1,0.2,0.1,0.5,0,0.8l-54.8,91.6c-0.1,0.2-0.3,0.3-0.6,0.4
				C212,263.9,212,263.9,211.9,263.9z M67.7,146.5l144,115.4l53.7-89.7L67.7,146.5z"/>
		</g>
		<g id="triangle36_83_" opacity="0.3">
			<path id="XMLID_498_" fill="#FFFFFF" d="M211.9,263.9c0,0-0.1,0-0.1,0L62,238.9c-0.4-0.1-0.7-0.4-0.7-0.8l2.8-92.7
				c0-0.3,0.2-0.6,0.5-0.7c0.3-0.1,0.6-0.1,0.9,0.1l146.8,117.7c0.3,0.1,0.5,0.4,0.5,0.7C212.8,263.5,212.5,263.9,211.9,263.9
				C212,263.9,211.9,263.9,211.9,263.9z M63,237.4l146,24.4L65.7,147L63,237.4z"/>
		</g>
		<g id="triangle36_82_" opacity="0.3">
			<path id="XMLID_495_" fill="#FFFFFF" d="M345.5,312.3c-0.1,0-0.2,0-0.3,0l-133.6-48.4c-0.2-0.1-0.4-0.3-0.5-0.5
				c-0.1-0.2-0.1-0.5,0.1-0.7l54.8-91.6c0.2-0.2,0.5-0.4,0.7-0.4c0.3,0,0.6,0.2,0.7,0.4L346.2,311c0.2,0.3,0.1,0.7-0.1,0.9
				C346,312.2,345.8,312.3,345.5,312.3z M213.1,262.7l130.6,47.3l-77-136.8L213.1,262.7z"/>
		</g>
		<g id="triangle36_81_" opacity="0.3">
			<path id="XMLID_492_" fill="#FFFFFF" d="M480.4,458.2c-0.2,0-0.4-0.1-0.6-0.3L344.9,312c-0.2-0.2-0.3-0.5-0.2-0.8
				c0.1-0.3,0.4-0.5,0.6-0.5l240.8-35.9c0.3,0,0.6,0.1,0.8,0.3c0.2,0.3,0.2,0.6,0,0.9L481.1,457.7C481,458,480.8,458.1,480.4,458.2
				C480.5,458.2,480.4,458.2,480.4,458.2z M347.2,312l133.1,144l104.5-179.3L347.2,312z"/>
		</g>
		<g id="triangle36_80_" opacity="0.3">
			<path id="XMLID_489_" fill="#FFFFFF" d="M327.2,555.9c-0.1,0-0.3,0-0.4-0.1c-0.3-0.2-0.4-0.5-0.4-0.8l18.3-243.7
				c0-0.3,0.2-0.6,0.5-0.7c0.3-0.1,0.6,0,0.9,0.2L481,456.8c0.2,0.2,0.2,0.4,0.2,0.7c0,0.2-0.2,0.5-0.4,0.6l-153.2,97.8
				C327.5,555.9,327.4,555.9,327.2,555.9z M346.2,313.4l-18.1,240.2l151-96.4L346.2,313.4z"/>
		</g>
		<g id="triangle36_79_" opacity="0.3">
			<path id="XMLID_486_" fill="#FFFFFF" d="M327.2,555.9c-0.3,0-0.6-0.2-0.8-0.5l-115.3-292c-0.1-0.3,0-0.6,0.2-0.9
				c0.2-0.2,0.6-0.3,0.9-0.2l133.6,48.4c0.3,0.1,0.6,0.5,0.5,0.8L328,555.2c0,0.4-0.3,0.7-0.7,0.7
				C327.3,555.9,327.2,555.9,327.2,555.9z M213.4,264.5l113.3,287l18-239.5L213.4,264.5z"/>
		</g>
	</g>
</g>
</svg>
