<?xml version="1.0" encoding="utf-8"?>
<!-- Generator: Adobe Illustrator 19.0.0, SVG Export Plug-In . SVG Version: 6.00 Build 0)  -->
<svg version="1.1" id="Capa_1" xmlns="http://www.w3.org/2000/svg" xmlns:xlink="http://www.w3.org/1999/xlink" x="0px" y="0px"
	 viewBox="0 0 28.7 18.3" enable-background="new 0 0 28.7 18.3" xml:space="preserve">
<g>
	<path fill="#FFFFFF" d="M0.2,9.2c-0.1,3.8,2.5,7.3,6.1,8.5c3.4,1.1,7.5,0.3,9.7-2.6c1.6-2,2-4.7,1.8-7.2c-2.9,0-5.7,0-8.6,0
		c0,1,0,2,0,3.1c1.7,0,3.4,0,5.2,0.1c-0.4,1.5-1.4,2.9-2.9,3.4C8.5,15.7,4.8,14,3.9,11C2.8,8.1,4.6,4.6,7.6,3.7
		c1.8-0.6,3.7,0.1,5.3,1c0.8-0.7,1.5-1.5,2.3-2.4C13.4,0.9,11.1,0,8.7,0.2C4.1,0.2,0,4.5,0.2,9.2L0.2,9.2z M0.2,9.2"/>
	<path fill="#FFFFFF" d="M23.4,5.3c0,0.9,0,1.7,0,2.6c-0.9,0-1.7,0-2.6,0v2.6c0.9,0,1.7,0,2.6,0c0,0.9,0,1.7,0,2.6
		c0.9,0,1.7,0,2.6,0c0-0.9,0-1.7,0-2.6c0.9,0,1.7,0,2.6,0V7.9c-0.9,0-1.7,0-2.6,0c0-0.9,0-1.7,0-2.6C25.1,5.3,24.2,5.3,23.4,5.3
		L23.4,5.3z M23.4,5.3"/>
	<path fill="#FFFFFF" d="M0.2,9.2C0,4.5,4.1,0.2,8.7,0.2c2.4-0.2,4.7,0.7,6.5,2.2c-0.7,0.8-1.5,1.6-2.3,2.4c-1.6-1-3.5-1.7-5.3-1
		c-3,0.8-4.8,4.4-3.7,7.3c0.9,3,4.6,4.7,7.5,3.4c1.5-0.5,2.5-1.9,2.9-3.4c-1.7,0-3.4,0-5.2-0.1c0-1,0-2,0-3.1c2.9,0,5.7,0,8.6,0
		c0.2,2.5-0.2,5.2-1.8,7.2c-2.2,2.9-6.3,3.7-9.7,2.6C2.7,16.5,0.1,12.9,0.2,9.2L0.2,9.2z M0.2,9.2"/>
	<path fill="#FFFFFF" d="M23.4,5.3h2.6c0,0.9,0,1.7,0,2.6c0.9,0,1.7,0,2.6,0v2.6c-0.9,0-1.7,0-2.6,0c0,0.9,0,1.7,0,2.6
		c-0.9,0-1.7,0-2.6,0c0-0.9,0-1.7,0-2.6c-0.9,0-1.7,0-2.6,0V7.9c0.9,0,1.7,0,2.6,0C23.3,7,23.3,6.2,23.4,5.3L23.4,5.3z M23.4,5.3"/>
</g>
<g id="XMLID_100_">
</g>
<g id="XMLID_101_">
</g>
<g id="XMLID_102_">
</g>
<g id="XMLID_103_">
</g>
<g id="XMLID_104_">
</g>
<g id="XMLID_105_">
</g>
<g id="XMLID_106_">
</g>
<g id="XMLID_107_">
</g>
<g id="XMLID_108_">
</g>
<g id="XMLID_109_">
</g>
<g id="XMLID_110_">
</g>
<g id="XMLID_111_">
</g>
<g id="XMLID_112_">
</g>
<g id="XMLID_113_">
</g>
<g id="XMLID_114_">
</g>
</svg>
