<?xml version="1.0" encoding="utf-8"?>
<!-- Generator: Adobe Illustrator 19.0.0, SVG Export Plug-In . SVG Version: 6.00 Build 0)  -->
<svg version="1.1" id="Capa_1" xmlns="http://www.w3.org/2000/svg" xmlns:xlink="http://www.w3.org/1999/xlink" x="0px" y="0px"
	 viewBox="0 0 37.6 37.2" enable-background="new 0 0 37.6 37.2" xml:space="preserve">
<g id="XMLID_30_">
	<circle id="XMLID_50_" fill="#3FA8F4" cx="18.8" cy="18.6" r="18.4"/>
	<g id="XMLID_31_">
		<g id="XMLID_158_">
			<path id="XMLID_163_" fill="#FFFFFF" d="M18,12.4H7.6c-0.5,0-0.9,0.4-0.9,0.9c0,0.5,0.4,0.9,0.9,0.9H18c0.4,2.1,2.3,3.7,4.5,3.7
				c2.2,0,4.1-1.6,4.5-3.7h2.2c0.5,0,0.9-0.4,0.9-0.9c0-0.5-0.4-0.9-0.9-0.9H27c-0.4-2.1-2.3-3.7-4.5-3.7
				C20.3,8.7,18.4,10.3,18,12.4L18,12.4z M25.3,13.3c0,1.5-1.2,2.8-2.8,2.8c-1.5,0-2.8-1.2-2.8-2.8c0-1.5,1.2-2.8,2.8-2.8
				C24.1,10.5,25.3,11.7,25.3,13.3L25.3,13.3z M25.3,13.3"/>
			<path id="XMLID_159_" fill="#FFFFFF" d="M10.4,23.5H7.6c-0.5,0-0.9,0.4-0.9,0.9s0.4,0.9,0.9,0.9h2.8c0.4,2.1,2.3,3.7,4.5,3.7
				c2.2,0,4.1-1.6,4.5-3.7h9.8c0.5,0,0.9-0.4,0.9-0.9s-0.4-0.9-0.9-0.9h-9.8c-0.4-2.1-2.3-3.7-4.5-3.7
				C12.7,19.8,10.8,21.4,10.4,23.5L10.4,23.5z M17.7,24.4c0,1.5-1.2,2.8-2.8,2.8c-1.5,0-2.8-1.2-2.8-2.8c0-1.5,1.2-2.8,2.8-2.8
				C16.5,21.6,17.7,22.8,17.7,24.4L17.7,24.4z M17.7,24.4"/>
		</g>
	</g>
</g>
<g id="XMLID_71_">
</g>
<g id="XMLID_73_">
</g>
<g id="XMLID_92_">
</g>
<g id="XMLID_93_">
</g>
<g id="XMLID_94_">
</g>
<g id="XMLID_95_">
</g>
<g id="XMLID_96_">
</g>
<g id="XMLID_97_">
</g>
<g id="XMLID_99_">
</g>
<g id="XMLID_101_">
</g>
<g id="XMLID_102_">
</g>
<g id="XMLID_103_">
</g>
<g id="XMLID_104_">
</g>
<g id="XMLID_105_">
</g>
<g id="XMLID_106_">
</g>
</svg>
