<?xml version="1.0" encoding="utf-8"?>
<!-- Generator: Adobe Illustrator 19.0.0, SVG Export Plug-In . SVG Version: 6.00 Build 0)  -->
<svg version="1.1" id="Capa_1" xmlns="http://www.w3.org/2000/svg" xmlns:xlink="http://www.w3.org/1999/xlink" x="0px" y="0px"
	 viewBox="0 0 551.2 636.6" enable-background="new 0 0 551.2 636.6" xml:space="preserve">
<g>
	<path fill="#C73C32" d="M267.5,504.9L267.5,504.9c6.1-0.8-4.5-6.5-5.3-12.7l6.5-62.8l-10.1-74.8c-0.8-6.1-5.8-9.6-12.7-9.6l0,0
		h-95.5l21.6,159.9H267.5L267.5,504.9z"/>
	<path fill="#A12E2A" d="M162.5,433.9l4.7,34.8l4,29.5h105.1c0.8-1.8,1.2-3.9,0.9-6.1l-3.2-23.5l-4.7-34.8H162.5L162.5,433.9z"/>
	<path fill="#84302C" d="M167.2,468.8l4,29.5h105.1c0.8-1.8,1.2-3.9,0.9-6.1l-3.2-23.5H167.2L167.2,468.8z"/>
	<path fill="#84302C" d="M159.4,495.2l-18.6-137.6c-0.8-6.1,3.5-11.8,9.6-12.7c6.1-0.8,11.8,3.5,12.7,9.6l18.6,137.6
		c0.8,6.1-3.5,11.8-9.6,12.7C165.9,505.7,160.2,501.4,159.4,495.2L159.4,495.2z"/>
	<polygon fill="#CECCD1" points="236.1,514.1 236.1,591.3 223,591.3 223,514.1 236.1,514.1 	"/>
	<path fill="#9D95B0" d="M236.1,518.6V536L223,546.3v-27.1C226.3,519,232.6,518.7,236.1,518.6L236.1,518.6z"/>
	<path fill="#43404A" d="M320.5,520.3H178.7c-3.2,0-5.8-2.6-5.8-5.8c0-3.2,2.6-5.8,5.8-5.8h141.8c3.2,0,5.8,2.6,5.8,5.8
		C326.3,517.7,323.7,520.3,320.5,520.3L320.5,520.3z"/>
	<path fill="#A12E2A" d="M326.4,513.3H221.3c-8,0-14.6-6.6-14.6-14.6c0-8,6.6-14.6,14.6-14.6h105.1c8,0,14.6,6.6,14.6,14.6
		C341,506.7,334.4,513.3,326.4,513.3L326.4,513.3z"/>
	<path fill="#84302C" d="M229.4,513.7h-53.8c-8,0-14.6-6.6-14.6-14.6c0-8,6.6-14.6,14.6-14.6h53.8c8,0,14.6,6.6,14.6,14.6
		C244.1,507.1,237.5,513.7,229.4,513.7L229.4,513.7z"/>
	<path fill="#4E4C57" d="M292.6,617h-8.2c0-9.8-8-17.7-17.7-17.7h-74.8c-9.8,0-17.7,8-17.7,17.7H166c0-14.3,11.6-25.9,25.9-25.9
		h74.8C281,591.1,292.6,602.7,292.6,617L292.6,617z"/>
	<polygon fill="#4E4C57" points="239,591.3 219.9,591.3 219.9,578.8 239,578.8 239,591.3 	"/>
	<path fill="#222943" d="M176.6,624.9c0,3.8-3,6.8-6.8,6.8c-3.8,0-6.8-3-6.8-6.8c0-3.8,3-6.8,6.8-6.8
		C173.5,618.1,176.6,621.2,176.6,624.9L176.6,624.9z"/>
	<path fill="#CECCD1" d="M179.6,624.3H161v-1.7c0-5.1,4.2-9.3,9.3-9.3c5.1,0,9.3,4.2,9.3,9.3V624.3L179.6,624.3z"/>
	<path fill="#222943" d="M295.7,624.9c0,3.8-3,6.8-6.8,6.8c-3.8,0-6.8-3-6.8-6.8c0-3.8,3-6.8,6.8-6.8
		C292.6,618.1,295.7,621.2,295.7,624.9L295.7,624.9z"/>
	<path fill="#CECCD1" d="M298.7,624.3h-18.6v-1.7c0-5.1,4.2-9.3,9.3-9.3l0,0c5.1,0,9.3,4.2,9.3,9.3V624.3L298.7,624.3z"/>
	<polygon fill="#4E4C57" points="235.3,618.2 224.4,618.2 224.4,593.6 235.3,593.6 235.3,618.2 	"/>
	<path fill="#222943" d="M236.9,624.9c0,3.8-3,6.8-6.8,6.8c-3.8,0-6.8-3-6.8-6.8c0-3.8,3-6.8,6.8-6.8
		C233.8,618.1,236.9,621.2,236.9,624.9L236.9,624.9z"/>
	<path fill="#CECCD1" d="M239.9,624.3h-18.6v-1.7c0-5.1,4.2-9.3,9.3-9.3c5.1,0,9.3,4.2,9.3,9.3V624.3L239.9,624.3z"/>
	<path fill="#9991AC" d="M530.6,636.4H7.5c-4.1,0-7.5-3.4-7.5-7.5c0-4.1,3.4-7.5,7.5-7.5h523.1c4.1,0,7.5,3.4,7.5,7.5
		C538.1,633,534.7,636.4,530.6,636.4L530.6,636.4z"/>
	<polygon fill="#A09BAD" points="435.5,103.9 404.6,103.9 404.6,120.1 435.5,120.1 435.5,103.9 	"/>
	<path fill="#EEC654" d="M449.7,69.5c0,16.7-13.5,30.2-30.2,30.2s-30.2-13.5-30.2-30.2s13.5-30.2,30.2-30.2S449.7,52.8,449.7,69.5
		L449.7,69.5z"/>
	<polygon fill="#EEC654" points="436.2,105.9 404,105.9 404,84.9 436.2,84.9 436.2,105.9 	"/>
	<path fill="#F5DB6B" d="M442.6,70.1c0,12.6-10.2,22.8-22.8,22.8c-12.6,0-22.8-10.2-22.8-22.8c0-12.6,10.2-22.8,22.8-22.8
		C432.4,47.3,442.6,57.5,442.6,70.1L442.6,70.1z"/>
	<path fill="none" stroke="#FFFFFF" stroke-width="2.5733" stroke-linejoin="round" stroke-miterlimit="10" d="M413,104.8L404.2,63
		c0,0,5,5.6,9.3,4.7c4.3-1,5.5-8.5,1.4-8.4c-4,0.2-3.5,11.1,6,10.9c11.9-0.2,8-9.8,5.1-9.7c-4.5,0.3-4.8,9.7,2.4,9.8
		c7.2,0.2,9.8-6.9,9.8-6.9l-11.9,41"/>
	<path fill="#A09BAD" d="M422,129.6h-4.7c-5.8,0-11-3.9-12.9-9.7h30.6C433,125.7,427.8,129.6,422,129.6L422,129.6z"/>
	<path fill="#EEC654" d="M395.2,39.8L395.2,39.8c1-1.1,1.2-2.8,0.4-4.1l-10.7-17c-2.4-3.8-7.7-4.4-10.9-1.2c-3,3-2.7,8,0.7,10.5
		l15.9,12.2C392,41.3,394,41.1,395.2,39.8L395.2,39.8z"/>
	<path fill="#EEC654" d="M381.7,59.7L381.7,59.7c0-1.5-1-2.9-2.5-3.3L359.8,51c-4.3-1.2-8.7,1.9-8.9,6.4c-0.2,4.2,3.4,7.7,7.6,7.3
		l20-1.7C380.3,62.9,381.7,61.5,381.7,59.7L381.7,59.7z"/>
	<path fill="#EEC654" d="M418.7,30.8L418.7,30.8c1.5-0.2,2.7-1.4,2.9-2.9L424.4,8c0.6-4.5-3.1-8.4-7.6-8c-4.2,0.4-7.2,4.4-6.3,8.5
		l4.3,19.6C415.3,29.9,417,31,418.7,30.8L418.7,30.8z"/>
	<path fill="#EEC654" d="M441.1,40.3L441.1,40.3c1.3,0.8,3,0.7,4.1-0.4l14.8-13.6c3.3-3.1,2.9-8.4-0.8-11c-3.5-2.4-8.3-1.2-10.2,2.6
		l-9.1,17.9C439.1,37.4,439.6,39.3,441.1,40.3L441.1,40.3z"/>
	<path fill="#EEC654" d="M456.3,55.8L456.3,55.8c0.5,1.5,1.9,2.4,3.4,2.3l20.1-1.2c4.5-0.3,7.6-4.7,6.3-9c-1.2-4.1-5.7-6.2-9.6-4.4
		l-18.4,8.1C456.6,52.3,455.8,54.1,456.3,55.8L456.3,55.8z"/>
	<path fill="#EFD0BC" d="M415.8,197.2l5-21c0.3-1.3-0.5-2.7-1.9-3l-0.6-0.1c-1.3-0.3-2.7,0.5-3,1.9l-5,21c-0.3,1.3,0.5,2.7,1.9,3
		l0.6,0.1C414.1,199.4,415.4,198.5,415.8,197.2L415.8,197.2z"/>
	<path fill="#EFD0BC" d="M416.4,204.5l6.9-16c0.5-1.3,0-2.7-1.3-3.3l-0.5-0.2c-1.3-0.5-2.7,0-3.3,1.3l-6.9,16
		c-0.5,1.3,0,2.7,1.3,3.3l0.5,0.2C414.3,206.3,415.8,205.7,416.4,204.5L416.4,204.5z"/>
	<path fill="#EFD0BC" d="M411.5,205.8l-0.4-17.4c0-1.4-1.2-2.5-2.6-2.4l-0.6,0c-1.4,0-2.5,1.2-2.4,2.6l0.4,17.4
		c0,1.4,1.2,2.5,2.6,2.4l0.6,0C410.4,208.4,411.5,207.2,411.5,205.8L411.5,205.8z"/>
	<path fill="#EFD0BC" d="M419.3,210.9l8.1-18.9c0.5-1.3-0.1-2.7-1.3-3.3l-0.5-0.2c-1.3-0.5-2.7,0.1-3.3,1.3l-8.1,18.9
		c-0.5,1.3,0.1,2.7,1.3,3.3l0.5,0.2C417.3,212.8,418.8,212.2,419.3,210.9L419.3,210.9z"/>
	<path fill="#EFD0BC" d="M422.5,215.8l8.1-18.9c0.5-1.3-0.1-2.7-1.3-3.3l-0.5-0.2c-1.3-0.5-2.7,0.1-3.3,1.3l-8.1,18.9
		c-0.5,1.3,0.1,2.7,1.3,3.3l0.5,0.2C420.5,217.7,422,217.1,422.5,215.8L422.5,215.8z"/>
	<path fill="#EFD0BC" d="M412.3,188.6c-0.1,0.2-1.3,2.4-2.7,4.8c-2.4,4.1-3.7,8.8-3.9,13.5l-0.4,9.1c0,0,14.4,2.6,14.9,2.1
		c10.1-12.4,6.4-20.6,6.4-20.6L412.3,188.6L412.3,188.6z"/>
	<polygon fill="#FFFFFF" points="401.2,215.3 404.2,207.6 426.4,217 421.7,225.7 401.2,215.3 	"/>
	<path fill="#252948" d="M426,222.7c0,0-19.4,47.5-19.5,47.6c-5.7,14.7-20.2,26-35.9,24.2c-2.4-0.3-8.2-1.8-10.7-2.7
		c-3.2-1.1-37.2-22.5-37.2-22.5l-4.1-38.7c0,0,42.1,29.5,44.5,31c4.2,2.6,9.8,3.8,12,3c3.9-1.4,5.6-3.2,7.5-6.5
		c9.6-16,18.6-46.2,18.6-46.2L426,222.7L426,222.7z"/>
	<path fill="#56213A" d="M318.4,583c-0.1,1.9-0.9,28.4-0.9,28.4l19.6,0.4l-0.4-33.3L318.4,583L318.4,583z"/>
	<path fill="#22223F" d="M309.4,402.4c0,0.2,0,1.5,0.1,3.6c1,30.9,6.4,199.6,6.4,199.6l25.3-0.9l6.7-197.5L309.4,402.4L309.4,402.4z
		"/>
	<path fill="#686474" d="M315.7,627.7l51.8,0.4c3.1,0,5.6-2.5,5.6-5.6c0-2.4-1.5-4.5-3.7-5.3l-25.6-9.2l-28,0.5L315.7,627.7
		L315.7,627.7z"/>
	<path fill="none" stroke="#22223F" stroke-width="1.2479" stroke-linecap="round" stroke-miterlimit="10" d="M343.3,615.6l6.1-6.5
		 M347.7,617.5l6.1-6.5 M352,620l6.8-7.4"/>
	<path fill="#56213A" d="M274,582.7c-0.1,1.9-0.4,28.3-0.4,28.3l19.6,0l-1-33.1L274,582.7L274,582.7z"/>
	<path fill="#22223F" d="M261.7,403.3c0,0.2,0,1.4,0.1,3.5c1.5,30.7,9.9,198.3,9.9,198.3l25.3-1.3l3.2-196.4L261.7,403.3
		L261.7,403.3z"/>
	<path fill="#7A7485" d="M271.7,627.2l51.8,2c3.1,0.1,5.7-2.3,5.8-5.4c0.1-2.4-1.3-4.6-3.5-5.4l-25.3-9.9l-28-0.4L271.7,627.2
		L271.7,627.2z"/>
	<path fill="none" stroke="#22223F" stroke-width="1.2442" stroke-linecap="round" stroke-miterlimit="10" d="M299.6,616.1l6.3-6.3
		 M304,618.1l6.3-6.3 M308.1,620.7l7.1-7.2"/>
	<path fill="#22223F" d="M349.2,398c0.5,5.6-1,11-3.9,15.3c-3.8,5.6-9.9,9.5-17.1,10.2l-39.1,3.8c-1.2,0.1-2.3,0.1-3.4,0.1
		c-2.9-0.1-5.7-0.8-8.3-2c-0.5-0.2-0.9-0.4-1.3-0.6c-6.8-3.5-11.7-10.3-12.5-18.5l-0.5-12.5l84.3-8.9L349.2,398L349.2,398z"/>
	<path fill="#E4B097" d="M300,236.4l-8.3,0.9c-5.1,0.6-9.7-3.1-10.3-8.2l-3.5-31c-0.6-5.1,3.1-9.7,8.2-10.3l8.3-0.9
		c5.1-0.6,9.7,3.1,10.3,8.2l3.5,31C308.7,231.2,305.1,235.8,300,236.4L300,236.4z"/>
	<path fill="#D18730" d="M340.7,155.5c0,0.6,0,1.3,0,1.9c0,3-0.3,6-1,8.9c-2.6,12.3-10.6,22.6-21.5,28.4c-5.4,2.9-11.5,4.6-18,4.9
		c-10.6,0.5-19.2,5.6-26.8-0.5c-2.5-2-4.7-4.2-6.7-6.6c-0.8-1-1.5-2-2.2-3c-4.2-6.2-8-22.3-8.4-30.3c-1-22.7,16.1-42,38.5-44
		c0.6-0.1,1.3-0.1,1.9-0.1c14.2-0.6,27.1,5.9,35.2,16.3l0,0c2.4,3.1,4.4,6.5,5.8,10.2C339.5,145.9,340.5,150.6,340.7,155.5
		L340.7,155.5z"/>
	<path fill="#EDCDC8" d="M285.7,170.5c0.1,0.9-0.1,1.8-0.3,2.7c-0.3,1-0.8,2.1-1.5,2.9c-1.3,1.4-3.1,2.6-5.2,2.7l-4.5,0.3l-3.4,0.2
		l-0.6-10.2l0,0l-0.1-1.9l-0.1-1.5l-0.1-1.3l0-0.3l0,0l7.9-0.5c2-0.1,3.9,0.5,5.3,1.7c0.9,0.7,1.6,1.6,2.1,2.7
		C285.4,168.7,285.7,169.6,285.7,170.5L285.7,170.5z"/>
	<path fill="#EFD0BC" d="M339.4,160l1,16.5l0.2,2.5c0.1,1.6,0.1,3.3,0,4.8c-1.2,14.8-11.9,27.3-26.5,30.8c-0.4,0.1-0.9,0.2-1.3,0.3
		c-1.6,0.3-3.2,0.5-4.8,0.6c-1.6,0.1-3.1,0.1-4.7,0c-3-0.2-6-0.8-8.7-1.8l0,0c-12.1-4.1-21.3-14.7-23.2-27.7
		c-0.1-0.4-0.1-0.8-0.1-1.2c-0.1-0.5-0.1-0.9-0.1-1.4l0-0.2l-0.1-1.1l-0.2-2.9l-0.6-10.1l0-0.1l0,0l-0.1-1.9l-0.1-1.5l-0.1-1.3
		l0-0.3c-0.1-2.3,0.1-4.6,0.5-6.9c0.3-1.6,0.7-3.1,1.2-4.6c0.1-0.2,0.1-0.5,0.2-0.7c0.4-1.2,0.9-2.4,1.4-3.6l0,0
		c2-4.4,5-8.4,8.6-11.6c0.7-0.6,1.5-1.3,2.3-1.9c5.4-4,12-6.6,19.1-7.1c9.6-0.6,18.7,2.7,25.4,8.6c3.6,3.1,6.2,7,8.2,11.4
		c0.8,1.7,1.4,3.4,1.8,5.2C339,155.1,339.3,157.6,339.4,160L339.4,160z"/>
	<path fill="#EDCDC8" d="M273.5,168.8l0.6,10.3l0.4,6.9l-2.7,0.2c-0.2,0-0.4,0-0.6,0c-4.6,0-8.4-3.8-8.7-8.3
		c-0.2-2.4,0.7-4.4,2.2-6.1c1.3-1.5,3.2-2.4,5.3-2.7l0,0c0.2-0.1,0.5-0.1,0.7-0.1L273.5,168.8L273.5,168.8z"/>
	<path fill="#E4B097" d="M307,215.6c0,0-6.1,1.1-12.5-1.8l0,0c-12.1-4.1-21.3-14.7-23.2-27.7c-4.6,0-8.4-3.8-8.7-8.3
		c-0.2-2.4,0.7-4.4,2.2-6.1c1.3-1.5,3.2-2.4,5.3-2.7l0,0l-0.1-1.9l-0.1-1.5l-0.1-1.3l0-0.3l0,0c-0.1-2.3,0.1-4.6,0.5-6.9
		c4.4-3.1,9.1-4.2,12.5,1.4c0,0,0,2.7,0.3,6.7c0.2,3,0.4,6.8,0.8,10.9c0.9,8.3,2.4,17.4,5.2,22.8C294.9,210.3,307,215.6,307,215.6
		L307,215.6z"/>
	<path fill="#D18730" d="M338.8,136l-57.1,6.5c-3.3,0.4-6.3-2-6.7-5.3l-0.2-1.4c-0.4-3.3,2-6.3,5.3-6.7l57.1-6.5
		c3.3-0.4,6.3,2,6.7,5.3l0.2,1.4C344.4,132.6,342.1,135.6,338.8,136L338.8,136z"/>
	<path fill="#D18730" d="M350.8,140.1c0.9,2.9,0.2,5.9-1.5,8c-1.4,1.8-3.5,3-5.9,3.3l-50.8,5.8c-7.3,0.8-12.5,7.4-11.7,14.7l0.9,8.2
		c0.3,2.7-1.7,5.2-4.4,5.5l-1.2,0.1c-2.7,0.3-5.2-1.7-5.5-4.4l-2.8-24.8c0-0.2,0-0.4,0-0.6c-1.1-1.3-1.8-2.9-2-4.7
		c-0.3-2.4,0.5-4.7,1.9-6.5c1.4-1.8,3.5-3,5.9-3.3l67.4-7.7C345.3,133.4,349.6,135.9,350.8,140.1L350.8,140.1z"/>
	<path fill="#D18730" d="M336,161.6l-11.3,1.3c-1,0.1-1.8-0.6-2-1.6l0-0.4c-0.1-1,0.6-1.8,1.6-2l11.3-1.3c1-0.1,1.8,0.6,2,1.6l0,0.4
		C337.7,160.6,337,161.5,336,161.6L336,161.6z"/>
	<path fill="#D18730" d="M309.4,164.7l-11.3,1.3c-1,0.1-1.8-0.6-2-1.6l0-0.4c-0.1-1,0.6-1.8,1.6-2l11.3-1.3c1-0.1,1.8,0.6,2,1.6
		l0,0.4C311.1,163.7,310.4,164.5,309.4,164.7L309.4,164.7z"/>
	<path fill="#FFFFFF" d="M313.9,192.4c2,2.3,4.4,3,7.1,2.8c3.1-0.2,6.5-2,7.3-4.6L313.9,192.4L313.9,192.4z"/>
	<path fill="#E4B097" d="M325.1,182.1l-0.2,0c0.1,1.8-1.2,3.3-5,3.6l-2-13.8C322.5,176.6,324.5,179.2,325.1,182.1L325.1,182.1z"/>
	<path fill="#222034" d="M265.2,416.1c0,0,34.4-3.7,34-5c-0.4-1.2-0.4-15.8-0.4-15.8s27.4-4.6,27.4-2.9c0,1.7,2.5,14.5,2.5,14.5
		l20.3-3.7l-0.4-21.6l-88.3,9.1L265.2,416.1L265.2,416.1z"/>
	<polygon fill="#F1F1F4" points="328.2,381 291.7,384.2 277.7,224.4 314.3,221.2 328.2,381 	"/>
	<polygon fill="#BC312E" points="299.1,239.4 288.8,227.1 296.8,221.3 307.2,225.5 299.1,239.4 	"/>
	<polygon fill="#FFFFFF" points="314.8,230 297.5,221.9 278.3,233.7 277.2,221.3 313.7,218.8 314.8,230 	"/>
	<polygon fill="#A09BAD" points="330.3,387.8 292.1,391.8 291.4,383.9 329.6,380 330.3,387.8 	"/>
	<polygon fill="#252848" points="322.1,389.3 308.7,390.5 308,382.4 321.4,381.2 322.1,389.3 	"/>
	<path fill="#252948" d="M293.5,406.7c0,0-7.8,2.6-19.6,3.8c-4.3,0.5-9.1,0.7-14.3,0.7c-0.3,0-0.6-0.1-0.9-0.2l-8.4-110
		c-2.2-18.4-1.6-28.2-1.8-43.4c0-2.1-0.1-4.3-0.2-6.6c-0.1-1.4,0.1-2.7,0.4-3.9c1.6-6.5,7.7-11,14.4-14.3c4-2,8.2-3.6,11.8-5
		c1.7-0.6,0.7-0.1,2.5-0.3L293.5,406.7L293.5,406.7z"/>
	<path fill="#252948" d="M353.9,400l-6.8,0.6l-15.6,1.4c0,0-18.2-175.6-16.6-175c2.7,1,5.7,2.6,8.5,4.7c5.9,4.2,11.6,10.5,14.8,18.1
		c0.9,2.2,1.6,4.5,2.1,6.8c0,0.1,0,0.2,0.1,0.3C343.2,271.9,353.9,400,353.9,400L353.9,400z"/>
	<line fill="none" stroke="#A09BAD" stroke-width="1.2442" stroke-miterlimit="10" x1="299.3" y1="240" x2="313" y2="383.1"/>
	<path fill="#343561" d="M285.5,314.5c0.7,1.5-18.2-53.5-18.2-53.5l6.2-6.2l-11-22l14.5-9.7C277,223.1,284.2,312,285.5,314.5
		L285.5,314.5z"/>
	<path fill="#343561" d="M322.6,313.9c-0.5,1.6,7.7-55.8,7.7-55.8l-6.9-5.2l5.1-20.5l-15.1-11.2
		C313.4,221.3,323.4,311.2,322.6,313.9L322.6,313.9z"/>
	<path fill="#E4B097" d="M271.9,420c0.1-0.2,10.8-10.2,9.2-12.5c-2.6-3.9-6.2-7.9-9.9-11.1l-7.1-6.1c0,0-9,9.2-9.5,9.7
		c-6.8,6.5,8.8,16.8,8.8,16.8S269.8,424.7,271.9,420L271.9,420z"/>
	<path fill="#E4B097" d="M272.2,407.2l16.5,14.7c1.1,0.9,2.7,0.8,3.6-0.2l0.4-0.4c0.9-1.1,0.8-2.7-0.2-3.6L276,402.9
		c-1.1-0.9-2.7-0.8-3.6,0.2l-0.4,0.4C271,404.6,271.1,406.2,272.2,407.2L272.2,407.2z"/>
	<path fill="#E4B097" d="M271.1,415.3l13.3,11.9c1.1,0.9,2.7,0.8,3.6-0.2l0.4-0.4c0.9-1.1,0.8-2.7-0.2-3.6L274.9,411
		c-1.1-0.9-2.7-0.8-3.6,0.2l-0.4,0.4C270,412.7,270.1,414.3,271.1,415.3L271.1,415.3z"/>
	<path fill="#E4B097" d="M260.4,414.8l15.7,14c1.1,0.9,2.7,0.8,3.6-0.2l0.4-0.4c0.9-1.1,0.8-2.7-0.2-3.6l-15.7-14
		c-1.1-0.9-2.7-0.8-3.6,0.2l-0.4,0.4C259.3,412.2,259.4,413.8,260.4,414.8L260.4,414.8z"/>
	<path fill="#E4B097" d="M263,397l20.4,8.6c1.3,0.5,2.8-0.1,3.4-1.4l0.2-0.5c0.5-1.3-0.1-2.8-1.4-3.4l-20.4-8.6
		c-1.3-0.5-2.8,0.1-3.4,1.4l-0.2,0.5C261.1,394.9,261.7,396.4,263,397L263,397z"/>
	<polygon fill="#FFFFFF" points="269.1,390.4 267,388.6 262.4,384.5 249.3,399.2 246.6,402.3 247.5,403.1 249.4,404.8 253.2,408.2 
		253.9,407.4 263.2,397 266.9,392.8 267.2,392.5 269.1,390.4 	"/>
	<path fill="#252948" d="M261.4,258.3l-6.3-15.5l-1.7-1.5c-0.2,0.3-3.1,3.7-7.3,9.4c-3.5,4.8-7.9,11.2-12.3,18.6
		c-13.3,22.6-19.5,42.9-18.5,60.3c2.1,36.1,29.3,73.1,30.5,74.7l1.6-1.2l3-2.2l12.2-9l1.7-1.3l2.7-2l1.8-1.4
		c-0.2-0.3-23.3-31.8-24.9-59.3c-1.2-20.9,9.2-36.8,19.8-50.7C265.3,275.2,260.2,259.7,261.4,258.3L261.4,258.3z"/>
	<polygon fill="#BC312E" points="296.2,234.4 299.3,333.9 309.3,346.7 315.8,333.3 301.2,234.4 296.2,234.4 	"/>
	<path fill="none" stroke="#22223F" stroke-width="1.6335" stroke-linecap="round" stroke-miterlimit="10" d="M301.1,175.7
		c0,0,1.9-3.8,5.4-4c3.5-0.2,5.2,2.4,5.2,2.4"/>
	<path fill="none" stroke="#22223F" stroke-width="1.489" stroke-linecap="round" stroke-miterlimit="10" d="M326.2,172.2
		c0,0,1.1-3.9,4-4.2c2.9-0.2,5,2.5,5,2.5"/>
	<path fill="#5C5A6F" d="M436.4,107.7h-33.3c-1.3,0-2.3-1-2.3-2.3v-0.5c0-1.3,1-2.3,2.3-2.3h33.3c1.3,0,2.3,1,2.3,2.3v0.5
		C438.7,106.7,437.7,107.7,436.4,107.7L436.4,107.7z"/>
	<path fill="#5C5A6F" d="M436.4,115.9h-33.3c-1.3,0-2.3-1-2.3-2.3V113c0-1.3,1-2.3,2.3-2.3h33.3c1.3,0,2.3,1,2.3,2.3v0.5
		C438.7,114.8,437.7,115.9,436.4,115.9L436.4,115.9z"/>
	<path fill="#5C5A6F" d="M436.4,124h-33.3c-1.3,0-2.3-1-2.3-2.3v-0.5c0-1.3,1-2.3,2.3-2.3h33.3c1.3,0,2.3,1,2.3,2.3v0.5
		C438.7,123,437.7,124,436.4,124L436.4,124z"/>
	<path fill="#242B48" d="M414.1,324.6L414.1,324.6c-3.7-4-3.4-10.1,0.7-13.7l0.5-0.4c4.1-3.6,10.5-3.3,14.2,0.7
		c3.7,4,3.4,10.1-0.7,13.7l-0.5,0.4C424.1,328.9,417.8,328.6,414.1,324.6L414.1,324.6z"/>
	<path fill="#CC5A34" d="M422,343.8l-9.8,8.5l-27.7-29.6l9.8-8.5c6.8-5.9,16.5-6.7,24-2.6c1.9,1,3.7,2.4,5.2,4
		c3.8,4.1,5.6,9.3,5.3,14.4C428.5,335.1,426.2,340.1,422,343.8L422,343.8z"/>
	<path fill="#E4AA41" d="M413.1,334.4l-9.8,8.5l-18.9-20.2l9.8-8.5c6.8-5.9,16.5-6.7,24-2.6c1.3,2.9,1.9,5.9,1.7,9
		C419.7,325.7,417.4,330.7,413.1,334.4L413.1,334.4z"/>
	<path fill="#383760" d="M412.7,352.2c-2.9,2.6-11.7-1.8-19.5-9.8c-7.8-8.1-11.7-16.8-8.8-19.4c2.3-2.1,8.3,0.2,14.5,5.3
		c1.6,1.3,3.3,2.9,4.9,4.6c1.9,2,3.6,4,5,5.9C413.2,344.8,414.9,350.2,412.7,352.2L412.7,352.2z"/>
	<path fill="#FFFFFF" d="M408.9,338.7c-2.3,2.5-6.1,3.2-9.2,1.5c-3.6-1.9-4.8-6.3-2.8-9.7c0.5-0.9,1.3-1.7,2.1-2.3
		c1.6,1.3,3.3,2.9,4.9,4.6C405.8,334.8,407.5,336.8,408.9,338.7L408.9,338.7z"/>
	<polyline fill="none" stroke="#242B48" stroke-width="3.9614" stroke-miterlimit="10" points="463.4,420.3 488.7,338.5 
		437.5,304.4 426.7,313.5 	"/>
	<path fill="#242B48" d="M443.1,304.8c0,3.4-2.8,6.1-6.3,6.1c-3.5,0-6.3-2.7-6.3-6.1c0-3.4,2.8-6.1,6.3-6.1
		C440.3,298.8,443.1,301.5,443.1,304.8L443.1,304.8z"/>
	<path fill="#383760" d="M439.9,304.8c0,1.7-1.4,3-3.2,3c-1.7,0-3.2-1.4-3.2-3c0-1.7,1.4-3,3.2-3
		C438.5,301.8,439.9,303.2,439.9,304.8L439.9,304.8z"/>
	<path fill="#E4AA41" d="M488.9,430.6h-65.2c0-7.2,5.8-13,13-13h39.3C483.1,417.7,488.9,423.5,488.9,430.6L488.9,430.6z"/>
	<polygon fill="#242B48" points="448.9,418 437.1,418 437.1,414.4 448.9,414.4 448.9,418 	"/>
	<path fill="#242B48" d="M497.1,339.3c0,4.7-4,8.5-8.8,8.5c-4.9,0-8.8-3.8-8.8-8.5c0-4.7,4-8.5,8.8-8.5
		C493.1,330.8,497.1,334.7,497.1,339.3L497.1,339.3z"/>
	<path fill="#383760" d="M492.6,339.3c0,2.3-2,4.3-4.4,4.3c-2.4,0-4.4-1.9-4.4-4.3c0-2.3,2-4.3,4.4-4.3
		C490.7,335.1,492.6,337,492.6,339.3L492.6,339.3z"/>
	<path fill="#59273F" d="M525.4,411.7h-59.3V391h59.3c2.8,0,5.2,2.3,5.2,5.2v10.4C530.5,409.3,528.2,411.7,525.4,411.7L525.4,411.7z
		"/>
	<path fill="#59273F" d="M503.6,411.7h-59.3V391h59.3c2.8,0,5.2,2.3,5.2,5.2v10.4C508.8,409.3,506.4,411.7,503.6,411.7L503.6,411.7z
		"/>
	<path fill="#EEEFF1" d="M500.7,408.8h-56.4V393h56.4c2.4,0,4.4,2,4.4,4.4v7C505.1,406.8,503.2,408.8,500.7,408.8L500.7,408.8z"/>
	<polygon fill="#FFFFFF" points="526.9,400.6 513.2,400.6 513.2,399.1 526.9,399.1 526.9,400.6 	"/>
	<polygon fill="#FFFFFF" points="526.9,403.8 513.2,403.8 513.2,402.3 526.9,402.3 526.9,403.8 	"/>
	<path fill="#59273F" d="M535.1,375h-59.3v-20.7h59.3c2.8,0,5.2,2.3,5.2,5.2v10.4C540.3,372.7,537.9,375,535.1,375L535.1,375z"/>
	<path fill="#59273F" d="M513.3,375H454v-20.7h59.3c2.8,0,5.2,2.3,5.2,5.2v10.4C518.5,372.7,516.2,375,513.3,375L513.3,375z"/>
	<path fill="#EEEFF1" d="M511.2,372.9H454v-16.6h57.1c2.4,0,4.4,2,4.4,4.4v7.7C515.6,371,513.6,372.9,511.2,372.9L511.2,372.9z"/>
	<polygon fill="#EEEFF1" points="538,368.2 521.3,368.2 521.3,360.9 538,360.9 538,368.2 	"/>
	<polygon fill="#242B48" points="536.6,364 523,364 523,362.5 536.6,362.5 536.6,364 	"/>
	<polygon fill="#242B48" points="536.6,366.4 523,366.4 523,364.9 536.6,364.9 536.6,366.4 	"/>
	<path fill="#242B48" d="M529.8,431.3h-59.3v-20.7h59.3c2.8,0,5.2,2.3,5.2,5.2v10.4C534.9,429,532.6,431.3,529.8,431.3L529.8,431.3z
		"/>
	<path fill="#242B48" d="M508,431.3h-59.3v-20.7H508c2.8,0,5.2,2.3,5.2,5.2v10.4C513.1,429,510.8,431.3,508,431.3L508,431.3z"/>
	<path fill="#EEEFF1" d="M505.1,428.4h-56.4v-15h56.4c2.4,0,4.4,2,4.4,4.4v6.2C509.5,426.4,507.5,428.4,505.1,428.4L505.1,428.4z"/>
	<polygon fill="#EEEFF1" points="532.6,424.5 516,424.5 516,417.1 532.6,417.1 532.6,424.5 	"/>
	<polygon fill="#242B48" points="531.2,420.2 517.6,420.2 517.6,418.7 531.2,418.7 531.2,420.2 	"/>
	<polygon fill="#242B48" points="531.2,422.7 517.6,422.7 517.6,421.2 531.2,421.2 531.2,422.7 	"/>
	<path fill="#B23A2C" d="M458.3,374.9V391h68.8c4.4,0,8-3.6,8-8c0-2.2-0.9-4.2-2.4-5.7c-1.5-1.5-3.5-2.4-5.7-2.4H458.3L458.3,374.9z
		"/>
	<path fill="#D3764D" d="M450.3,374.9V391h57.9c4.4,0,8-3.6,8-8c0-2.2-0.9-4.2-2.4-5.7c-1.5-1.5-3.5-2.4-5.7-2.4H450.3L450.3,374.9z
		"/>
	<path fill="#EEEFF1" d="M450.3,377.6v10.3H506c2.9,0,5.2-2.3,5.2-5.2c0-1.4-0.6-2.7-1.5-3.7c-0.9-0.9-2.2-1.5-3.7-1.5H450.3
		L450.3,377.6z"/>
	<path fill="none" stroke="#9991AC" stroke-width="1.0896" stroke-miterlimit="10" d="M454,358.8h59.6 M454,362.3h59.6 M454,365.7
		h59.6 M454,369.2h59.6 M444.3,396h59.9 M444.3,399.5h59.9 M444.3,402.9h59.9 M444.3,406.4h59.9 M448.8,415.8h59.9 M448.8,419.3
		h59.9 M448.8,422h59.9 M448.8,425.4h59.9"/>
	<polygon fill="#26314E" points="129,636.6 111.6,636.6 111.6,447.8 129,447.8 129,636.6 	"/>
	<path fill="#E0A283" d="M362.2,403.8l17.3,5c1.3,0.4,2.6-0.4,3-1.6c0.4-1.3-0.4-2.6-1.6-3l-17.3-5c-1.3-0.4-2.6,0.4-3,1.6
		C360.2,402.1,360.9,403.5,362.2,403.8L362.2,403.8z"/>
	<path fill="#E0A283" d="M366.9,409.6l13.9,4c1.3,0.4,2.6-0.4,3-1.6c0.4-1.3-0.4-2.6-1.6-3l-13.9-4c-1.3-0.4-2.6,0.4-3,1.6
		C364.9,407.9,365.7,409.2,366.9,409.6L366.9,409.6z"/>
	<path fill="#E0A283" d="M363,412.8l16.4,4.7c1.3,0.4,2.6-0.4,3-1.6c0.4-1.3-0.4-2.6-1.6-3l-16.4-4.7c-1.3-0.4-2.6,0.4-3,1.6
		C361,411.1,361.7,412.4,363,412.8L363,412.8z"/>
	<path fill="#B6B0C9" d="M425.6,429.7h-71.3c-4.7,0-7.7-4.9-5.8-9.1l24.9-53.1c2.2-4.6,6.8-7.6,11.9-7.6H451c3.4,0,5.7,3.5,4.2,6.6
		L425.6,429.7L425.6,429.7z"/>
	<path fill="#B6B0C9" d="M354.5,429.9h-50.9c-2.1,0-3.7-1.7-3.7-3.7s1.7-3.7,3.7-3.7h50.9c2.1,0,3.7,1.7,3.7,3.7
		S356.6,429.9,354.5,429.9L354.5,429.9z"/>
	<polygon fill="#242B48" points="336.2,427.1 329,427.1 329,424.9 336.2,424.9 336.2,427.1 	"/>
	<polygon fill="#242B48" points="326.8,427.1 321.5,427.1 321.5,424.9 326.8,424.9 326.8,427.1 	"/>
	<path fill="#857E91" d="M424.5,429.7H353c-2.6,0-4.3-2.7-3.2-5l26.8-57.2c2.2-4.6,6.8-7.6,11.9-7.6h65.7c3.4,0,5.7,3.5,4.2,6.6
		l-27.7,59.2C429.6,428.2,427.2,429.7,424.5,429.7L424.5,429.7z"/>
	<path fill="#FFFFFF" d="M408.9,398.9c-1.7,4-4.9,6.4-7.1,5.5c-2.2-0.9-2.6-4.9-0.9-8.9c1.7-4,4.9-6.4,7.1-5.5
		C410.2,391,410.6,394.9,408.9,398.9L408.9,398.9z"/>
	<polygon fill="#857E91" points="214,636.6 196.6,636.6 196.6,447.8 214,447.8 214,636.6 	"/>
	<polygon fill="#857E91" points="437,447.8 437,636.6 419.6,636.6 419.6,447.8 437,447.8 	"/>
	<polygon fill="#857E91" points="522,447.8 522,636.6 504.6,636.6 504.6,447.8 522,447.8 	"/>
	<polygon fill="#383760" points="419.6,447.8 437,447.8 437,510.1 419.6,518.7 419.6,447.8 	"/>
	<polygon fill="#383760" points="522,447.8 522,467.9 504.6,476.5 504.6,447.8 522,447.8 	"/>
	<polygon fill="#383760" points="214.2,447.4 214.2,467.8 196.5,476.5 196.5,447.4 214.2,447.4 	"/>
	<path fill="#383760" d="M95.2,453.4h391.3v-14.9c0-4.8-3.9-8.6-8.6-8.6h-374c-4.8,0-8.6,3.9-8.6,8.6V453.4L95.2,453.4z"/>
	<polygon fill="#CBCACE" points="238,430.6 152.5,430.6 152.5,412.4 238,412.4 238,430.6 	"/>
	<polygon fill="#EEEFF1" points="238.2,430.8 198.7,430.8 198.7,412.2 238.2,412.2 238.2,430.8 	"/>
	<path fill="none" stroke="#9991AC" stroke-width="1.3402" stroke-miterlimit="10" d="M152.6,415.8h85.5 M152.6,419.4h85.5
		 M152.6,423.1h85.5 M152.6,426.7h85.5"/>
	<polygon fill="#61384C" points="129.1,635.9 10.9,635.9 10.9,484.5 129.1,484.5 129.1,635.9 	"/>
	<polygon fill="#61384C" points="180.5,635.9 54.8,635.9 54.8,484.5 180.5,484.5 180.5,635.9 	"/>
	<polygon fill="#D3764D" points="173,535.7 62.9,535.7 62.9,495.6 173,495.6 173,535.7 	"/>
	<polygon fill="#D3764D" points="173,582.7 62.9,582.7 62.9,542.6 173,542.6 173,582.7 	"/>
	<polygon fill="#D3764D" points="173,629.7 62.9,629.7 62.9,589.6 173,589.6 173,629.7 	"/>
	<path fill="#FFFFFF" d="M137.3,517.8h-27.6c-1.2,0-2.1-0.9-2.1-2.1v-0.1c0-1.2,0.9-2.1,2.1-2.1h27.6c1.2,0,2.1,0.9,2.1,2.1v0.1
		C139.4,516.8,138.4,517.8,137.3,517.8L137.3,517.8z"/>
	<path fill="#FFFFFF" d="M138.4,564.4h-27.6c-1.2,0-2.1-0.9-2.1-2.1v-0.1c0-1.2,0.9-2.1,2.1-2.1h27.6c1.2,0,2.1,0.9,2.1,2.1v0.1
		C140.5,563.5,139.5,564.4,138.4,564.4L138.4,564.4z"/>
	<path fill="#FFFFFF" d="M138.4,611.1h-27.6c-1.2,0-2.1-0.9-2.1-2.1v-0.1c0-1.2,0.9-2.1,2.1-2.1h27.6c1.2,0,2.1,0.9,2.1,2.1v0.1
		C140.5,610.2,139.5,611.1,138.4,611.1L138.4,611.1z"/>
	<path fill="#E4AA41" d="M133.2,398.4v26.7h-22.3v-26.7c0-1.2,1-2.1,2.1-2.1h18.1C132.3,396.3,133.2,397.2,133.2,398.4L133.2,398.4z
		"/>
	<path fill="#CC5A34" d="M111.2,420.6c-0.3-0.2-7.1-4.2-7.8-11.2c-0.2-2.7,0.8-4.3,1.7-5.3c2.5-2.5,6.5-2.4,7-2.4l-0.2,3.3
		c-0.8,0-3.3,0.1-4.5,1.4c-0.6,0.6-0.9,1.5-0.8,2.7c0.5,5.4,6.1,8.6,6.1,8.7L111.2,420.6L111.2,420.6z"/>
	<path fill="#B23A2C" d="M127.7,413.3h-6.4c-2.2,0-4-1.8-4-4s1.8-4,4-4h6.4c2.2,0,4,1.8,4,4S129.9,413.3,127.7,413.3L127.7,413.3z"
		/>
	<path fill="#CC5A34" d="M122.8,425.2h-11.9v-26.7c0-1.2,1-2.1,2.1-2.1h0.7c0,1.4,0.4,12.1,3.4,19.7
		C119.8,422.7,122.1,424.7,122.8,425.2L122.8,425.2z"/>
	<path fill="none" stroke="#9991AC" stroke-width="1.0896" stroke-miterlimit="10" d="M448.8,415.8h59.9 M448.8,419.3h59.9
		 M448.8,422h59.9 M448.8,425.4h59.9"/>
	<polygon fill="#FFFFFF" points="190.2,412.7 204.6,381.8 218.7,412.3 190.2,412.7 	"/>
	<polygon fill="#FFFFFF" points="204.6,411.8 178.8,411.8 178.8,382 204.6,382 204.6,411.8 	"/>
	<polygon fill="#383760" points="165.5,412.7 178.6,382.2 192.8,412.7 165.5,412.7 	"/>
	<polygon fill="#9991AC" points="202.2,387.1 189.3,387.1 189.3,385.8 202.2,385.8 202.2,387.1 	"/>
	<polygon fill="#9991AC" points="203.3,389.6 190.4,389.6 190.4,388.4 203.3,388.4 203.3,389.6 	"/>
	<path fill="#9991AC" d="M192.3,393.7l6,14.1l13.1-0.3l-6.4-13.7L192.3,393.7L192.3,393.7z M197.6,409l-6.9-16.3l15,0.1l7.4,15.8
		L197.6,409L197.6,409z"/>
	<path fill="none" stroke="#9991AC" stroke-width="1.1069" stroke-miterlimit="10" d="M193.1,396.1h13.8 M194.3,399h13.8 M195.3,402
		H209 M196.9,405h13.8 M202.8,393.5l6.4,14.2 M199,393.6l6.4,14.2 M195.2,393.3l6.3,14.8"/>
	<polygon fill="#494F97" points="509.7,409.7 506.1,409 514.8,359.7 518.4,360.3 509.7,409.7 	"/>
	<polygon fill="#494F97" points="517.1,374.1 511.5,373.1 514.2,358.3 519.7,359.3 517.1,374.1 	"/>
	<polygon fill="#61384C" points="503.7,416 500.1,415.7 504.3,365.7 506.5,362.5 507.9,366 503.7,416 	"/>
	<polygon fill="#26314E" points="498.7,418.5 495.1,419.2 485.6,370 486.8,366.4 489.1,369.3 498.7,418.5 	"/>
	<polygon fill="#CC5A34" points="506.7,430 491.2,430 486.1,388.9 511.8,388.9 506.7,430 	"/>
	<polygon fill="#E4AA41" points="512.6,430 497,430 494.7,388.9 517.7,388.9 512.6,430 	"/>
	<path fill="#494F97" d="M129.3,464.6v20H67.3c-4.3,0-8-2.8-9.4-6.6c-0.4-1-0.6-2.2-0.6-3.4c0-2.8,1.1-5.3,2.9-7.1
		c1.8-1.8,4.3-2.9,7.1-2.9H129.3L129.3,464.6z"/>
	<path fill="#3A4175" d="M105.9,478v6.6H67.3c-4.3,0-8-2.8-9.4-6.6H105.9L105.9,478z"/>
	<path fill="#242B48" d="M152.8,464.6v20H90.7c-5.5,0-10-4.5-10-10c0-2.8,1.1-5.3,2.9-7.1c1.8-1.8,4.3-2.9,7.1-2.9H152.8
		L152.8,464.6z"/>
	<path fill="#EEEFF1" d="M152.8,468.1v12.8H93.4c-3.5,0-6.4-2.9-6.4-6.4c0-1.8,0.7-3.4,1.9-4.5c1.2-1.2,2.8-1.9,4.5-1.9L152.8,468.1
		L152.8,468.1z"/>
	<path fill="#E4AA41" d="M130.7,424.9v20l-62.1,0c-5.5,0-10-4.5-10-10c0-2.8,1.1-5.3,2.9-7.1c1.8-1.8,4.3-2.9,7.1-2.9L130.7,424.9
		L130.7,424.9z"/>
	<path fill="#F4D43B" d="M107.1,431.6v-6.6H68.4c-4.3,0-8,2.8-9.4,6.6H107.1L107.1,431.6z"/>
	<path fill="#D3764D" d="M152.8,424.9v20l-62.1,0c-5.5,0-10-4.5-10-10c0-2.8,1.1-5.3,2.9-7.1c1.8-1.8,4.3-2.9,7.1-2.9L152.8,424.9
		L152.8,424.9z"/>
	<path fill="#EEEFF1" d="M152.8,428.3v12.8l-59.4,0c-3.5,0-6.4-2.9-6.4-6.4c0-1.8,0.7-3.4,1.9-4.5c1.2-1.2,2.8-1.9,4.5-1.9H152.8
		L152.8,428.3z"/>
	<path fill="#B1C635" d="M134.3,445v20H72.2c-5.5,0-10-4.5-10-10c0-1.7,0.4-3.3,1.2-4.7c0.5-0.9,1.1-1.7,1.8-2.4
		c1.8-1.8,4.3-2.9,7.1-2.9H134.3L134.3,445z"/>
	<path fill="#7F993A" d="M124.7,445v5.3H63.4c0.5-0.9,1.1-1.7,1.8-2.4c1.8-1.8,4.3-2.9,7.1-2.9H124.7L124.7,445z"/>
	<path fill="#7F993A" d="M124.7,465v-5.3H63.4c0.5,0.9,1.1,1.7,1.8,2.4c1.8,1.8,4.3,2.9,7.1,2.9H124.7L124.7,465z"/>
	<path fill="#61813A" d="M164.9,445v20l-62.1,0c-5.5,0-10-4.5-10-10c0-2.8,1.1-5.3,2.9-7.1c1.8-1.8,4.3-2.9,7.1-2.9L164.9,445
		L164.9,445z"/>
	<path fill="#EEEFF1" d="M164.9,448.4v12.8h-59.4c-3.5,0-6.4-2.9-6.4-6.4c0-1.8,0.7-3.4,1.9-4.5c1.2-1.2,2.8-1.9,4.5-1.9H164.9
		L164.9,448.4z"/>
	<path fill="#637E37" d="M69.6,431.8c-8.3,11.3-25,13.2-25,13.2s-3.2-16.5,5.1-27.8c8.3-11.3,25-13.2,25-13.2S77.9,420.5,69.6,431.8
		L69.6,431.8z"/>
	<path fill="#506A3B" d="M34.7,425.1c7.6,7.5,7.2,20.3,7.2,20.3s-12.8,0.6-20.4-6.9c-7.6-7.5-7.2-20.3-7.2-20.3
		S27.1,417.6,34.7,425.1L34.7,425.1z"/>
	<path fill="#7DAA52" d="M53.6,419.4c1.5,13.9-9.4,26.6-9.4,26.6s-13.5-9.9-15-23.9c-1.5-13.9,9.4-26.6,9.4-26.6
		S52.1,405.5,53.6,419.4L53.6,419.4z"/>
	<polygon fill="#61384C" points="52.6,484.5 23.7,484.5 14.2,442.4 62.1,442.4 52.6,484.5 	"/>
	<polygon fill="#925138" points="63.5,484.5 34.6,484.5 30.3,442.4 72.9,442.4 63.5,484.5 	"/>
	<path fill="#5E76B6" d="M181.7,453.4h369.5v-14.9c0-4.8-3.9-8.6-8.6-8.6H190.3c-4.8,0-8.6,3.9-8.6,8.6V453.4L181.7,453.4z"/>
</g>
</svg>
