<?xml version="1.0" encoding="utf-8"?>
<!-- Generator: Adobe Illustrator 19.0.0, SVG Export Plug-In . SVG Version: 6.00 Build 0)  -->
<svg version="1.1" id="Capa_1" xmlns="http://www.w3.org/2000/svg" xmlns:xlink="http://www.w3.org/1999/xlink" x="0px" y="0px"
	 viewBox="0 0 856.7 386" enable-background="new 0 0 856.7 386" xml:space="preserve">
<g>
	<g>
		<circle opacity="5.000000e-002" fill="#3F3844" cx="588.1" cy="110.3" r="46.6"/>
		<circle opacity="5.000000e-002" fill="#3F3844" cx="324.5" cy="117.3" r="64.4"/>
		<path opacity="5.000000e-002" fill="#3F3844" d="M2.4,233.3l9.1,16.4h11.6l4.9-8.4h3.8l4.8,8.4H45l4.9-8.4h3.6l4.9,8.4h8.4
			l4.9-8.4h3.5l4.9,8.4h21.5c7.5,14.9,22.9,25.2,40.7,25.2c25.2,0,45.6-20.4,45.6-45.6c0-25.2-20.4-45.6-45.6-45.6
			c-18.1,0-33.7,10.6-41.1,25.9H11.5l-10.1,19H0.2L0,229l0.6,1.1L0,231.2L2.4,233.3z"/>
		<path opacity="5.000000e-002" fill="#3F3844" d="M840.5,238.2l-8.4,6.9l-10.2-3.8l-10.2-3.8l0,0l-1.8-10.7l-1.8-10.7l8.4-6.9
			l15.8-13c-11.5-4-24.7-2.1-34.8,6.2c-11.3,9.3-15.5,24-11.9,37.3l-67,55.1c-12.3-6.1-27.6-4.8-38.9,4.5
			c-10.1,8.3-14.5,20.9-12.8,32.9l15.8-13l8.4-6.9l10.2,3.8l10.2,3.8l0,0l1.8,10.7l1.8,10.7l-8.4,6.9l-15.8,13
			c11.5,4,24.7,2.1,34.8-6.2c11.3-9.3,15.5-24,11.9-37.3l67-55.1c12.3,6.1,27.6,4.8,38.9-4.5c10.1-8.3,14.5-20.9,12.8-32.9
			L840.5,238.2z"/>
		<g>
			<path fill="#FFFFFF" d="M78.4,65.4c10.7,0.9,17.4,0.9,22.8-8.5c5.4-9.4,10.1-18.1,5.1-17.2c-4.9,0.9-13.4,2.9-21,0.9
				c-7.6-2-21.2-7.8-21-4c0.2,3.8,1.6,8.7,1.6,8.7S67.7,64.5,78.4,65.4z"/>
			<g>
				<path fill="#FFFFFF" d="M79,99.6c0,2,1.8,4.6,5.7,7.4V94.3c-1.6,0.2-2.9,0.8-3.9,1.7C79.5,97.1,79,98.2,79,99.6z"/>
				<path fill="#FFFFFF" d="M88.3,123.2v14.4c2-0.2,3.6-0.8,4.8-1.8c1.4-1.2,2-2.5,2.1-4.3c0-1.3-0.5-2.6-1.7-4
					C92.6,126.3,90.8,124.8,88.3,123.2z"/>
				<path fill="#FFFFFF" d="M126.2,116.4c-1-6.6-2-11.2-2-11.2l0-0.2v-0.2c0.1-16.2-13.2-29.8-30-37.2h-21c-16.8,7.4-30,21-30,37.2
					v0.2l0,0.2c0,0-4,18.8-4,33.8c-0.1,7.5,1.2,14,3.6,16.3c6.7,6.9,23.9,10.7,41,10.7c17.1,0.1,34.2-3.8,41-10.7
					c2.4-2.3,3.6-8.8,3.6-16.3C128.2,131.4,127.2,122.9,126.2,116.4z M99.1,137.9c-2.8,2.3-6.5,3.6-10.8,3.7v5.2h-3.6v-5.2
					c-5.7-0.3-10.3-2.2-13.7-5.7l-0.3-0.3l2-10.7h2.7l0.1,0.6c0.9,7.5,3.9,11.2,9.3,12v-16.8c-5.2-3.7-8.7-6.7-10.6-9
					c-2-2.4-3-5.1-3-8c0-3.6,1.4-6.7,4.2-9.3c2.6-2.4,5.8-3.8,9.4-4v-2.9v-0.7h3.6v3.6c4.8,0.3,8.9,1.9,12.2,4.9l0.3,0.2l-1.2,10.7
					h-2.8l0-0.7c-0.3-3.7-1.2-6.5-2.7-8.4c-1.4-1.7-3.3-2.6-5.7-2.8v15.3c6,4,10.1,7.3,12.1,9.9c2.1,2.7,3.2,5.6,3.2,8.8
					C103.6,132.2,102.1,135.5,99.1,137.9z"/>
				<path fill="#666666" d="M73.3,63.8c-0.8,0-1.5,1.1-1.5,2.5c0,1.4,0.7,2.5,1.5,2.5h21.6c0.8,0,1.5-1.1,1.5-2.5
					c0-1.4-0.7-2.5-1.5-2.5H73.3z"/>
				<ellipse fill="#FFFFFF" cx="88.7" cy="117.7" rx="26.5" ry="35.3"/>
			</g>
			<path fill="#FAAF3B" d="M92.7,119.7c-0.7-0.9-1.5-1.7-2.4-2.3c-0.9-0.7-1.8-1.3-2.8-1.9l1.8-13.5l6.5,0.9l0.3-2.4
				c-0.7-0.3-1.6-0.6-2.7-1c-1.1-0.4-2.4-0.7-3.7-0.9l0.6-4.2l-3.1-0.4l-0.6,4.3c-2.8-0.1-5,0.5-6.5,1.9c-1.5,1.4-2.5,3.4-2.8,6.2
				c-0.2,1.8-0.2,3.3,0.1,4.5c0.3,1.2,0.8,2.3,1.4,3.3c0.6,0.9,1.4,1.7,2.3,2.4c0.9,0.7,1.8,1.3,2.7,1.9l-1.9,13.7l-8-1.1l-0.3,2.3
				c0.8,0.4,1.8,0.8,3.2,1.2c1.4,0.4,2.9,0.7,4.4,0.9l0.3,0l-0.6,4.2l3.1,0.4l0.6-4.4c3.1,0,5.3-0.6,6.8-2c1.5-1.4,2.4-3.5,2.8-6.5
				c0.2-1.7,0.2-3.1-0.2-4.4C93.8,121.7,93.3,120.6,92.7,119.7z M84.6,113.4c-0.9-0.8-1.6-1.6-2.1-2.6c-0.5-1-0.6-2.2-0.4-3.7
				c0.4-2.9,1.8-4.6,4.1-5L84.6,113.4z M88.3,130.3c-0.7,0.9-1.7,1.5-3.1,1.8l1.6-11.6c1,0.7,1.7,1.6,2.3,2.5c0.6,1,0.8,2.2,0.6,3.6
				C89.5,128.2,89,129.4,88.3,130.3z"/>
		</g>
		<g>
			<path fill="#FAAF3B" d="M621.6,377.5c-6.1,0-11.7-3.3-14.8-8.5c-3.1-5.2-3.1-11.8-0.1-17l67.9-120.2c3-5.4,8.7-8.7,14.9-8.7
				c6.2,0,12,3.4,15,8.8l66.3,120.2c2.9,5.3,2.8,11.8-0.2,16.9c-3.1,5.2-8.7,8.4-14.7,8.4H621.6z"/>
			<path fill="#FFFFFF" d="M686.9,238.7l-67.9,120.2c-1.1,2,0.3,4.5,2.7,4.5h134.2c2.3,0,3.8-2.5,2.7-4.5l-66.3-120.2
				C691,236.7,688,236.7,686.9,238.7z"/>
			<g>
				<path fill="#333333" d="M692.2,327.6h-6.9c-0.6,0-1.1-0.5-1.1-1.1v-42.4c0-0.6,0.5-1.1,1.1-1.1h6.9c0.6,0,1.1,0.5,1.1,1.1v42.4
					C693.3,327.1,692.8,327.6,692.2,327.6z"/>
				<circle fill="#333333" cx="688.7" cy="340.1" r="5.5"/>
			</g>
		</g>
		<g>
			<g>
				<g id="XMLID_1_">
					<g>
						<path fill="#221C27" d="M661.8,16.3c1,0,1.8,0.8,1.8,1.8c0,1-0.8,1.8-1.8,1.8c-1,0-1.8-0.8-1.8-1.8
							C660,17.1,660.8,16.3,661.8,16.3z"/>
						<rect x="637.2" y="17" fill="#221C27" width="18.4" height="2"/>
						<path fill="#3F3844" d="M704.2,17.9v138.8c0,4.6-3.7,8.3-8.3,8.3h-91.1c-4.6,0-8.3-3.7-8.3-8.3V17.9c0-4.6,3.7-8.3,8.3-8.3
							h91.1C700.5,9.6,704.2,13.3,704.2,17.9z M698.9,147.5V27h-97.2v120.5H698.9z M663.5,18.1c0-1-0.8-1.8-1.8-1.8
							c-1,0-1.8,0.8-1.8,1.8c0,1,0.8,1.8,1.8,1.8C662.7,19.9,663.5,19.1,663.5,18.1z M655.6,19v-2h-18.4v2H655.6z M655.8,156.3
							c0-3-2.4-5.4-5.4-5.4c-3,0-5.4,2.4-5.4,5.4c0,3,2.4,5.4,5.4,5.4C653.3,161.7,655.8,159.3,655.8,156.3z"/>
						<rect x="601.8" y="27" fill="#D5D4D6" width="97.2" height="120.5"/>
						<path fill="#221C27" d="M650.4,150.9c3,0,5.4,2.4,5.4,5.4c0,3-2.4,5.4-5.4,5.4c-3,0-5.4-2.4-5.4-5.4
							C645,153.3,647.4,150.9,650.4,150.9z"/>
					</g>
				</g>
				<g>
					<g id="XMLID_67_">
						<path id="XMLID_71_" fill="#3F3844" d="M669.6,69.3c0-8-8.6-14.5-19.3-14.5c-10.6,0-19.3,6.5-19.3,14.5
							c0,4.3,2.5,8.1,6.4,10.8c0,0.3-0.1,0.6-0.1,0.9c0,2.8,1.8,5.2,4.3,6c0.1,1.8,1.6,3.3,3.4,3.3h10.5c1.8,0,3.3-1.4,3.4-3.3
							c2.5-0.8,4.3-3.2,4.3-6c0-0.3,0-0.6-0.1-0.9C667.2,77.4,669.6,73.5,669.6,69.3z M642,77.1c-3.9,0-7-3.1-7-7c0-3.9,3.1-7,7-7
							c3.9,0,7,3.1,7,7C649,74,645.8,77.1,642,77.1z M652.2,83.5c-0.5,0.2-1.3-0.4-1.8-1.5c-0.5,1-1.3,1.7-1.8,1.5
							c-0.7-0.2-0.8-1.6-0.2-3.1c0.5-1.4,1.4-2.4,2-2.3c0.7-0.1,1.5,0.9,2,2.3C652.9,81.9,652.8,83.3,652.2,83.5z M658.8,77.1
							c-3.9,0-7-3.1-7-7c0-3.9,3.1-7,7-7c3.9,0,7,3.1,7,7C665.8,74,662.6,77.1,658.8,77.1z"/>
						<g id="XMLID_68_">
							<path id="XMLID_70_" fill="#3F3844" d="M662.6,101.2c-0.1,0.3-0.2,0.5-0.2,0.8l-11-4.8l-1.2-0.5l-11-4.8
								c0.2-0.2,0.3-0.5,0.4-0.7c0.8-1.7,0-3.8-1.8-4.5c-1.7-0.8-3.8,0-4.5,1.8c-0.5,1.2-0.3,2.5,0.4,3.5c-0.8,0.3-1.5,0.9-1.8,1.7
								c-0.7,1.6,0,3.4,1.6,4.1c1.6,0.7,3.4,0,4.1-1.6c0,0,0,0,0-0.1l10.8,4.7l1.2,0.5l10.8,4.7c0,0,0,0,0,0.1
								c-0.7,1.6,0,3.4,1.6,4.1c1.6,0.7,3.4,0,4.1-1.6c0.4-0.8,0.3-1.7,0-2.5c1.2-0.1,2.3-0.9,2.8-2c0.8-1.7,0-3.8-1.8-4.5
								C665.3,98.6,663.3,99.4,662.6,101.2z"/>
							<path id="XMLID_69_" fill="#3F3844" d="M638.1,101.2c0.1,0.3,0.2,0.5,0.2,0.8l11-4.8l1.2-0.5l11-4.8
								c-0.2-0.2-0.3-0.5-0.4-0.7c-0.8-1.7,0-3.8,1.8-4.5c1.7-0.8,3.8,0,4.5,1.8c0.5,1.2,0.3,2.5-0.4,3.5c0.8,0.3,1.5,0.9,1.8,1.7
								c0.7,1.6,0,3.4-1.6,4.1c-1.6,0.7-3.4,0-4.1-1.6c0,0,0,0,0-0.1l-10.8,4.7l-1.2,0.5l-10.8,4.7c0,0,0,0,0,0.1
								c0.7,1.6,0,3.4-1.6,4.1c-1.6,0.7-3.4,0-4.1-1.6c-0.4-0.8-0.3-1.7,0-2.5c-1.2-0.1-2.3-0.9-2.8-2c-0.8-1.7,0-3.8,1.8-4.5
								C635.4,98.6,637.4,99.4,638.1,101.2z"/>
						</g>
					</g>
				</g>
			</g>
			<polygon fill="#D5D4D6" points="698.9,27 698.9,147.5 698.9,147.5 601.8,27 			"/>
		</g>
		<g>
			<circle fill="#FAAF3B" cx="261.3" cy="62.3" r="62.3"/>
			<circle fill="none" stroke="#FFFFFF" stroke-width="11.1907" stroke-miterlimit="10" cx="261.3" cy="62.3" r="38.6"/>
			<line fill="none" stroke="#FFFFFF" stroke-width="11.1907" stroke-miterlimit="10" x1="287.4" y1="33.8" x2="234.4" y2="86.8"/>
		</g>
		<g>
			<path fill="#33517B" d="M550.2,97.3l-5.4,0.2c-1.5,0-3.2-1.2-3.8-2.8c-0.6-1.4-1.2-2.9-1.9-4.3c-0.8-1.5-0.6-3.6,0.4-4.7l3.7-4
				c2.6-2.8,2.5-7.2-0.3-9.8l-6.5-6.1c-1.4-1.3-3.1-1.9-5-1.9c-1.9,0.1-3.6,0.8-4.9,2.2l-3.7,4c-0.6,0.6-1.6,1-2.7,1.1
				c-0.7,0-1.4-0.1-1.9-0.4c-1.4-0.6-2.9-1.2-4.4-1.7c-1.6-0.5-3-2.2-3-3.7l-0.2-5.4c-0.1-3.8-3.3-6.9-7.2-6.7l-8.9,0.3
				c-3.8,0.1-6.9,3.3-6.7,7.2l0.2,5.4c0,1.5-1.2,3.2-2.8,3.8c-1.4,0.6-2.9,1.2-4.3,1.9c-0.5,0.3-1.2,0.4-1.9,0.5
				c-1.1,0-2.2-0.3-2.8-0.9l-4-3.7c-1.4-1.3-3.1-1.9-5-1.9c-1.9,0.1-3.6,0.8-4.9,2.2l-6.1,6.5c-1.3,1.4-1.9,3.1-1.9,5
				c0.1,1.9,0.8,3.6,2.2,4.8l4,3.7c1.1,1,1.4,3.1,0.7,4.7c-0.6,1.4-1.2,2.9-1.7,4.4c-0.5,1.6-2.2,3-3.7,3l-5.4,0.2
				c-3.8,0.1-6.9,3.3-6.7,7.2l0.3,8.9c0.1,3.8,3.3,6.9,7.2,6.7l5.4-0.2c1.5,0,3.2,1.2,3.8,2.8c0.6,1.4,1.2,2.9,1.9,4.3
				c0.8,1.5,0.6,3.6-0.4,4.7l-3.7,4c-2.6,2.8-2.5,7.2,0.3,9.8l6.5,6.1c1.4,1.3,3.1,1.9,5,1.9c1.9-0.1,3.6-0.8,4.8-2.2l3.7-4
				c0.6-0.6,1.6-1,2.7-1.1c0.7,0,1.4,0.1,1.9,0.4c1.4,0.6,2.9,1.2,4.4,1.7c1.6,0.5,3,2.2,3,3.7l0.2,5.4c0.1,3.8,3.3,6.9,7.2,6.7
				l8.9-0.3c3.8-0.1,6.9-3.3,6.7-7.2l-0.2-5.4c0-1.5,1.2-3.2,2.8-3.8c1.4-0.6,2.9-1.2,4.3-1.9c0.5-0.3,1.2-0.4,1.9-0.5
				c1.1,0,2.2,0.3,2.8,0.9l4,3.7c1.4,1.3,3.1,1.9,5,1.9c1.9-0.1,3.6-0.8,4.8-2.2l6.1-6.5c2.6-2.8,2.5-7.2-0.3-9.8l-4-3.7
				c-1.1-1-1.4-3.1-0.7-4.7c0.6-1.4,1.2-2.9,1.7-4.4c0.5-1.6,2.2-3,3.7-3l5.4-0.2c3.8-0.1,6.9-3.3,6.7-7.2l-0.3-8.9
				C557.2,100.2,554,97.2,550.2,97.3L550.2,97.3z M521.1,109.6c0.4,11.2-8.5,20.7-19.7,21c-11.2,0.4-20.7-8.5-21-19.7
				c-0.4-11.2,8.5-20.7,19.7-21C511.3,89.6,520.7,98.4,521.1,109.6L521.1,109.6z M521.1,109.6"/>
			<path fill="#00265A" d="M454.8,53.6c0.1-0.4,0.5-0.7,0.8-0.7l2.7-0.1c2.6-0.1,4.6-2.2,4.5-4.8l-0.1-4.4c-0.1-2.6-2.2-4.6-4.8-4.5
				l-2.7,0.1c-0.2,0-0.7-0.3-0.8-0.7c-0.3-0.8-0.6-1.5-1-2.2c-0.2-0.3-0.1-0.9,0-1l1.9-2c1.7-1.9,1.7-4.8-0.2-6.6l-3.2-3
				c-0.9-0.8-2.1-1.3-3.3-1.3c-1.2,0-2.4,0.6-3.2,1.5l-1.9,2c-0.1,0.1-0.3,0.2-0.6,0.2c-0.2,0-0.3,0-0.5-0.1
				c-0.8-0.3-1.5-0.6-2.3-0.9c-0.4-0.1-0.7-0.5-0.7-0.8l-0.1-2.7c-0.1-2.6-2.2-4.6-4.8-4.5l-4.4,0.1c-2.6,0.1-4.6,2.2-4.5,4.8
				l0.1,2.7c0,0.2-0.3,0.7-0.7,0.8c-0.8,0.3-1.5,0.6-2.2,1c-0.1,0.1-0.3,0.1-0.4,0.1c-0.3,0-0.5-0.1-0.6-0.1l-2-1.9
				c-0.9-0.8-2.1-1.3-3.3-1.3c-1.2,0-2.4,0.6-3.2,1.5l-3,3.2c-1.7,1.9-1.7,4.8,0.2,6.6l2,1.9c0.1,0.1,0.3,0.7,0.1,1
				c-0.3,0.7-0.6,1.5-0.9,2.3c-0.1,0.4-0.6,0.7-0.8,0.7l-2.7,0.1c-2.6,0.1-4.6,2.2-4.5,4.8l0.1,4.4c0.1,2.6,2.2,4.6,4.8,4.5l2.7-0.1
				c0.2,0,0.7,0.3,0.8,0.7c0.3,0.8,0.6,1.5,1,2.3c0.2,0.3,0.1,0.9,0,1l-1.9,2c-0.8,0.9-1.3,2.1-1.3,3.3c0,1.2,0.6,2.4,1.5,3.2l3.2,3
				c0.9,0.8,2.1,1.3,3.3,1.3c1.2,0,2.4-0.6,3.2-1.5l1.9-2c0.1-0.1,0.3-0.2,0.6-0.2c0.2,0,0.3,0,0.5,0.1c0.8,0.3,1.5,0.6,2.3,0.9
				c0.4,0.1,0.7,0.6,0.7,0.8l0.1,2.7c0.1,2.6,2.2,4.6,4.8,4.5l4.4-0.1c2.6-0.1,4.6-2.2,4.5-4.8l-0.1-2.7c0-0.2,0.3-0.7,0.7-0.8
				c0.8-0.3,1.5-0.6,2.2-1c0.1-0.1,0.3-0.1,0.4-0.1c0.3,0,0.5,0.1,0.6,0.1l2,1.9c0.9,0.8,2.1,1.3,3.3,1.2c1.2,0,2.4-0.6,3.2-1.5
				l3-3.2c1.7-1.9,1.7-4.8-0.2-6.6l-2-1.9c-0.2-0.1-0.3-0.7-0.1-1C454.3,55.2,454.6,54.4,454.8,53.6L454.8,53.6z M442.2,46.5
				c0.2,5-3.8,9.2-8.7,9.3c-5,0.2-9.2-3.8-9.3-8.7c-0.2-5,3.8-9.2,8.7-9.3C437.8,37.6,442,41.5,442.2,46.5L442.2,46.5z M442.2,46.5"
				/>
		</g>
		<path fill-rule="evenodd" clip-rule="evenodd" fill="#FFFFFF" d="M317.6,133.4H527c4.3,0,7.8,3.5,7.8,7.8v132.3
			c0,4.3-3.5,7.8-7.8,7.8H317.6c-4.3,0-7.8-3.5-7.8-7.8V141.2C309.8,136.9,313.3,133.4,317.6,133.4z"/>
		<rect x="321.5" y="148.9" fill-rule="evenodd" clip-rule="evenodd" fill="#4D4D4D" width="201.6" height="112.3"/>
		<polygon fill-rule="evenodd" clip-rule="evenodd" fill="#D5D4D6" points="357.2,148.9 523.1,148.9 523.1,261.2 483.3,261.2 		"/>
		<circle fill-rule="evenodd" clip-rule="evenodd" fill="#DBDBDB" cx="422.3" cy="141.4" r="2.8"/>
		<polygon fill-rule="evenodd" clip-rule="evenodd" fill="#F0F0F0" points="309.8,281.3 534.8,281.3 573.9,297.9 270.7,297.9 		"/>
		<path fill-rule="evenodd" clip-rule="evenodd" fill="#FFFFFF" d="M270.7,297.9h303.1v4.4c0,3.1-2.5,5.6-5.6,5.6H276.3
			c-3.1,0-5.6-2.5-5.6-5.6V297.9z"/>
		<rect x="391.7" y="301" fill-rule="evenodd" clip-rule="evenodd" fill="#E3E3E3" width="61.2" height="3.9"/>
		<path fill-rule="evenodd" clip-rule="evenodd" fill="#E3E3E3" d="M315.2,282.6c7,0,14,0,21,0c-1.1,0.6-2.1,1.3-3.2,1.9
			c-7.3,0-14.5,0-21.8,0C312.6,283.9,313.9,283.3,315.2,282.6z"/>
		<path fill-rule="evenodd" clip-rule="evenodd" fill="#E3E3E3" d="M353.8,282.6c7,0,14,0,21,0c-0.6,0.6-1.2,1.3-1.7,1.9
			c-7.3,0-14.6,0-21.8,0C352.1,283.9,352.9,283.3,353.8,282.6z"/>
		<path fill-rule="evenodd" clip-rule="evenodd" fill="#E3E3E3" d="M392.3,282.6c7,0,14,0,21.1,0c-0.1,0.6-0.2,1.3-0.3,1.9
			c-7.3,0-14.6,0-21.8,0C391.6,283.9,392,283.3,392.3,282.6z"/>
		<path fill-rule="evenodd" clip-rule="evenodd" fill="#E3E3E3" d="M430.9,282.6c7,0,14,0,21.1,0c0.4,0.6,0.8,1.3,1.1,1.9
			c-7.3,0-14.6,0-21.8,0C431.1,283.9,431,283.3,430.9,282.6z"/>
		<path fill-rule="evenodd" clip-rule="evenodd" fill="#E3E3E3" d="M469.5,282.6c7,0,14,0,21,0c0.9,0.6,1.7,1.3,2.6,1.9
			c-7.3,0-14.6,0-21.8,0C470.7,283.9,470.1,283.3,469.5,282.6z"/>
		<path fill-rule="evenodd" clip-rule="evenodd" fill="#E3E3E3" d="M508.1,282.6c7,0,14,0,21.1,0c1.3,0.6,2.7,1.3,4,1.9
			c-7.3,0-14.6,0-21.8,0C510.2,283.9,509.2,283.3,508.1,282.6z"/>
		<path fill-rule="evenodd" clip-rule="evenodd" fill="#E3E3E3" d="M349.4,286c7.4,0,14.9,0,22.4,0c-0.6,0.6-1.2,1.3-1.7,1.9
			c-7.7,0-15.5,0-23.2,0C347.7,287.3,348.6,286.6,349.4,286z"/>
		<path fill-rule="evenodd" clip-rule="evenodd" fill="#E3E3E3" d="M390.5,286c7.5,0,14.9,0,22.4,0c-0.1,0.6-0.2,1.3-0.3,1.9
			c-7.7,0-15.5,0-23.2,0C389.7,287.3,390.1,286.6,390.5,286z"/>
		<path fill-rule="evenodd" clip-rule="evenodd" fill="#E3E3E3" d="M431.5,286c7.5,0,14.9,0,22.4,0c0.4,0.6,0.7,1.3,1.1,1.9
			c-7.7,0-15.5,0-23.2,0C431.7,287.3,431.6,286.6,431.5,286z"/>
		<path fill-rule="evenodd" clip-rule="evenodd" fill="#E3E3E3" d="M472.6,286c7.4,0,14.9,0,22.4,0c0.8,0.6,1.7,1.3,2.5,1.9
			c-7.7,0-15.5,0-23.2,0C473.8,287.3,473.2,286.6,472.6,286z"/>
		<path fill-rule="evenodd" clip-rule="evenodd" fill="#E3E3E3" d="M513.6,286c7.5,0,14.9,0,22.4,0c1.3,0.6,2.7,1.3,4,1.9
			c-7.7,0-15.5,0-23.2,0C515.8,287.3,514.7,286.6,513.6,286z"/>
		<path fill-rule="evenodd" clip-rule="evenodd" fill="#E3E3E3" d="M345.1,289.3c7.9,0,15.8,0,23.7,0c-0.6,0.6-1.2,1.3-1.7,1.9
			c-8.2,0-16.4,0-24.5,0C343.4,290.6,344.2,290,345.1,289.3z"/>
		<path fill-rule="evenodd" clip-rule="evenodd" fill="#E3E3E3" d="M388.6,289.3c7.9,0,15.9,0,23.8,0c-0.1,0.6-0.2,1.3-0.3,1.9
			c-8.2,0-16.4,0-24.5,0C387.9,290.6,388.2,290,388.6,289.3z"/>
		<path fill-rule="evenodd" clip-rule="evenodd" fill="#E3E3E3" d="M432.1,289.3c7.9,0,15.9,0,23.8,0c0.3,0.6,0.7,1.3,1.1,1.9
			c-8.2,0-16.4,0-24.5,0C432.3,290.6,432.2,290,432.1,289.3z"/>
		<path fill-rule="evenodd" clip-rule="evenodd" fill="#E3E3E3" d="M475.6,289.3c7.9,0,15.8,0,23.7,0c0.8,0.6,1.7,1.3,2.5,1.9
			c-8.2,0-16.4,0-24.5,0C476.8,290.6,476.2,290,475.6,289.3z"/>
		<path fill-rule="evenodd" clip-rule="evenodd" fill="#E3E3E3" d="M519.1,289.3c7.9,0,15.8,0,23.8,0c1.3,0.6,2.7,1.3,4,1.9
			c-8.2,0-16.4,0-24.5,0C521.3,290.6,520.2,290,519.1,289.3z"/>
		<path fill-rule="evenodd" clip-rule="evenodd" fill="#E3E3E3" d="M294.8,292.6c42.5,0,85,0,127.4,0c42.5,0,85,0,127.5,0
			c1.3,0.6,2.7,1.3,4,1.9c-43.8,0-87.7,0-131.5,0c-43.8,0-87.6,0-131.4,0C292.2,293.9,293.5,293.3,294.8,292.6z"/>
		<g>
			
				<rect x="112.2" y="105.4" transform="matrix(-0.7882 -0.6155 0.6155 -0.7882 125.9738 350.178)" fill-rule="evenodd" clip-rule="evenodd" fill="#4D4D4D" width="22.1" height="96"/>
			
				<rect x="79.5" y="146.7" transform="matrix(0.6154 -0.7882 0.7882 0.6154 -73.519 156.1372)" fill-rule="evenodd" clip-rule="evenodd" fill="#4D4D4D" width="87.4" height="13.5"/>
			<path fill-rule="evenodd" clip-rule="evenodd" fill="#4D4D4D" d="M183,99.5c3.2,8.4,2,18.2-4,25.9c-9.1,11.6-25.9,13.7-37.5,4.6
				c-11.6-9.1-13.7-25.9-4.6-37.5c5.9-7.6,15.2-11.1,24.1-10.1l-9.3,11.9l-4.9,6.3l3,7.5l3,7.5l8,1.1l8,1.1l5-6.3L183,99.5z"/>
			<path fill-rule="evenodd" clip-rule="evenodd" fill="#4D4D4D" d="M85.5,224.4c8.9,1,18.2-2.5,24.1-10.1c9.1-11.6,7-28.4-4.6-37.5
				c-11.6-9.1-28.4-7-37.5,4.6c-5.9,7.6-7.1,17.4-4,25.9l9.3-11.9l5-6.3l8,1.1l8,1.1l3,7.5l3,7.5l-5,6.3L85.5,224.4z"/>
			<path fill-rule="evenodd" clip-rule="evenodd" fill="#4D4D4D" d="M94.9,219.4c4.4-1.3,8.4-4,11.3-7.7c7.6-9.8,5.9-23.9-3.9-31.5
				c-9.8-7.6-23.9-5.9-31.5,3.9c-2.9,3.8-4.5,8.3-4.7,12.9l9.8-12.5l20.9,2.9l7.9,19.5L94.9,219.4z"/>
			<path fill-rule="evenodd" clip-rule="evenodd" fill="#4D4D4D" d="M151.7,87.3c-4.4,1.3-8.4,4-11.3,7.7
				c-7.6,9.8-5.9,23.9,3.9,31.5c9.8,7.6,23.9,5.9,31.5-3.9c2.9-3.8,4.5-8.3,4.7-12.9l-9.8,12.5l-20.9-2.9L142,99.8L151.7,87.3z"/>
		</g>
		<g>
			<g>
				<polygon fill-rule="evenodd" clip-rule="evenodd" fill="#33517B" points="243.8,287.2 183.1,331.1 122.4,287.2 183.1,243.4 				
					"/>
				<rect x="138.9" y="251.1" fill-rule="evenodd" clip-rule="evenodd" fill="#FCFBF8" width="88.2" height="107.8"/>
				<g>
					<rect x="152.7" y="265.9" fill-rule="evenodd" clip-rule="evenodd" fill="#CBCBCB" width="25.2" height="5.1"/>
					<rect x="152.5" y="275.7" fill-rule="evenodd" clip-rule="evenodd" fill="#CBCBCB" width="61.2" height="5.1"/>
					<rect x="152.5" y="285.2" fill-rule="evenodd" clip-rule="evenodd" fill="#CBCBCB" width="61.2" height="5.1"/>
					<rect x="152.5" y="294.7" fill-rule="evenodd" clip-rule="evenodd" fill="#CBCBCB" width="61.2" height="5.1"/>
					<rect x="152.5" y="304.1" fill-rule="evenodd" clip-rule="evenodd" fill="#CBCBCB" width="61.2" height="5.1"/>
					<rect x="152.5" y="313.6" fill-rule="evenodd" clip-rule="evenodd" fill="#CBCBCB" width="61.2" height="5.1"/>
					<rect x="152.5" y="323.1" fill-rule="evenodd" clip-rule="evenodd" fill="#CBCBCB" width="61.2" height="5.1"/>
				</g>
				<polygon fill-rule="evenodd" clip-rule="evenodd" fill="#00265A" points="122.4,358.9 243.8,358.9 243.8,287.2 183.1,331.1 
					122.4,287.2 				"/>
				<polygon fill-rule="evenodd" clip-rule="evenodd" fill="#33517B" points="122.4,358.9 243.8,358.9 194.1,323.1 172,323.1 
					172,323.1 				"/>
			</g>
			<g>
				<circle fill="#FFFFFF" cx="122.6" cy="353.3" r="32.7"/>
				<g>
					<path fill="#F6921E" d="M138.9,363.2c1.6,1.6,1.6,4.3,0,5.9l0,0c-1.6,1.6-4.3,1.6-5.9,0l-25.7-25.7c-1.6-1.6-1.6-4.3,0-5.9l0,0
						c1.6-1.6,4.3-1.6,5.9,0L138.9,363.2z"/>
					<path fill="#F6921E" d="M132.9,337.5c1.6-1.6,4.3-1.6,5.9,0l0,0c1.6,1.6,1.6,4.3,0,5.9l-25.7,25.7c-1.6,1.6-4.3,1.6-5.9,0l0,0
						c-1.6-1.6-1.6-4.3,0-5.9L132.9,337.5z"/>
				</g>
			</g>
		</g>
		<g>
			<path fill="#E5E5E5" d="M761.1,155l-0.4,19.1l-0.3-0.5c0,0,14.3,5.3,13.5,6c-1.1,1.1-13.9-5.1-13.9-5.1l-0.3-0.1l0-0.4l-0.8-19
				L761.1,155z"/>
			<path fill="#E5E5E5" d="M761.3,151l-16.3,9.8l0.2-0.5c0,0,4.3,15.3,2.7,15.2c-1.3,0-3.7-15-3.7-15l-0.1-0.3l0.3-0.2l15.6-10.9
				L761.3,151z"/>
			<path fill="#E5E5E5" d="M768.2,140.8l13.6-13.4l0.3-0.3l0.3,0.1c0,0,14.7,5.2,14.1,6.4c-0.7,1.2-14.5-5.4-14.5-5.4l0.6-0.1
				l-12.7,14.2L768.2,140.8z"/>
			<path fill="#E5E5E5" d="M771.7,140.1l18.6,4.3l0.4,0.1l0,0.3c0,0,4,15,2.2,15.3c-1,0.2-3.2-15.1-3.2-15.1l0.4,0.4l-18.8-3.1
				L771.7,140.1z"/>
			<path fill="#E5E5E5" d="M754.6,149.9l-18.6-4.3l-0.4-0.1l0-0.3c0,0-3.3-14.7-2.2-15.3c1.3-0.7,3.2,15.1,3.2,15.1l-0.4-0.4
				l18.8,3.1L754.6,149.9z"/>
			<path fill="#E5E5E5" d="M766.6,136.6l0.4-19.1l0.3,0.5c0,0-14.2-4.4-14.3-5.9c-0.1-1.6,14.6,4.9,14.6,4.9l0.3,0.1l0,0.4l0.8,19
				L766.6,136.6z"/>
			<polyline fill="#E5E5E5" points="774.4,154.9 783.3,157.6 787.6,162.8 			"/>
			<polyline fill="#E5E5E5" points="770.6,158.1 771.7,167.3 776,172.5 			"/>
			
				<ellipse transform="matrix(-0.769 0.6392 -0.6392 -0.769 1446.4093 -229.2532)" fill="#E5E5E5" cx="764.6" cy="146.7" rx="12.4" ry="17.4"/>
			<path fill="#E5E5E5" d="M761.1,159.7c5.2,3.1,11,3.4,14.7,0.3c3.7-3.1,4.4-8.8,2.3-14.5L761.1,159.7z"/>
			<path opacity="0.43" fill="#E5E5E5" d="M776.2,159.6c4.7-4.5,3.9-13.7-2.1-20.9c-6-7.2-14.8-9.7-20.1-5.8L776.2,159.6z"/>
		</g>
		<g>
			<path fill="#E5E5E5" d="M800.4,86l-0.2,8.1l-0.1-0.2c0,0,6.1,2.2,5.7,2.6c-0.5,0.5-5.9-2.2-5.9-2.2l-0.1,0l0-0.2l-0.3-8.1
				L800.4,86z"/>
			<path fill="#E5E5E5" d="M800.4,84.2l-6.9,4.2l0.1-0.2c0,0,1.8,6.5,1.1,6.5c-0.6,0-1.6-6.4-1.6-6.4l0-0.1l0.1-0.1l6.7-4.6
				L800.4,84.2z"/>
			<path fill="#E5E5E5" d="M803.4,79.9l5.8-5.7l0.1-0.1l0.1,0.1c0,0,6.3,2.2,6,2.7c-0.3,0.5-6.2-2.3-6.2-2.3l0.2-0.1l-5.4,6.1
				L803.4,79.9z"/>
			<path fill="#E5E5E5" d="M804.9,79.6l7.9,1.8l0.1,0l0,0.1c0,0,1.7,6.4,0.9,6.5c-0.4,0.1-1.3-6.4-1.3-6.4l0.2,0.2l-8-1.3
				L804.9,79.6z"/>
			<path fill="#E5E5E5" d="M797.6,83.8l-7.9-1.8l-0.1,0l0-0.1c0,0-1.4-6.3-0.9-6.5c0.5-0.3,1.3,6.4,1.3,6.4l-0.2-0.2l8,1.3
				L797.6,83.8z"/>
			<path fill="#E5E5E5" d="M802.7,78.1l0.2-8.1l0.1,0.2c0,0-6-1.9-6.1-2.5c0-0.7,6.2,2.1,6.2,2.1l0.1,0l0,0.2l0.3,8.1L802.7,78.1z"
				/>
			<polyline fill="#E5E5E5" points="806.1,85.9 809.8,87.1 811.6,89.3 			"/>
			<polyline fill="#E5E5E5" points="804.4,87.3 804.9,91.2 806.7,93.4 			"/>
			
				<ellipse transform="matrix(-0.769 0.6392 -0.6392 -0.769 1471.2218 -366.7923)" fill="#E5E5E5" cx="801.9" cy="82.4" rx="5.3" ry="7.4"/>
			<path fill="#E5E5E5" d="M800.4,88c2.2,1.3,4.7,1.5,6.2,0.1c1.6-1.3,1.9-3.7,1-6.2L800.4,88z"/>
			<path opacity="0.43" fill="#E5E5E5" d="M806.8,87.9c2-1.9,1.7-5.8-0.9-8.9c-2.5-3-6.3-4.1-8.6-2.5L806.8,87.9z"/>
		</g>
	</g>
	<g>
		<path fill="#FFFFFF" d="M509.9,348.9c0,0,19,36.2,49.7,0C559.7,348.9,533.4,313.5,509.9,348.9z"/>
		<path fill="#3F3844" d="M533,330.6c-12.8,0-23.9,7.5-29.4,18.4c5.5,10.9,16.6,18.4,29.4,18.4c12.8,0,23.9-7.5,29.4-18.4
			C556.9,338,545.8,330.6,533,330.6z M547.5,340.3c3.5,2.2,6.4,5.2,8.6,8.6c-2.2,3.5-5.1,6.4-8.6,8.6c-4.3,2.8-9.3,4.2-14.5,4.2
			c-5.1,0-10.1-1.5-14.5-4.2c-3.5-2.2-6.4-5.2-8.6-8.6c2.2-3.5,5.1-6.4,8.6-8.6c0.2-0.1,0.5-0.3,0.7-0.4c-0.6,1.6-0.9,3.3-0.9,5
			c0,8.1,6.6,14.7,14.7,14.7s14.7-6.6,14.7-14.7c0-1.8-0.3-3.5-0.9-5C547,340,547.3,340.1,547.5,340.3z M533,343.1
			c0,3-2.5,5.5-5.5,5.5c-3,0-5.5-2.5-5.5-5.5c0-3,2.5-5.5,5.5-5.5C530.5,337.6,533,340,533,343.1z"/>
	</g>
</g>
<g id="XMLID_54_">
</g>
<g id="XMLID_55_">
</g>
<g id="XMLID_56_">
</g>
<g id="XMLID_58_">
</g>
<g id="XMLID_59_">
</g>
<g id="XMLID_60_">
</g>
<g id="XMLID_61_">
</g>
<g id="XMLID_62_">
</g>
<g id="XMLID_63_">
</g>
<g id="XMLID_64_">
</g>
<g id="XMLID_65_">
</g>
<g id="XMLID_66_">
</g>
<g id="XMLID_76_">
</g>
<g id="XMLID_77_">
</g>
<g id="XMLID_78_">
</g>
</svg>
