<?xml version="1.0" encoding="utf-8"?>
<!-- Generator: Adobe Illustrator 19.0.0, SVG Export Plug-In . SVG Version: 6.00 Build 0)  -->
<svg version="1.1" id="Capa_1" xmlns="http://www.w3.org/2000/svg" xmlns:xlink="http://www.w3.org/1999/xlink" x="0px" y="0px"
	 viewBox="0 0 70 70" enable-background="new 0 0 70 70" xml:space="preserve">
<g>
	<g>
		<path fill="#FAAF3B" d="M35,0c19.3,0,35,15.7,35,35S54.3,70,35,70S0,54.3,0,35S15.7,0,35,0L35,0z"/>
		<path fill="#A9CDDD" d="M45.8,24.4v-7.5H24.2v7.5c0,4.9,3.1,9.1,7.4,10.6c-4.3,1.5-7.4,5.7-7.4,10.6v7.5h21.7v-7.5
			c0-4.9-3.1-9.1-7.4-10.6C42.8,33.5,45.8,29.3,45.8,24.4L45.8,24.4z"/>
		<path fill="#8FBFD1" d="M45.8,24.4v-7.5H35.1v36.1h10.8v-7.5c0-4.9-3.1-9.1-7.4-10.6C42.8,33.5,45.8,29.3,45.8,24.4L45.8,24.4z"/>
		<polygon fill="#F4E9B5" points="26.7,53.1 43.3,53.1 36.3,43.8 36.3,35.1 42.1,29.3 28.9,29.3 34,35.1 34,43.8 26.7,53.1 		"/>
		<polygon fill="#EDDD8C" points="36.3,43.8 36.3,35.1 42.1,29.3 35.1,29.3 35.1,53.1 43.3,53.1 36.3,43.8 		"/>
		<path fill="#00265A" d="M46.4,17.9H23.6c-1.3,0-2.3-1-2.3-2.3l0,0c0-1.3,1-2.3,2.3-2.3h22.8c1.3,0,2.3,1,2.3,2.3l0,0
			C48.7,16.9,47.7,17.9,46.4,17.9L46.4,17.9z"/>
		<path fill="#00265A" d="M46.4,56.7H23.6c-1.3,0-2.3-1-2.3-2.3l0,0c0-1.3,1-2.3,2.3-2.3h22.8c1.3,0,2.3,1,2.3,2.3l0,0
			C48.7,55.7,47.7,56.7,46.4,56.7L46.4,56.7z"/>
	</g>
	<g>
		<g>
			<path fill="#3FA8F4" d="M70,55c0,8.3-6.7,15-15,15c-8.3,0-15-6.7-15-15c0-8.3,6.7-15,15-15C63.3,40,70,46.7,70,55L70,55z M70,55"
				/>
		</g>
		<path fill="#FFFFFF" d="M62.5,53.8h-6.3v-6.3c0-0.7-0.6-1.3-1.3-1.3c-0.7,0-1.2,0.6-1.2,1.3v6.3h-6.3c-0.7,0-1.3,0.6-1.3,1.3
			c0,0.7,0.6,1.2,1.3,1.2h6.3v6.3c0,0.7,0.6,1.3,1.2,1.3c0.7,0,1.3-0.6,1.3-1.3v-6.3h6.3c0.7,0,1.3-0.6,1.3-1.2
			C63.7,54.3,63.2,53.8,62.5,53.8L62.5,53.8z M62.5,53.8"/>
	</g>
</g>
</svg>
