<?xml version="1.0" encoding="utf-8"?>
<!-- Generator: Adobe Illustrator 19.0.0, SVG Export Plug-In . SVG Version: 6.00 Build 0)  -->
<svg version="1.1" id="Capa_1" xmlns="http://www.w3.org/2000/svg" xmlns:xlink="http://www.w3.org/1999/xlink" x="0px" y="0px"
	 viewBox="0 0 694.5 490" enable-background="new 0 0 694.5 490" xml:space="preserve">
<g>
	
		<line id="XMLID_346_" fill="none" stroke="#757081" stroke-width="6.2333" stroke-miterlimit="10" x1="0" y1="475.9" x2="694.5" y2="475.9"/>
	<polyline id="XMLID_345_" fill="#26294C" points="100.5,243.6 159.4,243.6 159.4,117 100.5,117 100.5,243.6 	"/>
	<path id="XMLID_344_" fill="#787482" d="M35.1,199.2h188.8V77.3c0-4.3-3.5-7.7-7.7-7.7H42.8c-4.3,0-7.7,3.5-7.7,7.7V199.2"/>
	<path id="XMLID_343_" fill="#787482" d="M53.2,218.1h156.1c9,0,16.3-7.3,16.3-16.3v-6.2H36.9v6.2C36.9,210.8,44.2,218.1,53.2,218.1
		"/>
	<path id="XMLID_342_" fill="#36333D" d="M230.5,77.2v121.9l-46.3-0.7l-48.5-0.8l-15.3-0.2l-49-0.8l-29.7-0.5V77.2
		c0-4.3,3.5-7.7,7.7-7.7h173.4C227.1,69.5,230.5,73,230.5,77.2"/>
	<path id="XMLID_341_" fill="#FFFFFF" d="M48.8,80.7v107.6c0,0.4,0.3,0.7,0.7,0.7h173.3c0.4,0,0.7-0.3,0.7-0.7V80.7
		c0-0.4-0.3-0.7-0.7-0.7H49.5C49.1,80,48.8,80.3,48.8,80.7"/>
	<path id="XMLID_340_" fill="#A7A3B3" d="M58.1,218.1h156.1c9,0,16.3-7.3,16.3-16.3v-6.2H41.7v6.2C41.7,210.8,49,218.1,58.1,218.1"
		/>
	<path id="XMLID_339_" fill="#A7A3B3" d="M99,244.1H178c2.4,0,4.4-2,4.4-4.4c0-2.4-2-4.4-4.4-4.4H99c-2.4,0-4.4,2-4.4,4.4
		C94.7,242.1,96.6,244.1,99,244.1L99,244.1z"/>
	<path id="XMLID_338_" fill="#7B8AC1" d="M215.2,98.9H60c-1.3,0-2.3-1-2.3-2.3v-9.1c0-1.3,1-2.3,2.3-2.3h155.2c1.3,0,2.3,1,2.3,2.3
		v9.1C217.5,97.9,216.5,98.9,215.2,98.9"/>
	<path id="XMLID_337_" fill="#C64A3C" d="M69.8,91.8c0,1.7-1.3,3-2.9,3c-1.6,0-2.9-1.3-2.9-3c0-1.7,1.3-3,2.9-3
		C68.4,88.8,69.8,90.2,69.8,91.8L69.8,91.8z"/>
	<path id="XMLID_336_" fill="#EEC547" d="M80.4,91.8c0,1.7-1.3,3-2.9,3c-1.6,0-2.9-1.3-2.9-3c0-1.7,1.3-3,2.9-3
		C79.1,88.8,80.4,90.2,80.4,91.8L80.4,91.8z"/>
	<path id="XMLID_335_" fill="#B1C634" d="M91.1,91.8c0,1.7-1.3,3-2.9,3c-1.6,0-2.9-1.3-2.9-3c0-1.7,1.3-3,2.9-3
		C89.8,88.8,91.1,90.2,91.1,91.8L91.1,91.8z"/>
	<path id="XMLID_334_" fill="#383A67" d="M110.5,123H58.6c-0.8,0-1.4-0.6-1.4-1.4v-15.8c0-0.8,0.6-1.4,1.4-1.4h51.9
		c0.8,0,1.4,0.6,1.4,1.4v15.8C111.9,122.4,111.3,123,110.5,123"/>
	<path id="XMLID_333_" fill="#768B6C" d="M174.2,146.5h-51.9c-0.8,0-1.4-0.6-1.4-1.4v-15.8c0-0.8,0.6-1.4,1.4-1.4h51.9
		c0.8,0,1.4,0.6,1.4,1.4v15.8C175.6,145.9,175,146.5,174.2,146.5"/>
	<path id="XMLID_332_" fill="#768B6C" d="M216.1,123h-31.4c-0.8,0-1.4-0.6-1.4-1.4v-15.8c0-0.8,0.6-1.4,1.4-1.4h31.4
		c0.8,0,1.4,0.6,1.4,1.4v15.8C217.5,122.4,216.9,123,216.1,123L216.1,123z"/>
	<path id="XMLID_331_" fill="#C64A3C" d="M216.1,146.9h-31.4c-0.8,0-1.4-0.6-1.4-1.4v-15.8c0-0.8,0.6-1.4,1.4-1.4h31.4
		c0.8,0,1.4,0.6,1.4,1.4v15.8C217.5,146.3,216.9,146.9,216.1,146.9L216.1,146.9z"/>
	<polyline id="XMLID_330_" fill="#26294C" points="176,120.6 121.3,120.6 121.3,119.3 176,119.3 176,120.6 	"/>
	<polyline id="XMLID_329_" fill="#26294C" points="176,115.9 121.3,115.9 121.3,114.5 176,114.5 176,115.9 	"/>
	<polyline id="XMLID_328_" fill="#26294C" points="176,111.1 121.3,111.1 121.3,109.8 176,109.8 176,111.1 	"/>
	<polyline id="XMLID_327_" fill="#26294C" points="176,106.4 121.3,106.4 121.3,105 176,105 176,106.4 	"/>
	<path id="XMLID_326_" fill="#C64A3C" d="M110.5,169.7H58.6c-0.8,0-1.4-0.6-1.4-1.4v-15.8c0-0.8,0.6-1.4,1.4-1.4h51.9
		c0.8,0,1.4,0.6,1.4,1.4v15.8C111.9,169.1,111.3,169.7,110.5,169.7"/>
	<polyline id="XMLID_325_" fill="#26294C" points="176,167.3 121.3,167.3 121.3,166 176,166 176,167.3 	"/>
	<polyline id="XMLID_324_" fill="#26294C" points="176,162.6 121.3,162.6 121.3,161.3 176,161.3 176,162.6 	"/>
	<polyline id="XMLID_323_" fill="#26294C" points="176,157.8 121.3,157.8 121.3,156.5 176,156.5 176,157.8 	"/>
	<polyline id="XMLID_322_" fill="#26294C" points="176,153.1 121.3,153.1 121.3,151.7 176,151.7 176,153.1 	"/>
	<polyline id="XMLID_321_" fill="#26294C" points="111.7,143.4 57,143.4 57,142.1 111.7,142.1 111.7,143.4 	"/>
	<polyline id="XMLID_320_" fill="#26294C" points="111.7,138.7 57,138.7 57,137.3 111.7,137.3 111.7,138.7 	"/>
	<polyline id="XMLID_319_" fill="#26294C" points="111.7,133.9 57,133.9 57,132.6 111.7,132.6 111.7,133.9 	"/>
	<polyline id="XMLID_318_" fill="#26294C" points="111.7,129.2 57,129.2 57,127.8 111.7,127.8 111.7,129.2 	"/>
	<path fill="#403D54" d="M135.8,195.5H71.5l3-6.6h64.4L135.8,195.5 M173.7,80h-49.1l4.8-10.5h38.7C169.7,73.5,171.7,77,173.7,80"/>
	<path fill="#FFFFFF" d="M138.8,189H74.5l8.9-19.2h27.2c0.8,0,1.4-0.6,1.4-1.4v-15.8c0-0.8-0.6-1.4-1.4-1.4H91.9l3.5-7.7h16.3v-1.3
		H96l1.6-3.4h14.1v-1.3H98.2l1.6-3.4h11.9v-1.3h-11.3l1.6-3.4h9.7v-1.3h-9.1l2.2-4.8h5.7c0.8,0,1.4-0.6,1.4-1.4v-14l4-8.6h64.7
		l-5,10.9h-54.2v1.3h53.6l-1.6,3.4h-52v1.3h51.4l-1.6,3.4h-49.8v1.3h49.2l-3.4,7.3h-44.8c-0.8,0-1.4,0.6-1.4,1.4v15.8
		c0,0.8,0.6,1.4,1.4,1.4h36.2l-2.4,5.2h-34.8v1.3h34.2l-1.6,3.4h-32.6v1.3h32l-1.6,3.4h-30.4v1.3h29.8l-1.6,3.4h-28.2v1.3h27.5
		L138.8,189 M121.3,105v1.3H176V105H121.3 M177.7,85.2h-55.5l2.4-5.2h49.1C175,81.9,176.4,83.6,177.7,85.2"/>
	<polyline id="XMLID_312_" fill="#C6C4DA" points="135.7,195.7 71.4,195.7 71.5,195.5 135.8,195.5 135.7,195.7 	"/>
	<path id="XMLID_311_" fill="#A3B3DC" d="M180.6,98.9h-64.7l6.3-13.7h55.5c2.3,2.7,4.6,4.8,6.4,6.2L180.6,98.9"/>
	<path id="XMLID_310_" fill="#454893" d="M110.5,123h-5.7l7.1-15.5v14C111.9,122.4,111.3,123,110.5,123"/>
	<path id="XMLID_309_" fill="#99B3A3" d="M158.5,146.5h-36.2c-0.8,0-1.4-0.6-1.4-1.4v-15.8c0-0.8,0.6-1.4,1.4-1.4h44.8L158.5,146.5"
		/>
	<polyline id="XMLID_308_" fill="#2D3167" points="170.5,120.6 121.3,120.6 121.3,119.3 171.1,119.3 170.5,120.6 	"/>
	<polyline id="XMLID_307_" fill="#2D3167" points="172.7,115.9 121.3,115.9 121.3,114.5 173.3,114.5 172.7,115.9 	"/>
	<polyline id="XMLID_306_" fill="#2D3167" points="174.9,111.1 121.3,111.1 121.3,109.8 175.5,109.8 174.9,111.1 	"/>
	<polyline id="XMLID_305_" fill="#2D3167" points="176,106.4 121.3,106.4 121.3,105 176,105 176,106.4 	"/>
	<path id="XMLID_304_" fill="#CF685F" d="M110.5,169.7H83.3l8.6-18.6h18.6c0.8,0,1.4,0.6,1.4,1.4v15.8
		C111.9,169.1,111.3,169.7,110.5,169.7"/>
	<polyline id="XMLID_303_" fill="#2D3167" points="148.9,167.3 121.3,167.3 121.3,166 149.5,166 148.9,167.3 	"/>
	<polyline id="XMLID_302_" fill="#2D3167" points="151.1,162.6 121.3,162.6 121.3,161.3 151.7,161.3 151.1,162.6 	"/>
	<polyline id="XMLID_301_" fill="#2D3167" points="153.3,157.8 121.3,157.8 121.3,156.5 153.9,156.5 153.3,157.8 	"/>
	<polyline id="XMLID_300_" fill="#2D3167" points="155.5,153.1 121.3,153.1 121.3,151.7 156.1,151.7 155.5,153.1 	"/>
	<polyline id="XMLID_299_" fill="#2D3167" points="111.7,143.4 95.4,143.4 96,142.1 111.7,142.1 111.7,143.4 	"/>
	<polyline id="XMLID_298_" fill="#2D3167" points="111.7,138.7 97.6,138.7 98.2,137.3 111.7,137.3 111.7,138.7 	"/>
	<polyline id="XMLID_297_" fill="#2D3167" points="111.7,133.9 99.8,133.9 100.4,132.6 111.7,132.6 111.7,133.9 	"/>
	<polyline id="XMLID_296_" fill="#2D3167" points="111.7,129.2 102,129.2 102.6,127.8 111.7,127.8 111.7,129.2 	"/>
	<path id="XMLID_295_" fill="#774E3A" d="M236.6,6.7l12.1,7.5c8.8,5.4,11.9,16.7,7.2,25.8c-0.9,1.8-1.5,3-1.4,2.9
		c0.5-0.5-18.5-36-18.5-36"/>
	<path id="XMLID_294_" fill="#E9BEAA" d="M205.1,122.3h-6.3c-5.7,0-10.4-4.7-10.4-10.4V82.5c0-5.7,4.7-10.4,10.4-10.4h6.3
		c5.7,0,10.4,4.7,10.4,10.4v29.4C215.6,117.6,210.9,122.3,205.1,122.3"/>
	<path id="XMLID_293_" fill="#774E3A" d="M254.3,42.9c0.3,2.4-10.8,6.4-10.9,8.9l1.8,5c-13.6-4.9-1.6,2.6-1.6,2.6
		c-4,12-2.6,18.6-14.2,23.2c-5.8,2.3-12.1,3.3-18.7,2.9c-3.2-0.2-6.4,0-9.3,0.2c-5.1,0.4-9.7,0.8-13.8-1.1c-1.3-0.6-2.6-1.5-3.8-2.7
		c-2.3-2.3-4.3-4.7-6-7.4c-0.7-1.1-1.3-2.1-1.9-3.2c-3.5-6.7-10.6-26.5-10-34.6c1.6-22.9,23.5-38.2,48.8-36.5c0.7,0,1.3,0.1,1.9,0.1
		c13.6,1,25.3,8.2,32.4,18.7c0.4,0.6,0.7,1.1,1.1,1.7v0c2,3.3,3.2,17.6,3.2,17.6C253.8,39.8,254.1,41.3,254.3,42.9"/>
	<path id="XMLID_292_" fill="#EDCBB7" d="M253.3,50.2l-0.3,6.3l-0.5,10.4l-0.8,3.7c-0.1,1.6-0.9,10.3-1.2,11.8
		c-2.9,14.7-12.6,17.9-27.6,19.7c-0.4,0.1-0.9,0.1-1.4,0.1c-1.6,0.2-3.2,0.2-4.9,0.1c-1.6-0.1-3.2-0.3-4.7-0.6
		c-3-0.5-5.9-1.5-8.6-2.8l0,0c-6.6-3.1-12.1-8.3-15.6-14.5c-2.7-4.8-4.3-10.2-4.5-15.9c0-0.4,0-0.8,0-1.2c0-0.4,0-0.9,0-1.4v-0.2
		l0-1.1l0.2-3l0.5-10.2l0-0.1v0l0.1-1.9L184,48l0.1-1.4l0-0.4c0.1-2.4,0.6-4.6,1.3-6.8c0.4-1.5,1-3,1.7-4.5c0.1-0.2,0.2-0.4,0.3-0.7
		c0.5-1.2,1.1-2.3,1.8-3.4v0c2.5-4.2,5.9-7.9,10-10.7c0.8-0.6,1.6-1.1,2.5-1.6c5.9-3.4,12.7-5.3,20-4.9c6,0.3,10.5,2.1,15.4,5.1
		c2.9,1.8,5.6,4,7.9,6.5c3.3,3.5,5.4,7.7,7,12.3c0.1,0.3,0.2,0.5,0.2,0.8c0.5,1.5,0.8,3.1,1,4.6C253.4,45.3,253.4,47.7,253.3,50.2"
		/>
	<path id="XMLID_291_" fill="#774E3A" d="M240.6,19.1c7.4,20.3-12,18.7-12.9,28c-0.1,1-0.5,2.6-0.8,10.2l-1.5,4.8
		c-0.4,1.5-1.8,2.5-3.4,2.5c-1.9,0-3.5-1.6-3.5-3.5V61l0.2-7.6l-3.8,10c-2.7,7.2-6.9,13.8-12.1,19.3c-4.3,4.6-9.4,8.4-15.1,11.4
		c0,0-23.7-14.1-23.7-46.2c0-2.6,0.1-5.2,0.5-8c0.3-2.5,0.7-4.8,1.3-7c9.8-39.9,58.9-26.3,63.6-24.5
		C234.4,10.2,240.6,19.1,240.6,19.1"/>
	<path id="XMLID_290_" fill="#EDCBB7" d="M257.4,71.7l0,0.5c-0.1,2.2-2,3.9-6.7,3.8l0.7-17.1C255.2,64.8,257.1,68.1,257.4,71.7
		L257.4,71.7z"/>
	<path id="XMLID_289_" fill="#774E3A" d="M254.9,51h-10.5c-1.2,0-2.2-1-2.2-2.2c0-1.2,1-2.2,2.2-2.2h10.5c1.2,0,2.2,1,2.2,2.2
		C257.1,50,256.1,51,254.9,51L254.9,51z"/>
	<path id="XMLID_288_" fill="#232242" d="M249,58.9L249,58.9c-0.9,0-1.6-0.7-1.6-1.6V55c0-0.9,0.7-1.6,1.6-1.6
		c0.9,0,1.6,0.7,1.6,1.6v2.3C250.6,58.2,249.8,58.9,249,58.9L249,58.9z"/>
	<path id="XMLID_287_" fill="#64453E" d="M187.8,94.1c0,0-1.5-0.9-3.7-2.7c-1.8-1.5-4-3.5-6.4-6.2c-6.4-7.4-13.6-19.6-13.6-37.3
		c0-2.6,0.1-5.2,0.5-8c0.3-2.5,0.7-4.8,1.3-7c1,6.1,3.8,15.4,10.8,26.8c10.7,17.4,22.3,21.9,26.2,23c-3.1,3.2-6.5,6.1-10.3,8.6
		c-1.3,0.9-2.7,1.7-4.1,2.4C188.2,93.8,188,94,187.8,94.1"/>
	<path id="XMLID_286_" fill="#774E3A" d="M250.7,81.4l-0.3,12c0,10.2-12.1,14.3-21.1,13.4l-14.3-1.5l1.4-12.4l3.9-23.8l-6.3-17.7
		l13,5.4l0,0c-1,14.1,9.1,25.5,23.2,24.8L250.7,81.4L250.7,81.4z"/>
	<path id="XMLID_285_" fill="#E9BEAA" d="M217.7,50.8c1.4,0,2.6,1.2,2.6,2.6l-0.1,8.9l-0.1,7.8l-3.1,0c-0.2,0-0.4,0-0.7,0
		c-5.1-0.4-9.2-4.9-9.1-10c0-2.7,1.1-4.9,2.9-6.7c1.6-1.6,3.8-2.5,6.2-2.6l0,0c0.3,0,0.5-0.1,0.8,0L217.7,50.8L217.7,50.8z"/>
	<polygon id="XMLID_284_" fill="#232242" points="125.6,327.1 208.1,327.1 208.1,311.9 125.6,311.9 125.6,327.1 	"/>
	<line id="XMLID_283_" fill="#383A67" x1="97.5" y1="453.8" x2="97.5" y2="459.6"/>
	<polygon id="XMLID_282_" fill="#757081" points="440.9,328.4 516.5,328.4 516.5,313.2 440.9,313.2 440.9,328.4 	"/>
	<polygon id="XMLID_281_" fill="#757081" points="521.5,475.6 504.3,475.6 504.3,261.5 521.5,261.5 521.5,475.6 	"/>
	<polygon id="XMLID_280_" fill="#B8B4C6" points="452.5,475.6 435.3,475.6 435.3,260.2 452.5,260.2 452.5,475.6 	"/>
	<polygon id="XMLID_279_" fill="#757081" points="452.5,343.5 435.3,343.5 435.3,251.5 452.5,251.5 452.5,343.5 	"/>
	<polygon id="XMLID_278_" fill="#757081" points="28.9,328.4 104.5,328.4 104.5,313.2 28.9,313.2 28.9,328.4 	"/>
	<polygon id="XMLID_277_" fill="#757081" points="109.5,475.6 92.3,475.6 92.3,261.5 109.5,261.5 109.5,475.6 	"/>
	<polygon id="XMLID_276_" fill="#757081" points="40.5,475.6 23.3,475.6 23.3,260.2 40.5,260.2 40.5,475.6 	"/>
	<polyline id="XMLID_275_" fill="#5B5768" points="397.9,239.6 341.2,239.6 341.2,117.7 397.9,117.7 397.9,239.6 	"/>
	<path id="XMLID_274_" fill="#E3E3E3" d="M458.2,199.6H271.8V85.8c0-4.1,3.3-7.4,7.4-7.4h171.5c4.1,0,7.4,3.3,7.4,7.4V199.6"/>
	<path id="XMLID_273_" fill="#E3E3E3" d="M440.7,217.8H285.7c-8.7,0-15.7-7-15.7-15.7v-6h186.3v6
		C456.4,210.8,449.3,217.8,440.7,217.8"/>
	<path id="XMLID_272_" fill="#7B7884" d="M451.8,85.7v113.8H265.4V85.7c0-4.1,3.3-7.4,7.4-7.4h171.5
		C448.4,78.3,451.8,81.6,451.8,85.7"/>
	<path id="XMLID_271_" fill="#2B3360" d="M445,85.5v103.6c0,0.4-0.3,0.7-0.7,0.7H272.8c-0.4,0-0.7-0.3-0.7-0.7V85.5
		c0-0.4,0.3-0.7,0.7-0.7h171.4C444.7,84.8,445,85.1,445,85.5"/>
	<path id="XMLID_270_" fill="#B3AFC9" d="M451.7,196.1v6c0,6.3-3.7,11.7-9.1,14.2c-2,0.9-4.3,1.5-6.6,1.5H281.1
		c-8.7,0-15.7-7-15.7-15.7v-6H451.7"/>
	<polygon id="XMLID_269_" fill="#7B8AC1" points="340.1,99.6 282.2,99.6 282.2,97.6 340.1,97.6 340.1,99.6 	"/>
	<polyline id="XMLID_268_" fill="#E3E3E3" points="392.6,99.6 365.2,99.6 365.2,97.6 392.6,97.6 392.6,99.6 	"/>
	<polyline id="XMLID_267_" fill="#EEC547" points="432.2,99.6 404.8,99.6 404.8,97.6 432.2,97.6 432.2,99.6 	"/>
	<polyline id="XMLID_266_" fill="#7B8AC1" points="401.5,99.6 395,99.6 395,97.6 401.5,97.6 401.5,99.6 	"/>
	<polyline id="XMLID_265_" fill="#C64A3C" points="362,99.6 342.8,99.6 342.8,97.6 362,97.6 362,99.6 	"/>
	<polyline id="XMLID_264_" fill="#7B8AC1" points="340.1,150.9 282.2,150.9 282.2,148.9 340.1,148.9 340.1,150.9 	"/>
	<polyline id="XMLID_263_" fill="#E3E3E3" points="392.6,150.9 365.2,150.9 365.2,148.9 392.6,148.9 392.6,150.9 	"/>
	<polygon id="XMLID_262_" fill="#EEC547" points="432.2,150.9 404.8,150.9 404.8,148.9 432.2,148.9 432.2,150.9 	"/>
	<polygon id="XMLID_261_" fill="#7B8AC1" points="401.5,150.9 395,150.9 395,148.9 401.5,148.9 401.5,150.9 	"/>
	<polyline id="XMLID_260_" fill="#A7A3B3" points="362,150.9 342.8,150.9 342.8,148.9 362,148.9 362,150.9 	"/>
	<polyline id="XMLID_259_" fill="#7B8AC1" points="374.3,133.8 432.2,133.8 432.2,131.8 374.3,131.8 374.3,133.8 	"/>
	<polyline id="XMLID_258_" fill="#E3E3E3" points="321.7,133.8 349.2,133.8 349.2,131.8 321.7,131.8 321.7,133.8 	"/>
	<polygon id="XMLID_257_" fill="#EEC547" points="282.2,133.8 309.6,133.8 309.6,131.8 282.2,131.8 282.2,133.8 	"/>
	<polygon id="XMLID_256_" fill="#7B8AC1" points="312.8,133.8 319.3,133.8 319.3,131.8 312.8,131.8 312.8,133.8 	"/>
	<polyline id="XMLID_255_" fill="#A7A3B3" points="352.3,133.8 371.6,133.8 371.6,131.8 352.3,131.8 352.3,133.8 	"/>
	<polygon id="XMLID_254_" fill="#C64A3C" points="303.9,108.2 282.2,108.2 282.2,106.2 303.9,106.2 303.9,108.2 	"/>
	<polyline id="XMLID_253_" fill="#7B8AC1" points="356.4,108.2 347.1,108.2 347.1,106.2 356.4,106.2 356.4,108.2 	"/>
	<polyline id="XMLID_252_" fill="#E3E3E3" points="432.2,108.2 386.7,108.2 386.7,106.2 432.2,106.2 432.2,108.2 	"/>
	<polyline id="XMLID_251_" fill="#7B8AC1" points="383.4,108.2 358.8,108.2 358.8,106.2 383.4,106.2 383.4,108.2 	"/>
	<polygon id="XMLID_250_" fill="#7B8AC1" points="343.9,108.2 306.6,108.2 306.6,106.2 343.9,106.2 343.9,108.2 	"/>
	<polygon id="XMLID_249_" fill="#7B8AC1" points="303.9,159.5 282.2,159.5 282.2,157.5 303.9,157.5 303.9,159.5 	"/>
	<polyline id="XMLID_248_" fill="#7B8AC1" points="356.4,159.5 347.1,159.5 347.1,157.5 356.4,157.5 356.4,159.5 	"/>
	<polygon id="XMLID_247_" fill="#7B8AC1" points="432.2,159.5 386.7,159.5 386.7,157.5 432.2,157.5 432.2,159.5 	"/>
	<polyline id="XMLID_246_" fill="#7B8AC1" points="383.4,159.5 358.8,159.5 358.8,157.5 383.4,157.5 383.4,159.5 	"/>
	<polyline id="XMLID_245_" fill="#7B8AC1" points="343.9,159.5 306.6,159.5 306.6,157.5 343.9,157.5 343.9,159.5 	"/>
	<polygon id="XMLID_244_" fill="#C64A3C" points="303.9,142.4 282.2,142.4 282.2,140.4 303.9,140.4 303.9,142.4 	"/>
	<polyline id="XMLID_243_" fill="#7B8AC1" points="356.4,142.4 347.1,142.4 347.1,140.4 356.4,140.4 356.4,142.4 	"/>
	<polygon id="XMLID_242_" fill="#E3E3E3" points="432.2,142.4 386.7,142.4 386.7,140.4 432.2,140.4 432.2,142.4 	"/>
	<polyline id="XMLID_241_" fill="#7B8AC1" points="383.4,142.4 358.8,142.4 358.8,140.4 383.4,140.4 383.4,142.4 	"/>
	<polyline id="XMLID_240_" fill="#7B8AC1" points="343.9,142.4 306.6,142.4 306.6,140.4 343.9,140.4 343.9,142.4 	"/>
	<polygon id="XMLID_239_" fill="#E3E3E3" points="303.9,116.7 282.2,116.7 282.2,114.7 303.9,114.7 303.9,116.7 	"/>
	<polyline id="XMLID_238_" fill="#7B8AC1" points="343.9,116.7 306.6,116.7 306.6,114.7 343.9,114.7 343.9,116.7 	"/>
	<polyline id="XMLID_237_" fill="#E3E3E3" points="322.2,125.3 343.9,125.3 343.9,123.3 322.2,123.3 322.2,125.3 	"/>
	<polygon id="XMLID_236_" fill="#7B8AC1" points="282.2,125.3 319.5,125.3 319.5,123.3 282.2,123.3 282.2,125.3 	"/>
	<path id="XMLID_235_" fill="#4E495F" d="M396.6,242.9h-76c-2.3,0-4.2-1.9-4.2-4.2l0,0c0-2.3,1.9-4.2,4.2-4.2h76
		c2.3,0,4.2,1.9,4.2,4.2l0,0C400.8,241,398.9,242.9,396.6,242.9"/>
	<path id="XMLID_234_" fill="#D39271" d="M536.2,261.4H296.5V249c0-3.7,3-6.8,6.8-6.8h226.1c3.7,0,6.8,3,6.8,6.8V261.4"/>
	<path id="XMLID_233_" fill="#944538" d="M466.3,249v12.4H4.9V249c0-3.7,3-6.8,6.8-6.8h447.8C463.3,242.2,466.3,245.2,466.3,249"/>
	<path id="XMLID_232_" fill="#79372E" d="M332.8,242.2c-3.7,6-8,13.1-11.8,19.2H208.2l1.5-19.2H332.8L332.8,242.2z"/>
	<polyline id="XMLID_231_" fill="#753951" points="560.1,475.6 678.7,475.6 678.7,327.1 560.1,327.1 560.1,475.6 	"/>
	<polyline id="XMLID_230_" fill="#673953" points="518.1,475.6 634.6,475.6 634.6,327.1 518.1,327.1 518.1,475.6 	"/>
	<polygon id="XMLID_229_" fill="#C77A4F" points="516.8,378.4 627.3,378.4 627.3,338.2 516.8,338.2 516.8,378.4 	"/>
	<polygon id="XMLID_228_" fill="#C77A4F" points="516.8,425.6 627.3,425.6 627.3,385.4 516.8,385.4 516.8,425.6 	"/>
	<polygon id="XMLID_227_" fill="#C77A4F" points="516.8,475.6 627.3,475.6 627.3,432.5 516.8,432.5 516.8,475.6 	"/>
	<path id="XMLID_226_" fill="#FFFFFF" d="M552,360.5h27.6c1.2,0,2.2-1,2.2-2.2c0-1.2-1-2.2-2.2-2.2H552c-1.2,0-2.2,1-2.2,2.2
		C549.8,359.5,550.8,360.5,552,360.5L552,360.5z"/>
	<path id="XMLID_225_" fill="#FFFFFF" d="M550.9,407.3h27.6c1.2,0,2.2-1,2.2-2.2s-1-2.2-2.2-2.2h-27.6c-1.2,0-2.2,1-2.2,2.2
		S549.7,407.3,550.9,407.3L550.9,407.3z"/>
	<path id="XMLID_224_" fill="#FFFFFF" d="M550.9,454.1h27.6c1.2,0,2.2-1,2.2-2.2c0-1.2-1-2.2-2.2-2.2h-27.6c-1.2,0-2.2,1-2.2,2.2
		C548.7,453.1,549.7,454.1,550.9,454.1L550.9,454.1z"/>
	<path id="XMLID_223_" fill="#753951" d="M247.8,484.7l55.4,0.6c3.3,0,6-2.6,6-5.9c0-2.5-1.6-4.8-3.9-5.7l-27.3-9.8l-30,0.4
		L247.8,484.7L247.8,484.7z"/>
	<path id="XMLID_222_" fill="#232242" d="M304.3,486.9l-56.1-0.2l0-4l60.1,0.2C308.3,485.1,306.5,486.9,304.3,486.9L304.3,486.9z"/>
	<path fill="none" stroke="#232242" stroke-width="1.3297" stroke-linecap="round" stroke-miterlimit="10" d="M277.3,472l6.5-6.9
		 M282,474l6.5-6.9 M286.6,476.7l7.3-7.9"/>
	<path id="XMLID_218_" fill="#282631" d="M245.9,466.5c3.2-54,2.3-104-1.9-114.1c-4.3-6.3-38-19.9-71.6-21.4l15.7-34.4
		c44.1,2.2,75.6,18.8,86.7,37.7c4.7,8,8.7,24.1,6.5,79.2c-1.1,28.9-2.6,51.5-2.6,51.5L245.9,466.5L245.9,466.5z"/>
	<path id="XMLID_217_" fill="#915037" d="M297.1,486.1l55.4,0.4c3.3,0,6-2.6,6-5.9c0-2.5-1.6-4.8-4-5.7l-27.3-9.7l-30,0.5
		L297.1,486.1L297.1,486.1z"/>
	<path id="XMLID_216_" fill="#232242" d="M353.6,488l-57,0l0-4l61,0C357.6,486.2,355.8,488,353.6,488L353.6,488z"/>
	<path fill="none" stroke="#232242" stroke-width="1.3297" stroke-linecap="round" stroke-miterlimit="10" d="M326.5,473.2l6.5-7
		 M331.3,475.2l6.5-7 M335.9,477.9l7.3-7.9"/>
	<path id="XMLID_212_" fill="#282631" d="M295.1,466.5c3.2-54,2.3-104-1.9-114.1c-4.3-6.3-38-19.9-71.6-21.4l15.7-34.4
		c44.1,2.2,75.6,18.8,86.7,37.7c4.7,8,8.7,24.1,6.5,79.2c-1.1,28.9-2.6,51.5-2.6,51.5L295.1,466.5L295.1,466.5z"/>
	<path id="XMLID_211_" fill="#282631" d="M247.7,306.6c0,6-2.2,11.6-5.7,15.9c-4.6,5.5-11.5,9.1-19.3,9.1h-42
		c-1.2,0-2.5-0.1-3.7-0.3c-3.1-0.4-6-1.5-8.6-2.9c-0.5-0.3-0.9-0.5-1.4-0.8c-6.8-4.5-11.4-12.2-11.4-21l0.8-13.3l90.5-0.8
		L247.7,306.6L247.7,306.6z"/>
	<path id="XMLID_210_" fill="#E9BEAA" d="M276.6,235.4l21.7-3.5c1.6-0.3,2.7-1.8,2.4-3.3c-0.3-1.6-1.8-2.7-3.3-2.4l-21.7,3.5
		c-1.6,0.3-2.7,1.8-2.4,3.3C273.5,234.6,275,235.6,276.6,235.4L276.6,235.4z"/>
	<path id="XMLID_209_" fill="#E9BEAA" d="M283.5,241.2l17.4-2.8c1.6-0.3,2.7-1.8,2.4-3.3c-0.3-1.6-1.8-2.7-3.3-2.4l-17.4,2.8
		c-1.6,0.3-2.7,1.8-2.4,3.3C280.4,240.4,281.9,241.5,283.5,241.2L283.5,241.2z"/>
	<path id="XMLID_208_" fill="#E9BEAA" d="M279.5,248.8l20.6-3.3c1.6-0.3,2.7-1.8,2.4-3.3c-0.3-1.6-1.8-2.7-3.3-2.4l-20.6,3.3
		c-1.6,0.3-2.7,1.8-2.4,3.3C276.4,248,277.9,249.1,279.5,248.8L279.5,248.8z"/>
	<path id="XMLID_207_" fill="#E9BEAA" d="M285.9,229.8c-0.2,0-2.9,0-5.8-0.1c-5-0.1-9.9,1-14.4,3.2l-8.5,4.2c0,0,4.9,14.5,5.6,14.6
		c16.5,3,22.1-4.5,22.1-4.5L285.9,229.8L285.9,229.8z"/>
	<polygon id="XMLID_206_" fill="#FFFFFF" points="273.2,253.5 265.9,253.5 265.9,229.7 273.2,229.7 273.2,253.5 	"/>
	<path id="XMLID_205_" fill="#282631" d="M218,256.1c-17.2,0-33-10.1-40.3-25.7l-0.4-0.8l-22.6-68.9l27.8-9.1l22,67.2
		c2.6,5,7.9,8.2,13.5,8.1l47.9-0.5l0.3,29.3l-47.9,0.5C218.2,256.1,218.1,256.1,218,256.1L218,256.1z"/>
	<path id="XMLID_204_" fill="#E9BEAA" d="M374.4,227.7c-1.8-3.2-4.5-5.8-7.8-7.4l-0.1,0c-4.5-2.2-9.4-3.3-14.4-3.2l-9.5,0.2
		c0,0-2.4,20.7-2.3,20c0.2-1.3,23.3-1,33.8-0.8c2.3,0,3.8-2.4,2.6-4.4L374.4,227.7L374.4,227.7z"/>
	<polygon id="XMLID_203_" fill="#FFFFFF" points="346,240 336.9,240 336.9,215.7 346,215.7 346,240 	"/>
	<path id="XMLID_202_" fill="#2F2C3C" d="M292.4,242.8c-17.2,0-33-10.1-40.3-25.7l-32.5-70.3l26.6-12.3l32.5,70.3
		c2.5,5.4,7.9,8.8,13.8,8.8l47.9-0.5l0.3,29.3l-47.9,0.5C292.7,242.8,292.6,242.8,292.4,242.8L292.4,242.8z"/>
	<path id="XMLID_201_" fill="#2F2C3C" d="M255.5,160.5l-0.5,61.4l-0.7,78.2c0,0-1.7,1.9-6.7,4.5c-4.4,2.3-11.2,5.2-21.7,7.9
		c-12.2,3.2-29.3,3.6-43.9,3.3c-16.2-0.4-29.3-1.8-29.3-1.8l0.3-153.5c0-21.6,15.6-39.6,36.2-43.2c2.5-0.4,5-0.6,7.6-0.6h14.8
		C235.8,116.6,255.5,136.3,255.5,160.5L255.5,160.5z"/>
	<polygon id="XMLID_200_" fill="#B8B4C6" points="201.9,362 201.9,446.9 187.1,446.9 187.1,362 201.9,362 	"/>
	<path id="XMLID_199_" fill="#757081" d="M187.1,366.8v18.6l14.8-5.4v-12.6C198.2,367.2,191.1,366.9,187.1,366.8L187.1,366.8z"/>
	<path id="XMLID_198_" fill="#36333D" d="M240,369.3h-88.6c-4.5,0-8.3-3.7-8.3-8.3c0-4.5,3.7-8.3,8.3-8.3H240c4.5,0,8.3,3.7,8.3,8.3
		C248.3,365.6,244.6,369.3,240,369.3L240,369.3z"/>
	<path id="XMLID_197_" fill="#36333D" d="M257.2,474.3h-9.3c0-10.4-9-18.9-20.1-18.9h-67.4c-11.1,0-20.1,8.5-20.1,18.9h-9.3
		c0-15.2,13.1-27.6,29.3-27.6h67.4C244.1,446.7,257.2,459.1,257.2,474.3L257.2,474.3z"/>
	<polygon id="XMLID_196_" fill="#36333D" points="205.2,446.9 183.6,446.9 183.6,433.6 205.2,433.6 205.2,446.9 	"/>
	<path id="XMLID_195_" fill="#232242" d="M143.1,482.8c0,4-3.4,7.2-7.7,7.2s-7.7-3.2-7.7-7.2c0-4,3.4-7.2,7.7-7.2
		S143.1,478.8,143.1,482.8L143.1,482.8z"/>
	<path id="XMLID_194_" fill="#26294C" d="M146.5,482.1h-21v-1.9c0-5.4,4.4-9.8,9.8-9.8h1.4c5.4,0,9.8,4.4,9.8,9.8V482.1L146.5,482.1
		z"/>
	<path id="XMLID_193_" fill="#232242" d="M260.7,482.8c0,4-3.4,7.2-7.7,7.2c-4.2,0-7.7-3.2-7.7-7.2c0-4,3.4-7.2,7.7-7.2
		C257.3,475.5,260.7,478.8,260.7,482.8L260.7,482.8z"/>
	<path id="XMLID_192_" fill="#26294C" d="M264.1,482.1h-21v-1.9c0-5.4,4.4-9.8,9.8-9.8h1.4c5.4,0,9.8,4.4,9.8,9.8V482.1L264.1,482.1
		z"/>
	<polygon id="XMLID_191_" fill="#36333D" points="201,475.6 188.7,475.6 188.7,449.4 201,449.4 201,475.6 	"/>
	<path id="XMLID_190_" fill="#232242" d="M202.8,482.8c0,4-3.4,7.2-7.7,7.2s-7.7-3.2-7.7-7.2c0-4,3.4-7.2,7.7-7.2
		S202.8,478.8,202.8,482.8L202.8,482.8z"/>
	<path id="XMLID_189_" fill="#26294C" d="M206.2,482.1h-21v-1.9c0-5.4,4.4-9.8,9.8-9.8h1.4c5.4,0,9.8,4.4,9.8,9.8V482.1L206.2,482.1
		z"/>
	<path id="XMLID_188_" fill="#8B2936" d="M76.7,202.2l19.8,143c1.2,8.7,8.5,15.3,17.3,15.5l72.3,0.8l-40.2-179.8l-51.3,0
		C83.6,181.7,75.2,191.3,76.7,202.2L76.7,202.2z"/>
	<path id="XMLID_187_" fill="#C73D3E" d="M271.5,361.6H171c-8.6,0-15.6-7-15.6-15.6c0-8.6,7-15.6,15.6-15.6h100.5
		c8.6,0,15.6,7,15.6,15.6C287.1,354.6,280.1,361.6,271.5,361.6L271.5,361.6z"/>
	<path id="XMLID_186_" fill="#282631" d="M176.7,155.9c-1.9,28.2,3.5,129.9,5.2,159.9c-16.2-0.4-29.3-1.8-29.3-1.8l0.3-153.5
		c0-21.6,15.6-39.6,36.2-43.2C189.2,117.3,179,122.6,176.7,155.9L176.7,155.9z"/>
	<polygon id="XMLID_185_" fill="#FFFFFF" points="227.1,119.3 181.9,119.3 181.9,106.7 227.1,112 227.1,119.3 	"/>
	<path id="XMLID_184_" fill="#C73D3E" d="M154.1,341.9l-21-146.7c-0.9-6.5,4-12.6,10.9-13.5c6.9-0.9,13.4,3.7,14.3,10.3l21,146.7
		c0.9,6.5-4,12.6-10.9,13.5C161.5,353,157.9,357.9,154.1,341.9L154.1,341.9z"/>
	<path id="XMLID_183_" fill="#282631" d="M254.9,221.9l-0.7,78.2c0,0-1.7,1.9-6.7,4.5l-10.4-117.8
		C237.1,186.8,246.7,210.6,254.9,221.9L254.9,221.9z"/>
	<g>
		<defs>
			<path id="XMLID_181_" d="M388.3,217.8H387c0.4-0.4,0.8-0.9,1.3-1.3V217.8"/>
		</defs>
		<clipPath id="XMLID_439_">
			<use xlink:href="#XMLID_181_"  overflow="visible"/>
		</clipPath>
		<rect id="XMLID_182_" x="387" y="216.5" clip-path="url(#XMLID_439_)" fill="#807C93" width="1.3" height="1.3"/>
	</g>
	<path id="XMLID_180_" fill="#5A5864" d="M431.9,196.1h-24c2-2.1,4-4.2,6-6.3h19.8L431.9,196.1"/>
	<path id="XMLID_179_" fill="#262B4B" d="M433.7,189.8h-19.8c11.3-12,22.6-24.2,28.1-30.9l0.2,0.2L433.7,189.8"/>
	<path id="XMLID_178_" fill="#807C93" d="M425.9,217.8h-5.5v-13.4c0-1.7-1.4-3.1-3.1-3.1h-14.5c1.6-1.7,3.3-3.5,5-5.3l0,0h24
		L425.9,217.8"/>
	<path id="XMLID_177_" fill="#E3E3E3" d="M424.5,242h96.9c0.5-0.8,1-1.7,1.2-2.6l21.7-78.3c1-3.7-1.8-7.4-5.6-7.4h-85.3
		c-2.6,0-4.9,1.8-5.6,4.3L424.5,242"/>
	<path id="XMLID_176_" fill="#A7A3B3" d="M539.8,158.3l-21.7,78.2c-1,3.6-4.3,6.2-8.1,6.2h-91l24.3-87.5c0.7-2.5,3-4.3,5.6-4.3h85.2
		C538,150.9,540.8,154.6,539.8,158.3"/>
	<path id="XMLID_175_" fill="#2B3360" d="M535,161.7l-17.7,63.8l-3.7,13.4h-90.2l3.7-13.4l18.5-66.7c0.6-2.3,2.8-4,5.2-4h79
		C533.3,154.9,535.9,158.3,535,161.7"/>
	<polyline id="XMLID_174_" fill="#F1F2F5" points="481.8,163.5 454.1,163.5 454.7,161.6 482.4,161.6 481.8,163.5 	"/>
	<polyline id="XMLID_173_" fill="#C64A3C" points="507,163.5 493.9,163.5 494.5,161.6 507.6,161.6 507,163.5 	"/>
	<polygon id="XMLID_172_" fill="#A7A3B3" points="526,163.5 512.9,163.5 513.5,161.6 526.6,161.6 526,163.5 	"/>
	<polygon id="XMLID_171_" fill="#7B8AC1" points="511.3,163.5 508.2,163.5 508.8,161.6 511.9,161.6 511.3,163.5 	"/>
	<polyline id="XMLID_170_" fill="#A7A3B3" points="492.3,163.5 483.1,163.5 483.7,161.6 493,161.6 492.3,163.5 	"/>
	<polyline id="XMLID_169_" fill="#E3E3E3" points="462.5,196.9 475.6,196.9 476.3,194.9 463.1,194.9 462.5,196.9 	"/>
	<polyline id="XMLID_168_" fill="#EEC547" points="443.5,196.9 456.7,196.9 457.3,194.9 444.1,194.9 443.5,196.9 	"/>
	<polyline id="XMLID_167_" fill="#7B8AC1" points="458.2,196.9 461.3,196.9 461.9,194.9 458.8,194.9 458.2,196.9 	"/>
	<polygon id="XMLID_166_" fill="#C64A3C" points="461.8,171.9 451.4,171.9 452,169.9 462.4,169.9 461.8,171.9 	"/>
	<polyline id="XMLID_165_" fill="#7B8AC1" points="487,171.9 482.5,171.9 483.2,169.9 487.6,169.9 487,171.9 	"/>
	<polyline id="XMLID_164_" fill="#C64A3C" points="523.4,171.9 501.5,171.9 502.2,169.9 524,169.9 523.4,171.9 	"/>
	<polyline id="XMLID_163_" fill="#7B8AC1" points="500,171.9 488.2,171.9 488.8,169.9 500.6,169.9 500,171.9 	"/>
	<polyline id="XMLID_162_" fill="#7B8AC1" points="481,171.9 463.1,171.9 463.7,169.9 481.6,169.9 481,171.9 	"/>
	<polyline id="XMLID_161_" fill="#383A67" points="446,221.9 435.6,221.9 436.2,219.9 446.6,219.9 446,221.9 	"/>
	<polygon id="XMLID_160_" fill="#E3E3E3" points="459.2,180.2 448.8,180.2 449.4,178.3 459.8,178.3 459.2,180.2 	"/>
	<polyline id="XMLID_159_" fill="#E3E3E3" points="476.2,180.2 465.8,180.2 466.4,178.3 476.8,178.3 476.2,180.2 	"/>
	<polygon id="XMLID_158_" fill="#7B8AC1" points="517.8,180.2 499.9,180.2 500.6,178.3 518.5,178.3 517.8,180.2 	"/>
	<polyline id="XMLID_157_" fill="#7B8AC1" points="446.1,188.5 464,188.5 464.7,186.6 446.8,186.6 446.1,188.5 	"/>
	<polyline id="XMLID_156_" fill="#A7A3B3" points="518.4,225.5 514.6,238.9 422.1,238.9 425.9,225.5 518.4,225.5 	"/>
	<path id="XMLID_155_" fill="#A7A3B3" d="M468.6,242.9H357.8c-2.6,0-4.7-2.1-4.7-4.7c0-2.6,2.1-4.7,4.7-4.7h110.8
		c2.6,0,4.7,2.1,4.7,4.7C473.3,240.8,471.2,242.9,468.6,242.9"/>
	<polyline id="XMLID_154_" fill="#CAC9DF" points="510.4,154.9 475.5,154.9 477.4,150.9 512.2,150.9 510.4,154.9 	"/>
	<path fill="#373F8B" d="M478.1,225.5h-34.8l0,0l1.7-3.7h1.1l0.6-2h-0.8l10.5-23h0.3l0.6-2h0l2.9-6.4h3.9l0.6-2H461l6.7-14.7H481
		l0.6-2h-13l2.9-6.4h10.3l0.6-2h-10l3.1-6.7v0h34.8v0l-3.1,6.7h-12.8l-0.6,2h12.5l-2.9,6.4h-1.3l-0.6,2h1.1L478.1,225.5L478.1,225.5
		 M463.1,194.9l-0.6,2h13.1l0.6-2H463.1 M458.8,194.9l-0.6,2h3.1l0.6-2H458.8 M466.4,178.3l-0.6,2h10.4l0.6-2H466.4 M488.8,169.9
		l-0.6,2H500l0.6-2H488.8 M483.2,169.9l-0.6,2h4.5l0.6-2H483.2 M483.7,161.6l-0.6,2h9.2l0.6-2H483.7"/>
	<polyline id="XMLID_146_" fill="#F7F8FB" points="481.8,163.5 471.6,163.5 472.5,161.6 482.4,161.6 481.8,163.5 	"/>
	<polyline id="XMLID_145_" fill="#D06D63" points="506.4,163.5 493.9,163.5 494.5,161.6 507.3,161.6 506.4,163.5 	"/>
	<polyline id="XMLID_144_" fill="#CAC9DF" points="492.3,163.5 483.1,163.5 483.7,161.6 493,161.6 492.3,163.5 	"/>
	<polyline id="XMLID_143_" fill="#EEEFF3" points="475.6,196.9 462.5,196.9 463.1,194.9 476.3,194.9 475.6,196.9 	"/>
	<polyline id="XMLID_142_" fill="#F5DB68" points="456.7,196.9 456.4,196.9 457.2,194.9 457.3,194.9 456.7,196.9 	"/>
	<polyline id="XMLID_141_" fill="#A7BAE0" points="461.3,196.9 458.2,196.9 458.8,194.9 461.9,194.9 461.3,196.9 	"/>
	<polyline id="XMLID_140_" fill="#A7BAE0" points="487,171.9 482.5,171.9 483.2,169.9 487.6,169.9 487,171.9 	"/>
	<polyline id="XMLID_139_" fill="#D06D63" points="502.6,171.9 501.5,171.9 502.2,169.9 503.5,169.9 502.6,171.9 	"/>
	<polyline id="XMLID_138_" fill="#A7BAE0" points="500,171.9 488.2,171.9 488.8,169.9 500.6,169.9 500,171.9 	"/>
	<polyline id="XMLID_137_" fill="#A7BAE0" points="481,171.9 467.8,171.9 468.7,169.9 481.6,169.9 481,171.9 	"/>
	<polyline id="XMLID_136_" fill="#484C96" points="446,221.9 444.9,221.9 445.8,219.9 446.6,219.9 446,221.9 	"/>
	<polyline id="XMLID_135_" fill="#EEEFF3" points="476.2,180.2 465.8,180.2 466.4,178.3 476.8,178.3 476.2,180.2 	"/>
	<polyline id="XMLID_134_" fill="#A7BAE0" points="464,188.5 460.2,188.5 461,186.6 464.7,186.6 464,188.5 	"/>
	<polyline id="XMLID_133_" fill="#CAC9DF" points="474.8,232.8 439.9,232.8 443.3,225.5 478.1,225.5 474.8,232.8 	"/>
	<path fill="#373F8B" d="M361.8,189.8h-51.3l13.8-30.3h19.5v-2h-18.6l3-6.5h11.8v-2h-10.9l3-6.5h11.7v-2h-10.8l3-6.5h13.1v-2H337
		l3-6.5h3.9v-2h-3l3-6.5h0v0l3.9-8.5h8.6v-2h-7.7l3-6.5H362v-2h-9.4l5.8-12.8h51.3l-9.7,21.3h-13.3v2H399l-10.8,23.7h-14v2h13.1
		l-6.9,15.1h-15.3v2h14.3l-3,6.5h-17.7v2h16.8L361.8,189.8 M347.1,157.5v2h9.3v-2H347.1 M342.8,148.9v2H362v-2H342.8 M358.8,140.4v2
		h24.6v-2H358.8 M347.1,140.4v2h9.3v-2H347.1 M352.3,131.8v2h19.2v-2H352.3 M358.8,106.2v2h24.6v-2H358.8 M395,97.6v2h6.5v-2H395
		 M365.2,97.6v2h27.4v-2H365.2"/>
	<polyline id="XMLID_123_" fill="#EEEFF3" points="392.6,99.6 365.2,99.6 365.2,97.6 392.6,97.6 392.6,99.6 	"/>
	<polyline id="XMLID_122_" fill="#A7BAE0" points="401.5,99.6 395,99.6 395,97.6 401.5,97.6 401.5,99.6 	"/>
	<polyline id="XMLID_121_" fill="#D06D63" points="362,99.6 351.7,99.6 352.6,97.6 362,97.6 362,99.6 	"/>
	<polyline id="XMLID_120_" fill="#A7BAE0" points="340.1,150.9 328.3,150.9 329.2,148.9 340.1,148.9 340.1,150.9 	"/>
	<polyline id="XMLID_119_" fill="#EEEFF3" points="379.5,150.9 365.2,150.9 365.2,148.9 380.4,148.9 379.5,150.9 	"/>
	<polyline id="XMLID_118_" fill="#CAC9DF" points="362,150.9 342.8,150.9 342.8,148.9 362,148.9 362,150.9 	"/>
	<polyline id="XMLID_117_" fill="#A7BAE0" points="387.3,133.8 374.3,133.8 374.3,131.8 388.2,131.8 387.3,133.8 	"/>
	<polyline id="XMLID_116_" fill="#EEEFF3" points="349.2,133.8 336.1,133.8 337,131.8 349.2,131.8 349.2,133.8 	"/>
	<polyline id="XMLID_115_" fill="#CAC9DF" points="371.6,133.8 352.3,133.8 352.3,131.8 371.6,131.8 371.6,133.8 	"/>
	<polyline id="XMLID_114_" fill="#A7BAE0" points="356.4,108.2 347.8,108.2 348.7,106.2 356.4,106.2 356.4,108.2 	"/>
	<polyline id="XMLID_113_" fill="#EEEFF3" points="399,108.2 386.7,108.2 386.7,106.2 400,106.2 399,108.2 	"/>
	<polyline id="XMLID_112_" fill="#A7BAE0" points="383.4,108.2 358.8,108.2 358.8,106.2 383.4,106.2 383.4,108.2 	"/>
	<polyline id="XMLID_111_" fill="#A7BAE0" points="356.4,159.5 347.1,159.5 347.1,157.5 356.4,157.5 356.4,159.5 	"/>
	<polyline id="XMLID_110_" fill="#A7BAE0" points="375.6,159.5 358.8,159.5 358.8,157.5 376.5,157.5 375.6,159.5 	"/>
	<polyline id="XMLID_109_" fill="#A7BAE0" points="343.9,159.5 324.4,159.5 325.3,157.5 343.9,157.5 343.9,159.5 	"/>
	<polyline id="XMLID_108_" fill="#A7BAE0" points="356.4,142.4 347.1,142.4 347.1,140.4 356.4,140.4 356.4,142.4 	"/>
	<polyline id="XMLID_107_" fill="#A7BAE0" points="383.4,142.4 358.8,142.4 358.8,140.4 383.4,140.4 383.4,142.4 	"/>
	<polyline id="XMLID_106_" fill="#A7BAE0" points="343.9,142.4 332.2,142.4 333.1,140.4 343.9,140.4 343.9,142.4 	"/>
	<polyline id="XMLID_105_" fill="#A7BAE0" points="343.9,116.7 343.9,116.7 343.9,116.7 343.9,116.7 	"/>
	<polyline id="XMLID_104_" fill="#EEEFF3" points="343.9,125.3 340,125.3 340.9,123.3 343.9,123.3 343.9,125.3 	"/>
	<path id="XMLID_103_" fill="#E3E3E3" d="M510.6,242.6h-64.1c-2.6,0-4.7-2.1-4.7-4.7c0-2.6,2.1-4.7,4.7-4.7h64.1
		c2.6,0,4.7,2.1,4.7,4.7C515.3,240.5,513.2,242.6,510.6,242.6L510.6,242.6z"/>
	<polygon id="XMLID_102_" fill="#232242" points="487.6,239 478.4,239 478.4,236.3 487.6,236.3 487.6,239 	"/>
	<polygon id="XMLID_101_" fill="#232242" points="475.7,239 469,239 469,236.3 475.7,236.3 475.7,239 	"/>
	<path id="XMLID_100_" fill="#C9473E" d="M420.4,204.4v38.4h-32.1v-38.4c0-1.7,1.4-3.1,3.1-3.1h25.9
		C419,201.4,420.4,202.8,420.4,204.4"/>
	<path id="XMLID_99_" fill="#C64A3C" d="M388.7,236.2c-0.4-0.2-10.3-6-11.1-16.1c-0.3-3.8,1.1-6.2,2.4-7.6c3.5-3.6,9.4-3.4,10-3.4
		l-0.3,4.7c-1.2-0.1-4.7,0.2-6.4,2c-0.9,0.9-1.2,2.2-1.1,3.9c0.7,7.7,8.7,12.4,8.8,12.4L388.7,236.2"/>
	<path id="XMLID_98_" fill="#C64A3C" d="M405.4,242.8h-17.1v-38.4c0-1.7,1.4-3.1,3.1-3.1h1c0,2,0.6,17.3,4.9,28.3
		C401.1,239.3,404.4,242.1,405.4,242.8"/>
	<polyline id="XMLID_97_" fill="#AB3E3E" points="405.4,242.8 388.3,242.8 388.3,242.8 405.4,242.8 405.4,242.8 	"/>
	<path fill="#9D322F" d="M384.3,232.9c-2.9-2.7-6.2-7-6.7-12.7c0-0.3,0-0.5,0-0.7c0,0.2,0,0.5,0,0.7
		C378.1,225.8,381.4,230.1,384.3,232.9 M388.3,230.2c-2.4-2.1-5.7-5.7-6.1-10.4c-0.1-0.7,0-1.3,0.1-1.9h0c-0.1,0.6-0.1,1.2-0.1,1.9
		C382.7,224.5,385.9,228.1,388.3,230.2L388.3,230.2"/>
	<path id="XMLID_94_" fill="#AD4042" d="M382.4,217.8L382.4,217.8c0.1-0.3,0.1-0.6,0.3-0.8C382.5,217.3,382.4,217.5,382.4,217.8"/>
	<polyline id="XMLID_93_" fill="#9D322F" points="377.6,219.4 377.6,219.4 377.6,219.4 	"/>
	<path fill="#AD4042" d="M383.5,215.8c1.3-1.2,3.4-1.7,4.9-1.8v0C386.8,214.1,384.7,214.6,383.5,215.8 M385.3,209.7
		c1.1-0.3,2.2-0.4,3.1-0.5v0C387.5,209.3,386.4,209.4,385.3,209.7"/>
	<path id="XMLID_90_" fill="#B32F26" d="M388.3,236c-0.7-0.4-2.3-1.5-4-3.1c-2.9-2.7-6.2-7-6.7-12.7c0-0.3,0-0.5,0-0.7c0,0,0,0,0,0
		c0,0,0,0,0,0c-0.1-3.4,1.3-5.6,2.5-6.8c1.5-1.6,3.5-2.4,5.3-2.9c1.1-0.3,2.2-0.4,3.1-0.5l0,0v4.7l0,0c-1.5,0.1-3.6,0.6-4.9,1.8
		c0,0-0.1,0.1-0.1,0.1c-0.3,0.3-0.6,0.7-0.8,1.2c-0.1,0.3-0.2,0.5-0.3,0.8c-0.1,0.6-0.1,1.2-0.1,1.9c0.4,4.7,3.6,8.4,6.1,10.4l0,0
		V236"/>
	<path id="XMLID_89_" fill="#B32F26" d="M405.4,242.8h-17.1V236l0,0v-5.8v0l0,0v-16.2l0,0v0v-4.7v0l0,0v-4.8c0-1.7,1.4-3.1,3.1-3.1
		h1c0,2,0.6,17.3,4.9,28.3C401.1,239.3,404.4,242.1,405.4,242.8"/>
	<polygon id="XMLID_88_" fill="#6873AC" points="49.4,221.7 45.8,221 54.6,170.9 58.2,171.6 49.4,221.7 	"/>
	<polygon id="XMLID_87_" fill="#6873AC" points="56.9,185.5 51.3,184.5 53.9,169.5 59.6,170.5 56.9,185.5 	"/>
	<polygon id="XMLID_86_" fill="#713F5D" points="43.3,228 39.7,227.7 43.9,177 46.1,173.8 47.6,177.3 43.3,228 	"/>
	<polygon id="XMLID_85_" fill="#282E53" points="38.2,230.6 34.6,231.3 24.9,181.4 26.1,177.7 28.5,180.7 38.2,230.6 	"/>
	<polygon id="XMLID_84_" fill="#D7845B" points="46.4,242.3 30.6,242.3 25.4,200.5 51.5,200.5 46.4,242.3 	"/>
	<polygon id="XMLID_83_" fill="#EBBE63" points="52.3,242.3 36.5,242.3 34.2,200.5 57.5,200.5 52.3,242.3 	"/>
	<path id="XMLID_82_" fill="#C73D3E" d="M538.8,305.1v23h80.2c5,0,9.2-3.2,10.8-7.6c0.4-1.2,0.7-2.5,0.7-3.9c0-3.2-1.3-6-3.4-8.1
		c-2.1-2.1-5-3.4-8.1-3.4H538.8"/>
	<path id="XMLID_81_" fill="#B42C26" d="M618.9,328.1h-62.2v-7.6h73C628.2,324.9,623.9,328.1,618.9,328.1"/>
	<path id="XMLID_80_" fill="#8B2936" d="M521.6,305.1l0,23h52.6c6.3,0,11.5-5.1,11.5-11.5c0-3.2-1.3-6-3.4-8.1
		c-2.1-2.1-5-3.4-8.1-3.4H521.6L521.6,305.1z"/>
	<path id="XMLID_79_" fill="#FFFFFF" d="M521.6,309.1l0,14.7h49.5c4.1,0,7.4-3.3,7.4-7.4c0-2-0.8-3.9-2.2-5.2
		c-1.3-1.3-3.2-2.2-5.2-2.2H521.6L521.6,309.1z"/>
	<path id="XMLID_78_" fill="#E6AF3F" d="M537.2,259.5v23l80.2,0c6.3,0,11.5-5.1,11.5-11.5c0-3.2-1.3-6-3.4-8.1
		c-2.1-2.1-5-3.4-8.1-3.4H537.2L537.2,259.5z"/>
	<path id="XMLID_77_" fill="#F4D635" d="M555.4,267.1v-7.6h62.2c5,0,9.2,3.2,10.8,7.6H555.4L555.4,267.1z"/>
	<path id="XMLID_76_" fill="#D47C50" d="M521.6,259.5v23l52.6,0c6.3,0,11.5-5.1,11.5-11.5c0-3.2-1.3-6-3.4-8.1
		c-2.1-2.1-5-3.4-8.1-3.4H521.6L521.6,259.5z"/>
	<path id="XMLID_75_" fill="#FFFFFF" d="M521.6,263.4v14.7l49.5,0c4.1,0,7.4-3.3,7.4-7.4c0-2-0.8-3.9-2.2-5.2
		c-1.3-1.3-3.2-2.2-5.2-2.2H521.6L521.6,263.4z"/>
	<path id="XMLID_74_" fill="#B1C634" d="M533.1,282.6v23h80.2c6.3,0,11.5-5.1,11.5-11.5c0-1.9-0.5-3.8-1.3-5.4c-0.5-1-1.2-1.9-2-2.7
		c-2.1-2.1-5-3.4-8.1-3.4H533.1L533.1,282.6z"/>
	<path id="XMLID_73_" fill="#7E983A" d="M535.2,282.6v6.1h88.2c-0.5-1-1.2-1.9-2-2.7c-2.1-2.1-5-3.4-8.1-3.4H535.2L535.2,282.6z"/>
	<path id="XMLID_72_" fill="#7E983A" d="M535.2,305.6v-6.1h88.2c-0.5,1-1.2,1.9-2,2.7c-2.1,2.1-5,3.4-8.1,3.4H535.2L535.2,305.6z"/>
	<path id="XMLID_71_" fill="#5F803A" d="M512.1,282.6v23h48.1c6.3,0,11.5-5.1,11.5-11.5c0-3.2-1.3-6-3.4-8.1c-2.1-2.1-5-3.4-8.1-3.4
		L512.1,282.6L512.1,282.6z"/>
	<path id="XMLID_70_" fill="#FFFFFF" d="M512.1,286.5v14.7h45c4.1,0,7.4-3.3,7.4-7.4c0-2-0.8-3.9-2.2-5.2c-1.3-1.3-3.2-2.2-5.2-2.2
		L512.1,286.5L512.1,286.5z"/>
	<path id="XMLID_69_" fill="#232242" d="M545.4,147.8L545.4,147.8c-3.8-4.1-3.5-10.4,0.7-14.1l0.5-0.4c4.2-3.7,10.8-3.4,14.6,0.7v0
		c3.8,4.1,3.5,10.4-0.7,14.1l-0.5,0.4C555.8,152.2,549.3,151.8,545.4,147.8L545.4,147.8z"/>
	<path id="XMLID_68_" fill="#C77A4F" d="M553.6,167.6l-10.1,8.8l-28.7-30.6l10.1-8.8c7-6.1,17-6.9,24.8-2.7c2,1.1,3.8,2.4,5.4,4.1
		c4,4.2,5.8,9.6,5.5,14.8C560.3,158.6,557.9,163.8,553.6,167.6L553.6,167.6z"/>
	<path id="XMLID_67_" fill="#EEC547" d="M544.5,157.9l-10.1,8.8l-19.5-20.8l10.1-8.8c7-6.1,17-6.9,24.8-2.7c1.3,2.9,1.9,6.1,1.8,9.3
		C551.2,148.9,548.8,154.1,544.5,157.9L544.5,157.9z"/>
	<path id="XMLID_66_" fill="#A7A3B3" d="M544,176.3c-3,2.7-12-1.8-20.1-10.2c-8.1-8.3-12.1-17.3-9.1-20c2.4-2.2,8.5,0.2,15,5.5
		c1.7,1.4,3.4,3,5.1,4.7c2,2,3.7,4.1,5.1,6.1C544.5,168.6,546.3,174.2,544,176.3L544,176.3z"/>
	<path id="XMLID_65_" fill="#FFFFFF" d="M540.1,162.4c-2.3,2.6-6.3,3.3-9.5,1.6c-3.7-2-5-6.5-2.9-10c0.6-0.9,1.3-1.7,2.2-2.3
		c1.7,1.4,3.4,3,5.1,4.7C536.9,158.3,538.6,160.3,540.1,162.4L540.1,162.4z"/>
	<polyline id="XMLID_64_" fill="none" stroke="#232242" stroke-width="4.0911" stroke-miterlimit="10" points="596.4,246.6 
		622.5,162.1 569.6,126.9 558.5,136.3 	"/>
	<path id="XMLID_63_" fill="#232242" d="M575.4,127.4c0,3.5-2.9,6.3-6.5,6.3c-3.6,0-6.5-2.8-6.5-6.3c0-3.5,2.9-6.3,6.5-6.3
		C572.5,121.1,575.4,123.9,575.4,127.4L575.4,127.4z"/>
	<path id="XMLID_62_" fill="#383A67" d="M572.1,127.4c0,1.7-1.5,3.1-3.3,3.1c-1.8,0-3.3-1.4-3.3-3.1c0-1.7,1.5-3.1,3.3-3.1
		C570.7,124.2,572.1,125.6,572.1,127.4L572.1,127.4z"/>
	<path id="XMLID_61_" fill="#383A67" d="M622.7,259.8h-67.4c0-7.4,6-13.4,13.4-13.4h40.6C616.7,246.4,622.7,252.4,622.7,259.8
		L622.7,259.8z"/>
	<polygon id="XMLID_60_" fill="#232242" points="581.4,246.7 569.2,246.7 569.2,243 581.4,243 581.4,246.7 	"/>
	<path id="XMLID_59_" fill="#232242" d="M631.1,163c0,4.9-4.1,8.8-9.1,8.8c-5,0-9.1-3.9-9.1-8.8c0-4.9,4.1-8.8,9.1-8.8
		C627.1,154.2,631.1,158.1,631.1,163L631.1,163z"/>
	<path id="XMLID_58_" fill="#383A67" d="M626.6,163c0,2.4-2,4.4-4.6,4.4c-2.5,0-4.6-2-4.6-4.4c0-2.4,2-4.4,4.6-4.4
		C624.5,158.6,626.6,160.6,626.6,163L626.6,163z"/>
	<path id="XMLID_57_" fill="#617D37" d="M680.5,264.7c-9.9,13.5-29.7,15.7-29.7,15.7s-3.8-19.6,6.1-33c9.9-13.5,29.7-15.7,29.7-15.7
		S690.4,251.3,680.5,264.7L680.5,264.7z"/>
	<path id="XMLID_56_" fill="#4E6838" d="M639,256.7c9.1,8.9,8.6,24.1,8.6,24.1s-15.2,0.7-24.2-8.2c-9.1-8.9-8.6-24.1-8.6-24.1
		S630,247.8,639,256.7L639,256.7z"/>
	<path id="XMLID_55_" fill="#7EAA54" d="M661.5,249.9c1.8,16.6-11.2,31.7-11.2,31.7s-16.1-11.8-17.9-28.4
		c-1.8-16.6,11.2-31.7,11.2-31.7S659.6,233.3,661.5,249.9L661.5,249.9z"/>
	<polygon id="XMLID_54_" fill="#5E3549" points="660.3,327.5 625.9,327.5 614.6,277.3 671.5,277.3 660.3,327.5 	"/>
	<polygon id="XMLID_1_" fill="#915037" points="673.2,327.5 638.8,327.5 633.8,277.3 684.5,277.3 673.2,327.5 	"/>
</g>
</svg>
