<?xml version="1.0" encoding="utf-8"?>
<!-- Generator: Adobe Illustrator 19.0.0, SVG Export Plug-In . SVG Version: 6.00 Build 0)  -->
<svg version="1.1" id="Capa_1" xmlns="http://www.w3.org/2000/svg" xmlns:xlink="http://www.w3.org/1999/xlink" x="0px" y="0px"
	 viewBox="0 0 370.4 276.8" enable-background="new 0 0 370.4 276.8" xml:space="preserve">
<g>
	<g>
		<path fill="#313640" d="M228.7,68.1H6c-3.2,0-5.8,2.6-5.8,5.8v135.7c0,3.2,2.6,5.8,5.8,5.8h222.7c3.2,0,5.8-2.6,5.8-5.8V73.9
			C234.6,70.7,231.9,68.1,228.7,68.1z"/>
		<linearGradient id="SVGID_1_" gradientUnits="userSpaceOnUse" x1="12.2044" y1="141.1918" x2="222.4897" y2="141.1918">
			<stop  offset="0" style="stop-color:#3C588E"/>
			<stop  offset="1" style="stop-color:#5EB7E1"/>
		</linearGradient>
		
			<rect x="12.2" y="79.7" fill="url(#SVGID_1_)" stroke="#29292B" stroke-width="1.2269" stroke-miterlimit="10" width="210.3" height="123.1"/>
		<path fill="#FFFFFF" d="M234.4,212.1H0.1C0.1,212.6,0,213,0,213.5v13.2c0,7,5.7,12.6,12.6,12.6h209.3c7,0,12.6-5.7,12.6-12.6
			v-13.2C234.6,213,234.5,212.6,234.4,212.1z"/>
		<path fill="#D0D1D2" d="M12.6,239.4h209.3c5,0,9.3-2.9,11.4-7.1H1.3C3.3,236.4,7.6,239.4,12.6,239.4z"/>
		<path opacity="0.8" fill="#202121" d="M119.3,74c0,1.1-0.9,2-2,2c-1.1,0-2-0.9-2-2c0-1.1,0.9-2,2-2C118.5,72,119.3,72.9,119.3,74z
			"/>
		<rect x="103.6" y="232.2" fill="#D0D1D2" width="27.3" height="26.4"/>
		<rect x="77.5" y="258.6" fill="#FFFFFF" width="79.5" height="6"/>
		<rect x="13" y="80.4" opacity="0.5" fill="#FFFFFF" width="208.6" height="7"/>
		<polygon opacity="0.5" fill="#FFFFFF" points="173.1,201.9 61.6,201.9 64.1,194.9 170.6,194.9 		"/>
		<circle fill="#FFFFFF" cx="217.6" cy="83.9" r="1.6"/>
		<circle fill="#FFFFFF" cx="212.4" cy="83.9" r="1.6"/>
		<rect x="17.6" y="83.2" fill="#FFFFFF" width="9.9" height="1.4"/>
		<g>
			<path fill="#F3E353" d="M88.5,191.6c0.8,0,1.5,0.7,1.5,1.5v4.3c0,0.8-0.7,1.5-1.5,1.5h-4.3c-0.8,0-1.5-0.6-1.5-1.5V193
				c0-0.8,0.7-1.5,1.5-1.5H88.5z"/>
			<path fill="#FCC50B" d="M76.1,191.6c0.8,0,1.5,0.7,1.5,1.5v4.3c0,0.8-0.6,1.5-1.5,1.5h-4.3c-0.8,0-1.5-0.6-1.5-1.5V193
				c0-0.8,0.7-1.5,1.5-1.5H76.1z"/>
			<path fill="#F2929F" d="M121.4,198.8c-0.8,0-1.5-0.7-1.5-1.5V193c0-0.8,0.7-1.5,1.5-1.5h4.3c0.8,0,1.5,0.6,1.5,1.5v4.3
				c0,0.8-0.7,1.5-1.5,1.5H121.4z"/>
			<path fill="#D2D3E2" d="M109,198.8c-0.8,0-1.5-0.7-1.5-1.5V193c0-0.8,0.7-1.5,1.5-1.5h4.3c0.8,0,1.5,0.6,1.5,1.5v4.3
				c0,0.8-0.7,1.5-1.5,1.5H109z"/>
			<path fill="#B9D439" d="M96.6,198.8c-0.8,0-1.5-0.7-1.5-1.5V193c0-0.8,0.7-1.5,1.5-1.5h4.3c0.8,0,1.5,0.7,1.5,1.5v4.3
				c0,0.8-0.7,1.5-1.5,1.5H96.6z"/>
			<path fill="#D2D3E2" d="M150.5,191.6c0.8,0,1.5,0.7,1.5,1.5v4.3c0,0.8-0.7,1.5-1.5,1.5h-4.3c-0.8,0-1.5-0.6-1.5-1.5V193
				c0-0.8,0.6-1.5,1.5-1.5H150.5z"/>
			<path fill="#C6F5DC" d="M138.1,191.6c0.8,0,1.5,0.7,1.5,1.5v4.3c0,0.8-0.7,1.5-1.5,1.5h-4.3c-0.8,0-1.5-0.6-1.5-1.5V193
				c0-0.8,0.7-1.5,1.5-1.5H138.1z"/>
			<path fill="#00B1DB" d="M158.6,198.8c-0.8,0-1.5-0.7-1.5-1.5V193c0-0.8,0.7-1.5,1.5-1.5h4.3c0.8,0,1.5,0.7,1.5,1.5v4.3
				c0,0.8-0.7,1.5-1.5,1.5H158.6z"/>
		</g>
		<g>
			<g>
				<path fill="#FFFFFF" d="M56.2,169.7c-1.9,0-3.5-1.6-3.5-3.5V104c0-1.9,1.6-3.5,3.5-3.5h75.1c1.9,0,3.5,1.6,3.5,3.5v62.2
					c0,1.9-1.6,3.5-3.5,3.5H56.2z"/>
				<path fill="#615D77" d="M131.3,100.9c1.7,0,3.1,1.4,3.1,3.1v62.2c0,1.7-1.4,3.1-3.1,3.1H56.2c-1.7,0-3.1-1.4-3.1-3.1V104
					c0-1.7,1.4-3.1,3.1-3.1H131.3 M131.3,100H56.2c-2.2,0-3.9,1.8-3.9,3.9v62.2c0,2.2,1.8,3.9,3.9,3.9h75.1c2.2,0,3.9-1.8,3.9-3.9
					V104C135.2,101.8,133.5,100,131.3,100L131.3,100z"/>
			</g>
			<path fill="#3F444C" d="M131.3,100H56.2c-2.2,0-3.9,1.8-3.9,3.9v7.4h83V104C135.2,101.8,133.5,100,131.3,100z"/>
			<g>
				<path fill="#F06228" d="M60.3,105.8c0,1.2-1,2.2-2.2,2.2c-1.2,0-2.2-1-2.2-2.2c0-1.2,1-2.2,2.2-2.2
					C59.3,103.6,60.3,104.6,60.3,105.8z"/>
				<path fill="#F5B879" d="M66.5,105.8c0,1.2-1,2.2-2.2,2.2c-1.2,0-2.2-1-2.2-2.2c0-1.2,1-2.2,2.2-2.2
					C65.5,103.6,66.5,104.6,66.5,105.8z"/>
				<path fill="#AFBC46" d="M72.6,105.8c0,1.2-1,2.2-2.2,2.2c-1.2,0-2.2-1-2.2-2.2c0-1.2,1-2.2,2.2-2.2
					C71.6,103.6,72.6,104.6,72.6,105.8z"/>
			</g>
			<rect x="78.7" y="103.9" fill="#FFFFFF" width="50.8" height="3.9"/>
			<rect x="57.6" y="117.5" fill="#3F444C" width="18" height="1.6"/>
			<g>
				<rect x="57.6" y="152.8" fill="#3F444C" width="19.3" height="1.6"/>
				<rect x="57.6" y="157.6" fill="#64647A" width="16.5" height="1.6"/>
				<rect x="57.6" y="162.3" fill="#64647A" width="16.5" height="1.6"/>
			</g>
			<g>
				<rect x="83.2" y="152.8" fill="#3F444C" width="19.3" height="1.6"/>
				<rect x="83.2" y="157.6" fill="#64647A" width="16.5" height="1.6"/>
				<rect x="83.2" y="162.3" fill="#64647A" width="16.5" height="1.6"/>
			</g>
			<g>
				<rect x="109.2" y="152.8" fill="#3F444C" width="19.3" height="1.6"/>
				<rect x="109.2" y="157.6" fill="#64647A" width="16.5" height="1.6"/>
				<rect x="109.2" y="162.3" fill="#64647A" width="16.5" height="1.6"/>
			</g>
			<rect x="118.5" y="117.5" fill="#209BD2" width="11.5" height="1.6"/>
			<rect x="104.1" y="117.5" fill="#209BD2" width="11.5" height="1.6"/>
			<rect x="89.6" y="117.5" fill="#209BD2" width="11.5" height="1.6"/>
			<g>
				<rect x="57.6" y="125.2" fill="#D9E8F1" width="20" height="21.7"/>
				<path fill="#8EC2D4" d="M78,147.4H57.2v-22.5H78V147.4L78,147.4z M58,146.5h19.1v-20.9H58V146.5L58,146.5z"/>
			</g>
			<g>
				<rect x="83.6" y="125.2" fill="#D9E8F1" width="20" height="21.7"/>
				<path fill="#8EC2D4" d="M104,147.4H83.2v-22.5H104V147.4L104,147.4z M84,146.5h19.2v-20.9H84V146.5L84,146.5z"/>
			</g>
			<g>
				<rect x="109.6" y="125.2" fill="#D9E8F1" width="20" height="21.7"/>
				<path fill="#8EC2D4" d="M130,147.4h-20.8v-22.5H130V147.4L130,147.4z M110,146.5h19.1v-20.9H110V146.5L110,146.5z"/>
			</g>
			<g>
				<g>
					<path fill="#FFFFFF" d="M128.4,178c-1.9,0-3.5-1.6-3.5-3.5v-56.4c0-1.9,1.6-3.5,3.5-3.5h49.7c1.9,0,3.5,1.6,3.5,3.5v56.4
						c0,1.9-1.6,3.5-3.5,3.5H128.4z"/>
					<path fill="#615D77" d="M178.1,115c1.7,0,3.1,1.4,3.1,3.1v56.4c0,1.7-1.4,3.1-3.1,3.1h-49.7c-1.7,0-3-1.4-3-3.1v-56.4
						c0-1.7,1.4-3.1,3-3.1H178.1 M178.1,114.1h-49.7c-2.2,0-3.9,1.8-3.9,3.9v56.4c0,2.2,1.8,3.9,3.9,3.9h49.7c2.2,0,3.9-1.8,3.9-3.9
						v-56.4C182,115.9,180.3,114.1,178.1,114.1L178.1,114.1z"/>
				</g>
				<path fill="#3F444C" d="M178.1,114.1h-49.7c-2.2,0-3.9,1.8-3.9,3.9v7.4H182v-7.4C182,115.9,180.3,114.1,178.1,114.1z"/>
				<g>
					<circle fill="#F06228" cx="130.4" cy="120" r="2.2"/>
					<circle fill="#F5B879" cx="136.5" cy="120" r="2.2"/>
					<circle fill="#AFBC46" cx="142.6" cy="120" r="2.2"/>
				</g>
				<rect x="150.9" y="118" fill="#FFFFFF" width="25.4" height="3.9"/>
				<rect x="129.8" y="131.6" fill="#3F444C" width="18" height="1.6"/>
				<g>
					<rect x="129.8" y="165.7" fill="#3F444C" width="19.3" height="1.6"/>
					<rect x="129.8" y="170.4" fill="#64647A" width="16.5" height="1.6"/>
				</g>
				<g>
					<rect x="156.5" y="165.7" fill="#3F444C" width="19.3" height="1.6"/>
					<rect x="156.5" y="170.4" fill="#64647A" width="16.5" height="1.6"/>
				</g>
				<rect x="165.3" y="131.6" fill="#209BD2" width="11.5" height="1.6"/>
				<g>
					<rect x="130.3" y="139.2" fill="#D9E8F1" width="20" height="21.7"/>
					<path fill="#8EC2D4" d="M150.7,161.3h-20.8v-22.5h20.8V161.3L150.7,161.3z M130.7,160.5h19.2v-20.9h-19.2V160.5L130.7,160.5z"
						/>
				</g>
				<g>
					<rect x="156.3" y="139.2" fill="#D9E8F1" width="20" height="21.7"/>
					<path fill="#8EC2D4" d="M176.7,161.3h-20.8v-22.5h20.8V161.3L176.7,161.3z M156.7,160.5h19.2v-20.9h-19.2V160.5L156.7,160.5z"
						/>
				</g>
			</g>
		</g>
		<path opacity="0.1" fill="#FFFFFF" d="M163.4,68.1H6c-3.2,0-5.8,2.6-5.8,5.8v135.7c0,3.2,2.6,5.8,5.8,5.8h100.6
			C115.6,192.9,151.7,98.6,163.4,68.1z"/>
	</g>
	<g>
		<path fill="#313640" d="M56.7,246.6H4.4c-2.4,0-4.4,2-4.4,4.4v21.2c0,2.4,2,4.4,4.4,4.4h52.3c2.4,0,4.4-2,4.4-4.4V251
			C61.1,248.6,59.1,246.6,56.7,246.6z"/>
		<g opacity="0.8">
			<rect x="7.6" y="255" fill="#202121" width="39.7" height="2.7"/>
			<circle opacity="0.6" fill="#202121" cx="52.3" cy="256.3" r="1.2"/>
		</g>
	</g>
	<g>
		<path fill="#313640" d="M363.3,0h-83.8c-3.9,0-7,3.1-7,7v175.4c0,3.9,3.1,7,7,7h83.8c3.9,0,7-3.1,7-7V7C370.4,3.1,367.2,0,363.3,0
			z"/>
		<g>
			<path fill="#9292A9" d="M321.4,157.5c-3.8,0-6.9-3.1-6.9-6.9c0-3.8,3.1-6.9,6.9-6.9c3.8,0,6.9,3.1,6.9,6.9
				C328.3,154.4,325.2,157.5,321.4,157.5z"/>
			<path fill="#313640" d="M321.4,145.9c-2.6,0-4.8,2.1-4.8,4.8c0,2.6,2.1,4.8,4.8,4.8c2.6,0,4.8-2.1,4.8-4.8
				C326.2,148,324.1,145.9,321.4,145.9z"/>
		</g>
		<path opacity="0.8" fill="#202121" d="M295.3,84.4h14.4c0.6,0,1,0.5,1,1c0,0.6-0.5,1-1,1h-14.4c-0.6,0-1-0.5-1-1
			C294.3,84.9,294.8,84.4,295.3,84.4z"/>
		<rect x="324" y="83.9" opacity="0.8" fill="#202121" width="8.2" height="3.1"/>
		<rect x="336.8" y="83.9" opacity="0.8" fill="#202121" width="8.2" height="3.1"/>
		<rect x="349.4" y="83.9" opacity="0.8" fill="#202121" width="8.2" height="3.1"/>
		<path opacity="0.8" fill="#202121" d="M288.9,85.5c0,1-0.8,1.9-1.9,1.9c-1,0-1.9-0.8-1.9-1.9c0-1,0.8-1.9,1.9-1.9
			C288.1,83.6,288.9,84.4,288.9,85.5z"/>
		<rect x="284.9" y="35.7" opacity="0.8" fill="#202121" width="72.7" height="16.5"/>
		<rect x="284.9" y="11.6" opacity="0.8" fill="#202121" width="72.7" height="16.5"/>
		<rect x="284.9" y="58.3" opacity="0.8" fill="#202121" width="72.7" height="16.5"/>
	</g>
	<g>
		<path fill="#313640" d="M344.1,155.2H177.2c-2.4,0-4.4,2-4.4,4.4v101.7c0,2.4,2,4.4,4.4,4.4h166.9c2.4,0,4.4-2,4.4-4.4V159.6
			C348.5,157.2,346.5,155.2,344.1,155.2z"/>
		<linearGradient id="SVGID_2_" gradientUnits="userSpaceOnUse" x1="183.7012" y1="210.3217" x2="337.582" y2="210.3217">
			<stop  offset="0" style="stop-color:#3C588E"/>
			<stop  offset="1" style="stop-color:#5EB7E1"/>
		</linearGradient>
		
			<rect x="183.7" y="165.7" fill="url(#SVGID_2_)" stroke="#29292B" stroke-width="0.9192" stroke-miterlimit="10" width="153.9" height="89.2"/>
		<path fill="#FFFFFF" d="M364.6,263.2h-72c-0.2,1.5-1.3,2.6-2.9,2.6h-58.3c-1.5,0-2.7-1.2-2.9-2.6h-72c0,0.4-0.1,0.7-0.1,1.1v3.2
			c0,5.2,4.2,9.5,9.5,9.5h189.3c5.2,0,9.5-4.3,9.5-9.5v-3.2C364.8,263.8,364.7,263.5,364.6,263.2z"/>
		<path fill="#D0D1D2" d="M166,276.8h189.3c3.7,0,7-2.2,8.5-5.3H157.5C159,274.6,162.3,276.8,166,276.8z"/>
		<path opacity="0.8" fill="#202121" d="M262.1,160.9c0,0.8-0.7,1.5-1.5,1.5c-0.8,0-1.5-0.7-1.5-1.5c0-0.8,0.7-1.5,1.5-1.5
			C261.5,159.4,262.1,160.1,262.1,160.9z"/>
		<g>
			<g>
				<path fill="#FFFFFF" d="M211.1,238.8c-1.6,0-2.9-1.3-2.9-2.9v-55.2c0-1.6,1.3-2.9,2.9-2.9h90.7c1.6,0,2.9,1.3,2.9,2.9v55.2
					c0,1.6-1.3,2.9-2.9,2.9H211.1z"/>
				<path fill="#615D77" d="M301.8,178.2c1.4,0,2.5,1.1,2.5,2.5v55.2c0,1.4-1.1,2.5-2.5,2.5h-90.7c-1.4,0-2.5-1.1-2.5-2.5v-55.2
					c0-1.4,1.1-2.5,2.5-2.5H301.8 M301.8,177.5h-90.7c-1.8,0-3.2,1.4-3.2,3.2v55.2c0,1.8,1.4,3.2,3.2,3.2h90.7
					c1.8,0,3.2-1.4,3.2-3.2v-55.2C305,178.9,303.6,177.5,301.8,177.5L301.8,177.5z"/>
			</g>
			<path fill="#3F444C" d="M301.8,177.5h-90.7c-1.8,0-3.2,1.4-3.2,3.2v6.1H305v-6.1C305,178.9,303.6,177.5,301.8,177.5z"/>
			<g>
				<circle fill="#F06228" cx="212.7" cy="182.2" r="1.8"/>
				<circle fill="#F5B879" cx="217.7" cy="182.2" r="1.8"/>
				<circle fill="#AFBC46" cx="222.8" cy="182.2" r="1.8"/>
			</g>
			<rect x="215.6" y="199.2" fill="#D3A158" width="29.5" height="1.7"/>
			<rect x="247.9" y="199.2" fill="#7E98B7" width="6.7" height="1.7"/>
			<rect x="215.6" y="192.8" fill="#DA4126" width="19.7" height="1.7"/>
			<rect x="233.1" y="205.6" fill="#BFDFDD" width="62.1" height="1.7"/>
			<rect x="215.6" y="205.6" fill="#D3A158" width="14.4" height="1.7"/>
			<rect x="222" y="211.9" fill="#BFDFDD" width="50.1" height="1.7"/>
			<rect x="274.8" y="211.9" fill="#DA4126" width="8.6" height="1.7"/>
			<rect x="222" y="218.3" fill="#D3A158" width="9.6" height="1.7"/>
			<rect x="222" y="224.7" fill="#D3A158" width="9.6" height="1.7"/>
			<rect x="234.3" y="218.3" fill="#AFBC46" width="52.4" height="1.7"/>
			<rect x="234.3" y="224.7" fill="#AFBC46" width="27.4" height="1.7"/>
			<rect x="263.8" y="224.7" fill="#7E98B7" width="27.4" height="1.7"/>
			<rect x="234" y="231.1" fill="#7E98B7" width="36.3" height="1.7"/>
			<rect x="215.6" y="231.1" fill="#D3A158" width="16.1" height="1.7"/>
			<rect x="273.7" y="231.1" fill="#DA4126" width="5.1" height="1.7"/>
			<rect x="272.1" y="180.5" fill="#FFFFFF" width="28.4" height="3.2"/>
		</g>
		<g>
			<g>
				<path fill="#FFFFFF" d="M293.7,234.3c-1.6,0-2.9-1.3-2.9-2.9v-46.3c0-1.6,1.3-2.9,2.9-2.9h19.2c1.6,0,2.9,1.3,2.9,2.9v46.3
					c0,1.6-1.3,2.9-2.9,2.9H293.7z"/>
				<path fill="#615D77" d="M312.9,182.7c1.4,0,2.5,1.1,2.5,2.5v46.3c0,1.4-1.1,2.5-2.5,2.5h-19.2c-1.4,0-2.5-1.1-2.5-2.5v-46.3
					c0-1.4,1.1-2.5,2.5-2.5H312.9 M312.9,181.9h-19.2c-1.8,0-3.2,1.4-3.2,3.2v46.3c0,1.8,1.4,3.2,3.2,3.2h19.2
					c1.8,0,3.2-1.4,3.2-3.2v-46.3C316.1,183.4,314.6,181.9,312.9,181.9L312.9,181.9z"/>
			</g>
			<path fill="#3F444C" d="M312.9,181.9h-19.2c-1.8,0-3.2,1.4-3.2,3.2v6.1h25.6v-6.1C316.1,183.4,314.6,181.9,312.9,181.9z"/>
			<g>
				<circle fill="#F06228" cx="295.3" cy="186.7" r="1.8"/>
				<circle fill="#F5B879" cx="300.3" cy="186.7" r="1.8"/>
				<circle fill="#AFBC46" cx="305.3" cy="186.7" r="1.8"/>
			</g>
			<rect x="294.8" y="196.2" fill="#3F444C" width="14.8" height="1.3"/>
			<g>
				<rect x="294.8" y="224.2" fill="#3F444C" width="15.9" height="1.3"/>
				<rect x="294.8" y="228.1" fill="#64647A" width="13.5" height="1.3"/>
			</g>
			<g>
				<rect x="295.2" y="202.5" fill="#D9E8F1" width="16.4" height="17.8"/>
				<path fill="#8EC2D4" d="M311.9,220.6h-17.1v-18.5h17.1V220.6L311.9,220.6z M295.5,219.9h15.7v-17.1h-15.7V219.9L295.5,219.9z"/>
			</g>
		</g>
		<g>
			<rect x="184.3" y="166.2" opacity="0.5" fill="#FFFFFF" width="152.6" height="5.2"/>
			<circle fill="#FFFFFF" cx="333.9" cy="168.8" r="1.2"/>
			<circle fill="#FFFFFF" cx="330" cy="168.8" r="1.2"/>
			<rect x="187.8" y="168.3" fill="#FFFFFF" width="7.4" height="1.1"/>
		</g>
		<g>
			<polygon opacity="0.5" fill="#FFFFFF" points="302.4,254.4 218.9,254.4 220.7,249.1 300.6,249.1 			"/>
			<g>
				<path fill="#F3E353" d="M239,246.6c0.6,0,1.1,0.5,1.1,1.1v3.2c0,0.6-0.5,1.1-1.1,1.1h-3.2c-0.6,0-1.1-0.5-1.1-1.1v-3.2
					c0-0.6,0.5-1.1,1.1-1.1H239z"/>
				<path fill="#FCC50B" d="M229.7,246.6c0.6,0,1.1,0.5,1.1,1.1v3.2c0,0.6-0.5,1.1-1.1,1.1h-3.2c-0.6,0-1.1-0.5-1.1-1.1v-3.2
					c0-0.6,0.5-1.1,1.1-1.1H229.7z"/>
				<path fill="#F2929F" d="M263.7,252c-0.6,0-1.1-0.5-1.1-1.1v-3.2c0-0.6,0.5-1.1,1.1-1.1h3.2c0.6,0,1.1,0.5,1.1,1.1v3.2
					c0,0.6-0.5,1.1-1.1,1.1H263.7z"/>
				<path fill="#D2D3E2" d="M254.4,252c-0.6,0-1.1-0.5-1.1-1.1v-3.2c0-0.6,0.5-1.1,1.1-1.1h3.2c0.6,0,1.1,0.5,1.1,1.1v3.2
					c0,0.6-0.5,1.1-1.1,1.1H254.4z"/>
				<path fill="#B9D439" d="M245.1,252c-0.6,0-1.1-0.5-1.1-1.1v-3.2c0-0.6,0.5-1.1,1.1-1.1h3.2c0.6,0,1.1,0.5,1.1,1.1v3.2
					c0,0.6-0.5,1.1-1.1,1.1H245.1z"/>
				<path fill="#D2D3E2" d="M285.5,246.6c0.6,0,1.1,0.5,1.1,1.1v3.2c0,0.6-0.5,1.1-1.1,1.1h-3.2c-0.6,0-1.1-0.5-1.1-1.1v-3.2
					c0-0.6,0.5-1.1,1.1-1.1H285.5z"/>
				<path fill="#C6F5DC" d="M276.2,246.6c0.6,0,1.1,0.5,1.1,1.1v3.2c0,0.6-0.5,1.1-1.1,1.1H273c-0.6,0-1.1-0.5-1.1-1.1v-3.2
					c0-0.6,0.5-1.1,1.1-1.1H276.2z"/>
				<path fill="#00B1DB" d="M291.5,252c-0.6,0-1.1-0.5-1.1-1.1v-3.2c0-0.6,0.5-1.1,1.1-1.1h3.2c0.6,0,1.1,0.5,1.1,1.1v3.2
					c0,0.6-0.5,1.1-1.1,1.1H291.5z"/>
			</g>
		</g>
		<path opacity="0.1" fill="#FFFFFF" d="M295.1,155.2H177.2c-2.4,0-4.4,2-4.4,4.4v101.7c0,2.4,2,4.4,4.4,4.4h75.4
			C259.4,248.8,286.4,178.1,295.1,155.2z"/>
	</g>
</g>
</svg>
