<?xml version="1.0" encoding="utf-8"?>
<!-- Generator: Adobe Illustrator 19.0.0, SVG Export Plug-In . SVG Version: 6.00 Build 0)  -->
<svg version="1.1" id="Capa_1" xmlns="http://www.w3.org/2000/svg" xmlns:xlink="http://www.w3.org/1999/xlink" x="0px" y="0px"
	 viewBox="0 0 226.1 80" style="enable-background:new 0 0 226.1 80;" xml:space="preserve">
<style type="text/css">
	.st0{fill:#FFFFFF;}
	.st1{fill:#3FA8F4;}
</style>
<g>
	<g>
		<path class="st0" d="M128.3,55.2c0,1.3,0,3,0,4.2c-0.2,7.1-5.1,10.3-12.5,10.3c-6.5,0-10.5-2.6-11-7.6l0-0.4h7.1l0,0.4
			c0.2,1.4,1.8,2.2,4.1,2.2c2.7,0,4.7-1.2,4.9-4.1c0-0.7,0.1-1.7,0.1-2.9v-0.6l-1.6,2.4c-1.2,0.9-2.9,1.3-5.1,1.3
			c-5.9,0-10-4-10-10.5c0-7.7,4.7-11.6,10.3-11.6c1.8,0,3.9,0.4,5,1.1l1.4,2.3v-2.8h7.3V55.2z M120.9,49.3v-0.1
			c0-4.4-2.2-5.8-4.4-5.8c-2.9,0-4.8,1.7-4.8,6.1c0,4.1,2,6,4.6,6C119,55.5,120.9,53.9,120.9,49.3z"/>
		<path class="st0" d="M189,54.3v6.4h-7.3v-30h7.3v17.3l7.7-9.1h8.6l-9.2,10l9.3,11.8h-9l-5.8-8.1L189,54.3z"/>
		<path class="st0" d="M225.5,45.3h-7.2c-0.3-1.5-1.1-2.4-2.4-2.4c-1,0-1.8,0.7-1.8,1.6c0,1.2,1,2,5.1,3.1c4,1,6.8,2.7,6.8,6.9
			c0,4.6-4.4,6.8-9.6,6.8c-5.9,0-9.9-2.4-10.5-7.3h7.2c0.4,1.7,1.7,2.8,3.3,2.8c1.3,0,2.3-0.5,2.3-1.7c0-1.4-1.4-2.2-5.3-3.1
			c-4.2-1-6.6-2.9-6.6-6.6c0-4.3,3.8-7,9.5-7C221.8,38.4,225,41.3,225.5,45.3z"/>
	</g>
	<g>
		<path class="st0" d="M26.6,11.1l0,0.4h-7.3l-0.1-0.4c-0.6-3-2.4-4.4-5.4-4.4c-3.5,0-6.2,2.9-6.2,9c0,7.1,2.9,9.5,6.2,9.5
			c2.9,0,4.7-1.8,5.3-4.9l0.1-0.4h7.3l0,0.4c-0.7,6.8-5.9,10.2-12.9,10.2C6.1,30.5,0,25.6,0,16.1C0,6.3,6.3,1.3,13.9,1.3
			C21.9,1.3,26,5.5,26.6,11.1z"/>
		<path class="st0" d="M52.1,19.1c0,7-4.6,11.5-11.7,11.5S28.7,26,28.7,19.1c0-7,4.6-11.5,11.7-11.5S52.1,12.1,52.1,19.1z
			 M44.6,19.1c0-4.4-1.6-6.5-4.2-6.5s-4.2,2.1-4.2,6.5c0,4.3,1.6,6.5,4.2,6.5S44.6,23.4,44.6,19.1z"/>
		<path class="st0" d="M77.4,17.7V30H70V18.9c0-0.7,0-1.9-0.1-3c-0.2-2.1-1.3-3.3-3.5-3.3c-2.2,0-3.8,2.2-3.8,7.1V30h-7.3V8.2h7.3
			v3.4l2-2.7c1.3-0.8,2.9-1.3,4.9-1.3c4.5,0,7.1,2.1,7.7,5.9C77.3,14.6,77.4,15.9,77.4,17.7z"/>
		<path class="st0" d="M99.6,14.6h-7.2c-0.3-1.5-1.1-2.4-2.4-2.4c-1,0-1.8,0.7-1.8,1.6c0,1.2,1,2,5.1,3.1c4,1,6.8,2.7,6.8,6.9
			c0,4.6-4.4,6.8-9.6,6.8c-5.9,0-9.9-2.4-10.5-7.3h7.2c0.4,1.7,1.7,2.8,3.3,2.8c1.3,0,2.3-0.5,2.3-1.7c0-1.4-1.4-2.2-5.3-3.1
			c-4.2-1-6.6-2.9-6.6-6.6c0-4.3,3.8-7,9.5-7C95.9,7.6,99.1,10.6,99.6,14.6z"/>
		<path class="st0" d="M124.7,30h-7.3v-3.7l-2,3c-1.3,0.8-2.9,1.3-4.9,1.3c-4.5,0-7.2-2.5-7.7-5.5c-0.2-1.1-0.2-2.4-0.2-4.1V8.2h7.3
			v11.1c0,0.7,0,1.9,0.2,3c0.2,2.1,1.2,3.3,3.5,3.3c2.3,0,3.7-2.2,3.7-5.1V8.2h7.3V30z"/>
		<path class="st0" d="M136.3,22.1c0,1,0,1.5,0.1,2c0.1,0.9,0.5,1.1,2.4,1.1v5c-1.3,0.1-2.6,0.2-4.3,0.2c-3.4,0-5.3-1.3-5.5-4.2
			c-0.1-1.1-0.1-2.2-0.1-3.9V0h7.3V22.1z"/>
		<path class="st0" d="M150.4,21c0,0.7,0,1.5,0,2.1c0.2,2.2,0.9,2.7,4.3,2.5v4.6c-1.4,0.2-2.8,0.4-4.3,0.4c-5.4,0-7.1-1.7-7.3-5
			c-0.1-1.3-0.1-2.3-0.1-3.5v-9.1h-3.5V8.4h3.5V2.7h7.3v5.6h4.8v4.6h-4.8V21z"/>
		<path class="st0" d="M170.2,26.8l-0.9,2.3c-1.5,1-3.4,1.5-5.4,1.5c-3.6,0-7-2.2-7-6.4c0-4.6,4.4-7.5,11.8-7.5h1.4v-0.3
			c0-0.4,0-0.9-0.1-1.6c-0.1-1.1-1-2.1-2.6-2.1c-1.7,0-2.7,1.1-2.8,3l-6.9,0c0-5.1,4.6-8,10.1-8c6.9,0,9.3,3.1,9.6,7
			c0.1,1.1,0.1,2.4,0.1,3.7v6.1c0,1.6,0.1,3.1,0.4,5.5h-7.2L170.2,26.8z M170.1,22.2v-1.4c-3.3-0.2-5.7,0.6-5.7,2.8c0,1.3,1,2,2.5,2
			C168.4,25.6,170.1,24.5,170.1,22.2z"/>
	</g>
	<path class="st1" d="M178.2,47.2c-0.9-4.7-4.5-8.8-10.7-8.8c-6.2,0-10.3,3.8-11.3,8.8h-2.5c-0.9-4.7-4.5-8.8-10.7-8.8
		c-6.2,0-10.3,3.8-11.3,8.8h-3.5v4.5h3.3c0.7,6.5,5.4,9.6,11.1,9.6c5.6,0,9.7-2.8,10.9-7.7h-7.2c-0.3,1.7-1.5,2.7-3.6,2.7
		c-2.1,0-3.7-1-4-4.6h17.3c0.7,6.5,5.4,9.6,11.1,9.6c5.6,0,9.7-2.8,10.9-7.7h-7.2c-0.3,1.7-1.5,2.7-3.6,2.7c-2.1,0-3.7-1-4-4.6h18.5
		v-4.5H178.2z M138.8,47.2c0.5-2.7,1.8-3.8,3.8-3.8c2,0,3.2,1.3,3.6,3.8H138.8z M163.3,47.2c0.5-2.7,1.8-3.8,3.8-3.8
		c2,0,3.2,1.3,3.6,3.8H163.3z"/>
	<g>
		<path class="st1" d="M154.7,80c-13.8,0-20.4-9.8-20.7-10.2l4.7-3.2c0.2,0.3,5.3,7.7,16,7.7c10.6,0,15.9-7.4,16.1-7.7l4.7,3.2
			C175.2,70.3,168.4,80,154.7,80z"/>
	</g>
</g>
</svg>
