<?xml version="1.0" encoding="utf-8"?>
<!-- Generator: Adobe Illustrator 19.0.0, SVG Export Plug-In . SVG Version: 6.00 Build 0)  -->
<svg version="1.1" id="Capa_1" xmlns="http://www.w3.org/2000/svg" xmlns:xlink="http://www.w3.org/1999/xlink" x="0px" y="0px"
	 viewBox="0 0 130 130" enable-background="new 0 0 130 130" xml:space="preserve">
<g id="XMLID_11_">
	<g>
		<path id="XMLID_63_" fill="#0071BB" d="M63.7,0c35.2,0,63.7,28.5,63.7,63.7s-28.5,63.7-63.7,63.7S0,98.9,0,63.7S28.5,0,63.7,0
			L63.7,0z"/>
		<path id="XMLID_62_" fill="#A9CDDD" d="M83.5,44.4V30.8H44v13.6c0,9,5.6,16.6,13.4,19.3C49.6,66.5,44,74.1,44,83v13.6h39.5V83
			c0-9-5.6-16.6-13.4-19.3C77.9,61,83.5,53.4,83.5,44.4L83.5,44.4z"/>
		<path id="XMLID_61_" fill="#8FBFD1" d="M83.5,44.4V30.8H63.9v65.8h19.6V83c0-9-5.6-16.6-13.4-19.3C77.9,61,83.5,53.4,83.5,44.4
			L83.5,44.4z"/>
		<polygon id="XMLID_60_" fill="#F4E9B5" points="48.7,96.6 78.8,96.6 66.2,79.7 66.2,63.9 76.7,53.4 52.6,53.4 61.8,63.9 
			61.8,79.7 48.7,96.6 		"/>
		<polygon id="XMLID_59_" fill="#EDDD8C" points="66.2,79.7 66.2,63.9 76.7,53.4 63.9,53.4 63.9,96.6 78.8,96.6 66.2,79.7 		"/>
		<path id="XMLID_58_" fill="#00265A" d="M84.5,32.6H43c-2.3,0-4.2-1.9-4.2-4.2l0,0c0-2.3,1.9-4.2,4.2-4.2h41.5
			c2.3,0,4.2,1.9,4.2,4.2l0,0C88.6,30.7,86.8,32.6,84.5,32.6L84.5,32.6z"/>
		<path id="XMLID_57_" fill="#00265A" d="M84.5,103.2H43c-2.3,0-4.2-1.9-4.2-4.2l0,0c0-2.3,1.9-4.2,4.2-4.2h41.5
			c2.3,0,4.2,1.9,4.2,4.2l0,0C88.6,101.3,86.8,103.2,84.5,103.2L84.5,103.2z"/>
	</g>
	<g>
		<g>
			<path fill="#3FA8F4" d="M130,101.3c0,15.8-12.8,28.7-28.7,28.7c-15.8,0-28.7-12.8-28.7-28.7c0-15.8,12.8-28.7,28.7-28.7
				C117.2,72.6,130,85.5,130,101.3L130,101.3z M130,101.3"/>
		</g>
	</g>
	<g id="XMLID_14_">
		<path id="XMLID_65_" fill="#FFFFFF" d="M90.8,109.5c-0.9-0.2-1.8-0.4-2.4-0.7s-1-0.8-1-1.3c0-0.2,0.1-0.5,0.2-0.8
			c0.1-0.3,0.3-0.7,0.5-0.9c0.2-0.3,0.4-0.4,0.6-0.4c0.1,0,0.4,0.1,0.7,0.3c0.5,0.3,1.1,0.5,1.6,0.6c0.5,0.2,1.1,0.2,1.8,0.2
			c0.8,0,1.5-0.2,2-0.7c0.5-0.5,0.8-1.1,0.8-2c0-1-0.3-1.7-0.8-2.1c-0.5-0.5-1.4-0.7-2.5-0.7h-0.8c-0.3,0-0.5-0.1-0.6-0.3
			c-0.1-0.2-0.2-0.6-0.2-1.1V99c0-0.5,0.1-0.8,0.2-1.1c0.1-0.2,0.3-0.3,0.6-0.3H92c0.9,0,1.6-0.2,2.1-0.6s0.8-1,0.8-1.7
			s-0.2-1.3-0.6-1.7C94,93.2,93.4,93,92.6,93c-0.6,0-1.1,0.1-1.5,0.2s-0.8,0.3-1.2,0.5c-0.3,0.2-0.5,0.2-0.6,0.2
			c-0.3,0-0.6-0.3-0.9-0.8c-0.3-0.5-0.5-1-0.5-1.4c0-0.7,0.5-1.2,1.6-1.5c1.1-0.4,2.3-0.5,3.8-0.5c1.8,0,3.2,0.4,4.2,1.3
			c1,0.9,1.6,2.1,1.6,3.6c0,1-0.2,1.8-0.7,2.5c-0.5,0.7-1.1,1.2-1.9,1.6v0.1c1.1,0.4,1.9,1.1,2.4,1.9c0.5,0.9,0.8,1.9,0.8,3.1
			c0,1.8-0.6,3.3-1.8,4.3c-1.2,1.1-2.7,1.6-4.6,1.6C92.6,109.8,91.7,109.7,90.8,109.5z"/>
		<path id="XMLID_67_" fill="#FFFFFF" d="M105.2,108.6c-1-0.8-1.8-1.9-2.3-3.4s-0.8-3.3-0.8-5.4c0-2.1,0.3-3.9,0.8-5.4
			c0.5-1.5,1.3-2.7,2.3-3.4c1-0.8,2.2-1.2,3.6-1.2s2.6,0.4,3.6,1.2c1,0.8,1.8,1.9,2.3,3.4c0.5,1.5,0.8,3.3,0.8,5.4
			c0,2.1-0.3,3.9-0.8,5.4s-1.3,2.7-2.3,3.4c-1,0.8-2.2,1.2-3.6,1.2S106.2,109.4,105.2,108.6z M110.6,104.8c0.4-1.1,0.6-2.8,0.6-5
			c0-2.2-0.2-3.9-0.6-5s-1-1.7-1.8-1.7s-1.4,0.6-1.8,1.7s-0.6,2.8-0.6,5c0,2.2,0.2,3.9,0.6,5s1,1.7,1.8,1.7S110.2,105.9,110.6,104.8
			z"/>
	</g>
</g>
<g id="XMLID_64_">
</g>
<g id="XMLID_70_">
</g>
<g id="XMLID_71_">
</g>
<g id="XMLID_72_">
</g>
<g id="XMLID_73_">
</g>
<g id="XMLID_74_">
</g>
<g id="XMLID_75_">
</g>
<g id="XMLID_76_">
</g>
<g id="XMLID_77_">
</g>
<g id="XMLID_78_">
</g>
<g id="XMLID_79_">
</g>
<g id="XMLID_80_">
</g>
<g id="XMLID_81_">
</g>
<g id="XMLID_82_">
</g>
<g id="XMLID_83_">
</g>
</svg>
